<svg xmlns="http://www.w3.org/2000/svg" viewBox="0 0 314.7 314.7"><g stroke-linecap="round" stroke-linejoin="round" stroke-miterlimit="10"><path fill="#ffc387" d="M169.3 226a5.7 5.7 0 0 0-4.3 1.8l-.3.4a5.7 5.7 0 0 0-.6.6l-.2.4a5.7 5.7 0 0 0-.1 0l-.3.5-.4.6-.5.7-.4.6-.6.7-.5.7-.5.6-.6.7-.6.5-.5.6-.6.5-.6.5-.6.5-.6.6-.7.6-.8.6-.7.7-.8.6-.7.7-.8.6-.7.7-.8.6-.8.7a5.7 5.7 0 0 0 0 .1l-.7.7a5.7 5.7 0 0 0-.1 0l-.7.7-.8.7a5.7 5.7 0 0 0 0 .1l-.6.6a5.7 5.7 0 0 0-.2.2l-.5.6a5.7 5.7 0 0 0-.2.2l-.4.5a5.7 5.7 0 0 0-.4.6l-.4.7a5.7 5.7 0 0 0-.9 3v.7a5.7 5.7 0 0 0 9.2 4.3l.4-.3.3-.2.4-.3.4-.4.4-.2.5-.4.6-.4.4-.3.4-.2.3-.3a5.7 5.7 0 0 0 .1 0l.3-.3.4-.3.4-.2.6-.5.5-.4h-.2a5.7 5.7 0 0 0 .6-.2l.4-.2a5.7 5.7 0 0 0 2.4-4.8l.4-.3.7-.6.7-.6.7-.6a5.7 5.7 0 0 0 .1 0l.7-.7a5.7 5.7 0 0 0 .1 0l.7-.7.7-.7a5.7 5.7 0 0 0 .1-.1l.7-.7a5.7 5.7 0 0 0 .1-.2h.1a5.7 5.7 0 0 0 6-4.1l.3-1.2a5.7 5.7 0 0 0 0-.4l.2-1a5.7 5.7 0 0 0 .1-.4v-1a5.7 5.7 0 0 0 .1-.3v-.7a5.7 5.7 0 0 0 0-.6v-.5a5.7 5.7 0 0 0-1.3-3.1l-.3-.4a5.7 5.7 0 0 0-4.2-2.1zm200.2 282.2a13.2 13.2 0 0 0-6.7 1.4l-.5.3a13.2 13.2 0 0 0-6.7 8l-.2.6a13.2 13.2 0 0 0-.1.5l-.1.5a13.2 13.2 0 0 0 0 .2l-.2.6a13.2 13.2 0 0 0 0 .2l-.2.8a13.2 13.2 0 0 0 0 .1l-.3.9-.2 1-.2 1-.2 1.2-.2 1.1-.3 1.3-.3 1.3-.2 1.3-.3 1.3-.2 1.3-.3 1.2-.2 1.2-.2 1-.2 1-.2 1-.3.9-.2 1-.2 1-.3.9-.2.8a13.2 13.2 0 0 0 0 .2l-.2.9-.2.9-.3.9a13.2 13.2 0 0 0 0 .2l-.2.8a13.2 13.2 0 0 0 0 .1l-.2.9a13.2 13.2 0 0 0-7.7 1.9l-.4.2a13.2 13.2 0 0 0-1.8 1.6l-.5.4a13.2 13.2 0 0 0-.2.2l-.6.6a13.2 13.2 0 0 0 0 .1l-.9.9a13.2 13.2 0 0 0-.1.1l-1 1a13.2 13.2 0 0 0-.1.2l-.2.1-.5.4a13.2 13.2 0 0 0-.1.1l-.6.4-.6.4a13.2 13.2 0 0 0-.2.1 13.2 13.2 0 0 0-14.5 1.9l-.6.5a13.2 13.2 0 0 0-.8.9l-.5.6-.7.8a13.2 13.2 0 0 0-.2.2l-1 1.1-1.2 1.5-1.4 1.7-1.7 2-1.7 2-1.8 2-1.8 2.1-1.8 2-1.7 1.8-1 1.2a13.2 13.2 0 0 0-1.2.3 13.2 13.2 0 0 0-9.9 1.4l-.4.3a13.2 13.2 0 0 0-2.4 2l-.7.8a13.2 13.2 0 0 0-.6.6l-1 1.2a13.2 13.2 0 0 0-.1.2l-1.3 1.5-1.5 1.8-.8 1a13.2 13.2 0 0 0-1.4-1.5l1-1.5a13.2 13.2 0 0 0 .2-.4l1.5-2.2a13.2 13.2 0 0 0 .2-.4l1.2-2a13.2 13.2 0 0 0 .3-.5l1-2a13.2 13.2 0 0 0 .2-.3l.8-1.6a13.2 13.2 0 0 0 .2-.4l.6-1.4a13.2 13.2 0 0 0 .2-.3l.4-1.1a13.2 13.2 0 0 0 .3-.6l.3-.8a13.2 13.2 0 0 0 .4-1.3l.2-.6a13.2 13.2 0 0 0-.2-2.3l.6-.4 1.3-.7 2.5-1.4a13.2 13.2 0 0 0 .2 0l.2-.2.5-.2a13.2 13.2 0 0 0 .4-.2l.4-.1a13.2 13.2 0 0 0 1.4-.7l.4-.2a13.2 13.2 0 0 0 1.4-1l.4-.2a13.2 13.2 0 0 0 .9-.7l.3-.3.3-.3.5-.4.4-.4a13.2 13.2 0 0 0 .1 0l.5-.5a13.2 13.2 0 0 0 .1-.1l.5-.4.3-.3-.2.1h.1l.2-.2a13.2 13.2 0 0 0-12.8-23l-.4.1a13.2 13.2 0 0 0-.5.4l-.4.2a13.2 13.2 0 0 0-.4.2l-.3.2a13.2 13.2 0 0 0-.2.1l-.4.3a13.2 13.2 0 0 0-.7.5l-.4.3a13.2 13.2 0 0 0-.4.4l-.5.3a13.2 13.2 0 0 0-.3.3l-.2.2-.5.4-.7.4-.6.4-.7.5-.4.1h-.2l-.1.1h-.6a13.2 13.2 0 0 0-.2 0l-.4.1h1.3l-.3.2-.5.3a13.2 13.2 0 0 0-1 0 13.2 13.2 0 0 0-11.3-.7l-.3.1-.2.1-.3.2h-.4l-.4.2-.4.2-.4.1-.6.2-.6.2a13.2 13.2 0 0 0-.2 0l-.6.2-.6.2a13.2 13.2 0 0 0-.2 0l-.6.3-.7.2-.8.2a13.2 13.2 0 0 0-.2.1l-.6.3a13.2 13.2 0 0 0-.3 0l-.7.3a13.2 13.2 0 0 0-.3.1l-.7.3a13.2 13.2 0 0 0-.2.1l-.7.3a13.2 13.2 0 0 0-.3.2l-.7.3-.8.3a13.2 13.2 0 0 0-.2.1l-.8.4a13.2 13.2 0 0 0-.2.1l-.8.4-.8.5a13.2 13.2 0 0 0-.3.1l-.8.5-.9.5-.8.4a13.2 13.2 0 0 0-.2.2l-.9.5-1 .5a13.2 13.2 0 0 0-.2.2l-1 .6a13.2 13.2 0 0 0-.3.2l-1 .6h-.3l-1.5-.5-1.5-.4-.6-.1a13.2 13.2 0 0 0-.1-.2l-.4-.2a13.2 13.2 0 0 0-1.8-1l-.5-.2a13.2 13.2 0 0 0-2.1-.7h-.4a13.2 13.2 0 0 0-.7-.2l-.6-.1a13.2 13.2 0 0 0-.9-.1l-.6-.1a13.2 13.2 0 0 0-1 0l-.7-.1a13.2 13.2 0 0 0-.8 0h-.4a13.2 13.2 0 0 0-.5 0h-.4a13.2 13.2 0 0 0-.9.1h-.4a13.2 13.2 0 0 0-.3.1h-.5a13.2 13.2 0 0 0-.7.2l-.5.1a13.2 13.2 0 0 0-.1 0l-.5.1-.5.1a13.2 13.2 0 0 0-.1 0l-.4.2h-.4a13.2 13.2 0 0 0-.4.1l-.4.1a13.2 13.2 0 0 0-.4.1l-.8.2a13.2 13.2 0 0 0-.7.3l-.7.2a13.2 13.2 0 0 0-.6.2l-.7.3a13.2 13.2 0 0 0-2.1 1l-.5.4a13.2 13.2 0 0 0-.9 1 13.2 13.2 0 0 0-1.3-1.6l-.3-.3a13.2 13.2 0 0 0-1.5-1.1l-.4-.3a13.2 13.2 0 0 0-.6-.3l-.4-.2a13.2 13.2 0 0 0-2-1l-.3-.1a13.2 13.2 0 0 0-6.2.2 13.2 13.2 0 0 0-.6-.5l-.4-.3a13.2 13.2 0 0 0-.6-.4l-.4-.2a13.2 13.2 0 0 0-1-.6l-.5-.2-.5-.2a13.2 13.2 0 0 0-1.3-.6l-.4-.1a13.2 13.2 0 0 0-.9-.3l-.4-.1a13.2 13.2 0 0 0-.9-.2l-.4-.1a13.2 13.2 0 0 0-.4 0l-.4-.2a13.2 13.2 0 0 0-.6 0l-.2-.2h-.1a13.2 13.2 0 0 0-.1-.1 13.2 13.2 0 0 0-.6-.8 13.2 13.2 0 0 0-.1-.1 13.2 13.2 0 0 0-.4-.5l-.3-.4a13.2 13.2 0 0 0-2.5-2l-.4-.2a13.2 13.2 0 0 0-.3-.2l.4.2a13.2 13.2 0 0 0-.5-.3 13.2 13.2 0 0 0-.6-.3 13.2 13.2 0 0 0-17.5 19.2l.3.5a13.2 13.2 0 0 0 .2.2l.3.4a13.2 13.2 0 0 0 .3.3l.3.4a13.2 13.2 0 0 0 .2.2l.5.6a13.2 13.2 0 0 0 .1 0l.3.4a13.2 13.2 0 0 0 .3.3l.7.6a13.2 13.2 0 0 0 .1.2l.4.3a13.2 13.2 0 0 0 .4.4l.4.4a13.2 13.2 0 0 0 .1 0l.4.4a13.2 13.2 0 0 0 .4.4l.5.3a13.2 13.2 0 0 0 .1.1l.4.4a13.2 13.2 0 0 0 .5.3l.4.3a13.2 13.2 0 0 0 .4.3l.4.3a13.2 13.2 0 0 0 .4.2l.4.2a13.2 13.2 0 0 0 .2.2l.5.2a13.2 13.2 0 0 0 .1.1l.3.2.2.1.2.1v.1l.3.1.2.2.2.2h.1l.2.4a13.2 13.2 0 0 0 .2.4l.3.4a13.2 13.2 0 0 0 5 4.7l.4.1.1.1a13.2 13.2 0 0 0 .1.1l.4.3a13.2 13.2 0 0 0 .5.4l.3.2a13.2 13.2 0 0 0 .5.3l.4.3a13.2 13.2 0 0 0 .9.6l.4.2a13.2 13.2 0 0 0 .3.2l.5.2a13.2 13.2 0 0 0 .5.3l.5.2.5.2a13.2 13.2 0 0 0 1.4.5l.4.4a13.2 13.2 0 0 0 2.6 1.5l.5.2a13.2 13.2 0 0 0 .7.3 13.2 13.2 0 0 0 5.8 7.8l.4.2a13.2 13.2 0 0 0 .8.5l.5.2a13.2 13.2 0 0 0 .1 0l.5.3a13.2 13.2 0 0 0 .4.2l.6.2a13.2 13.2 0 0 0 .1.1 13.2 13.2 0 0 0 .1 0l.6.5a13.2 13.2 0 0 0 .2 0l.7.5a13.2 13.2 0 0 0 .2 0l.6.4a13.2 13.2 0 0 0 .3.2l.7.4a13.2 13.2 0 0 0 .4.2l.6.3a13.2 13.2 0 0 0 .6.3l.6.2a13.2 13.2 0 0 0 .4.2l.6.2a13.2 13.2 0 0 0 .4.2l.7.6a13.2 13.2 0 0 0 .3.3l.6.5a13.2 13.2 0 0 0 .3.2l.6.6a13.2 13.2 0 0 0 .3.2l.7.5a13.2 13.2 0 0 0 .2.2l.6.4a13.2 13.2 0 0 0 .4.3l.5.3a13.2 13.2 0 0 0 .3.2l.5.3a13.2 13.2 0 0 0 .4.3l.7.4a13.2 13.2 0 0 0 2 .8 13.2 13.2 0 0 0 .8.7l.3.3a13.2 13.2 0 0 0 .2.2l.4.3.1.1.2.3.3.2.4.4a13.2 13.2 0 0 0 .2.2l.4.4.4.4a13.2 13.2 0 0 0 .3.2l.5.4a13.2 13.2 0 0 0 .4.4l.5.4a13.2 13.2 0 0 0 .3.2l.5.4a13.2 13.2 0 0 0 .4.3l.6.4a13.2 13.2 0 0 0 .2.1l.5.4a13.2 13.2 0 0 0 .2 0l.6.5.6.4.5.3a13.2 13.2 0 0 0 .2 0l.6.5a13.2 13.2 0 0 0 .1 0l.7.5a13.2 13.2 0 0 0 .2 0l.6.5.6.4a13.2 13.2 0 0 0 .2 0l.6.4a13.2 13.2 0 0 0 .2 0l.5.4a13.2 13.2 0 0 0 .2 0l.6.4a13.2 13.2 0 0 0 .2 0l.4.3.5.3.5.2.4.2.2.2.3.1.3.3a13.2 13.2 0 0 0 .3.2l.5.5a13.2 13.2 0 0 0 .2.1l.4.4.3.2.2.3.3.2a13.2 13.2 0 0 0 .1.1l.3.3.3.3.2.2.2.2a13.2 13.2 0 0 0 .2.2l.3.3a13.2 13.2 0 0 0 .3.2l.3.4a13.2 13.2 0 0 0 .1 0l.2.2.3.4a13.2 13.2 0 0 0 .4.5l.4.5a13.2 13.2 0 0 0 2 1.9l.4.3a13.2 13.2 0 0 0 .4.3v.3a13.2 13.2 0 0 0-.1.2l-.3 1-.2 1a13.2 13.2 0 0 0 0 .1l-.3 1-.2 1-.2.8a13.2 13.2 0 0 0-.1.2l-.2.8a13.2 13.2 0 0 0 0 .2l-.1.7a13.2 13.2 0 0 0 0 .2l-.2.7a13.2 13.2 0 0 0 0 .3l-.1.6a13.2 13.2 0 0 0-.1.8v.8a13.2 13.2 0 0 0-.1 1.8v.5a13.2 13.2 0 0 0 2.8 7.3l.3.4a13.2 13.2 0 0 0 4.1 2.7 13.2 13.2 0 0 0 .5.7l.4.3a13.2 13.2 0 0 0 1.6.6 13.2 13.2 0 0 0 .6.4l.4.1a13.2 13.2 0 0 0 1.2.2 13.2 13.2 0 0 0 7 2.4h.4a13.2 13.2 0 0 0 1.7-.3l.5-.1a13.2 13.2 0 0 0 .6-.2h1.2a13.2 13.2 0 0 0 .3 0h.4a13.2 13.2 0 0 0 .2 0h-.2a13.2 13.2 0 0 0 .5 0h.5a13.2 13.2 0 0 0 .8 0h1.1a13.2 13.2 0 0 0 .2 0h2.7a13.2 13.2 0 0 0 .4 0h.7a13.2 13.2 0 0 0 .7 0h.7a13.2 13.2 0 0 0 .3 0h.7a13.2 13.2 0 0 0 .1 0H283.8a13.2 13.2 0 0 0 .3 0h.7a13.2 13.2 0 0 0 .2 0l.6-.1h.5a13.2 13.2 0 0 0 .1 0h.7a13.2 13.2 0 0 0 .8-.1h.7a13.2 13.2 0 0 0 .1 0l.5-.1h.5a13.2 13.2 0 0 0 .1 0l.7-.1.7-.1a13.2 13.2 0 0 0 .2 0h.7a13.2 13.2 0 0 0 .5-.1l.7-.1a13.2 13.2 0 0 0 .6-.1l.7-.2a13.2 13.2 0 0 0 .5 0l.8-.2a13.2 13.2 0 0 0 .2-.1l.7-.2a13.2 13.2 0 0 0 .1 0h.2l.3-.1.4-.1h.4v-.1h.2a13.2 13.2 0 0 0 .2 0l.3-.1h.4a13.2 13.2 0 0 0 .4-.1h.5a13.2 13.2 0 0 0 0-.1h.5a13.2 13.2 0 0 0 0-.1h.5a13.2 13.2 0 0 0 .3-.1l.5-.1a13.2 13.2 0 0 0 .2 0l.5-.2.5-.1.4-.1h.2l.4-.1.4-.1a13.2 13.2 0 0 0 .2 0l.5-.1.6-.1.5-.1.5-.1h.5l.4-.2h1l.6-.1.7-.1a13.2 13.2 0 0 0 .2 0l.6-.1.7-.1a13.2 13.2 0 0 0 .2 0l.7-.2a13.2 13.2 0 0 0 .2 0l.7-.1.6-.1a13.2 13.2 0 0 0 .3 0l.6-.2a13.2 13.2 0 0 0 .3 0l.6-.2a13.2 13.2 0 0 0 .1 0l.6-.1.6-.1.5-.1.4-.1h.4l.3-.1h.3l.3-.1a13.2 13.2 0 0 0 .2 0h.5a13.2 13.2 0 0 0 .1 0l.5-.2a13.2 13.2 0 0 0 .2 0h.5a13.2 13.2 0 0 0 .2 0l.5-.2h.4a13.2 13.2 0 0 0 .1 0l.4-.1.5-.1a13.2 13.2 0 0 0 .2 0l.4-.1a13.2 13.2 0 0 0 .2 0l.4-.1.4-.1a13.2 13.2 0 0 0 .2 0l1.5-.4.7-.2h.5a13.2 13.2 0 0 0 .2-.1h.5a13.2 13.2 0 0 0 .2-.1l.4-.1a13.2 13.2 0 0 0 .1 0h.3l.4-.1.8-.2h.3l.5-.1.4-.1h.5l.8-.2a13.2 13.2 0 0 0 .1 0l.5-.1a13.2 13.2 0 0 0 .1 0l.5-.1.4-.1a13.2 13.2 0 0 0 .4 0l.5-.2h.5a13.2 13.2 0 0 0 .1-.1l.6-.1a13.2 13.2 0 0 0 .2 0l.4-.2h.5a13.2 13.2 0 0 0 .3-.1l.5-.2.6-.1a13.2 13.2 0 0 0 .1 0l.6-.2.6-.2.7-.1a13.2 13.2 0 0 0 .2 0l.5-.2.5-.2h.4l.3-.2H343.8l.2-.1h1.6a13.2 13.2 0 0 0 .2 0l.3.1h.3a13.2 13.2 0 0 0 3.7.2l.4-.1a13.2 13.2 0 0 0 9.4-5.6l.3-.3a13.2 13.2 0 0 0 2.1-8.7l-1.8 4.5a13.2 13.2 0 0 0 .4-1v-.5a13.2 13.2 0 0 0 .7-3.2 13.2 13.2 0 0 0 0-.3v-.4a13.2 13.2 0 0 0 0-1 13.2 13.2 0 0 0-.2-.5 13.2 13.2 0 0 0 .2-.6 13.2 13.2 0 0 0 0-.8l-.1-.5a13.2 13.2 0 0 0-.4-1.8l-.2 2.5a13.2 13.2 0 0 0-1.3-3.7l-.3-.3a13.2 13.2 0 0 0-1.5-1.5l3.3 2.8-.2-.5a13.2 13.2 0 0 0-1.2-2.9l-.2-.4a13.2 13.2 0 0 0-.7-1l2.5 3.4-.2 1.4 1.3 1a13.2 13.2 0 0 0 .3-1v-.1a13.2 13.2 0 0 0 .6-1.8v-.4a13.2 13.2 0 0 0 .3-1.3v-.4a13.2 13.2 0 0 0 0-.2l.1-.4v-.4l.1-.5a13.2 13.2 0 0 0 0-.5l.1-.4a13.2 13.2 0 0 0 0-.3V610.9a13.2 13.2 0 0 0 0-.1l.1-.7v-.1a13.2 13.2 0 0 0 4.3-6.2l.1-.6a13.2 13.2 0 0 0 0-.1l.2-.7a13.2 13.2 0 0 0 0-.3l.2-.8a13.2 13.2 0 0 0 0-.3l.2-1a13.2 13.2 0 0 0 0-.1l.2-1a13.2 13.2 0 0 0 0-.2l.1-.9a13.2 13.2 0 0 0 0-.1l.2-.9v-.9a13.2 13.2 0 0 0 0-.2l.2-.7v-.7a13.2 13.2 0 0 0 0-.3l.1-.6a13.2 13.2 0 0 0 0-.2v-1a13.2 13.2 0 0 0 .1-.5v-1l.2-1.2.2-1 .1-1 .2-1.1a13.2 13.2 0 0 0 0-.1l.2-1 .3-2.2.2-1a13.2 13.2 0 0 0 0-.2l.2-1 .1-1.2.2-1 .2-1 .1-1 .1-1 .2-.9.1-.9.2-.9.1-1 .2-1a13.2 13.2 0 0 0 0-.3l.2-1 .1-1.2a13.2 13.2 0 0 0 0-.2l.2-1.2a13.2 13.2 0 0 0 0-.1l.1-1.3.1-1.3a13.2 13.2 0 0 0 0-.1l.2-1.3.1-1.3.1-1.4.1-1.4.2-1.3v-1.1l.2-1 .1-.9.1-.6.1-.7.2-.7.1-.7.2-.8.2-.8.2-.8.2-.9.3-1 .2-1 .2-1 .3-1a13.2 13.2 0 0 0 0-.2l.3-1a13.2 13.2 0 0 0 0-.2l.2-1a13.2 13.2 0 0 0 0-.3l.3-1.1.3-1.3.2-1.3.3-1.3.3-1.3.2-1.3.3-1.2.2-1.3.2-1.1.3-1.1.1-1 .2-.9.2-.6v-.5l.2-.4a13.2 13.2 0 0 0-.2-10.8 13.2 13.2 0 0 0-7.7-6.6 13.2 13.2 0 0 0-3.4-.6zm11.3 18-1.5 4.7-4.5 2.3a13.2 13.2 0 0 0 6-7zm-193.2 14 .2.1h-.1a13.2 13.2 0 0 0-.1 0zm4.4 4 .6.4-.5-.3a13.2 13.2 0 0 0-.1-.1zm2 1.6zm.1 0 .1.1.5.3a13.2 13.2 0 0 0-.5-.3zm5 2.9 1.6.1.4.2a13.2 13.2 0 0 0-.5 0 13.2 13.2 0 0 0-1.5-.3zm2.2.4h.1a13.2 13.2 0 0 0-.8 0h.4zM171.1 560a13.2 13.2 0 0 0 .8 1l-.1-.3.1.3a13.2 13.2 0 0 0 .5.5l-.2-.2a13.2 13.2 0 0 0 .1.3l-.2-.3v-.1l-.5-.5zm8.9 8.3a13.2 13.2 0 0 0 .4.3l-.3-.2zm6.6 6.3.1.1zm2 1.2a13.2 13.2 0 0 0 .8.4l-.4-.1zm31 21.8.5.3a13.2 13.2 0 0 0 1.7.7l-1.9-.5zm22 3.1a13.2 13.2 0 0 0 .3.2zm95.3 11.4a13.2 13.2 0 0 0 0 .1zm0 .2-.2.3zm12 .5 1.2.2h-.3l-.5-.2a13.2 13.2 0 0 0-.4 0zm-98.6 7.2a13.2 13.2 0 0 0 0 .2zm84.9 2a13.2 13.2 0 0 0 0 .1 13.2 13.2 0 0 0 0 .6zm0 .2a13.2 13.2 0 0 0 .1.4l.3-.4a13.2 13.2 0 0 0 0 1.1 13.2 13.2 0 0 0 1.3 5l-1-1.6-.5-1.9a13.2 13.2 0 0 0 2.1 7.4l-4.8-5.9 2.5-3.4zm25.5 1.4v.2l-.1.2v.1l-.3.5a13.2 13.2 0 0 0 0-.2l-.2.4a13.2 13.2 0 0 0 .5-1 13.2 13.2 0 0 0 .1-.2zm-84.2 5 .1.1.8 1.7a13.2 13.2 0 0 0-.5-1l-.3-.4a13.2 13.2 0 0 0-.1-.3zm-22.7 13.7a13.2 13.2 0 0 0 0 .2v-.1zm.1.3a13.2 13.2 0 0 0 .6.9l-.2-.3zm1.2 1.7a13.2 13.2 0 0 0 .4.3h-.2zm4.2 3a13.2 13.2 0 0 0 .2 0h-.1zm2 .5a13.2 13.2 0 0 0 1 0h-.7zm10.3 1.4-.5.1h.1zm-22.8-542.2a13.2 13.2 0 0 0-3.6.2 13.2 13.2 0 0 0-7.6 4.6l-.4.5.2-.2a13.2 13.2 0 0 0-.2.2 13.2 13.2 0 0 0-.1.1l-.3.3a13.2 13.2 0 0 0-1 1.3l-.4.6a13.2 13.2 0 0 0-.1.2l-.3.4a13.2 13.2 0 0 0-.2.3l-.4.5a13.2 13.2 0 0 0-.1.3l-.4.7a13.2 13.2 0 0 0-.2.3l-.5.8a13.2 13.2 0 0 0 0 .3l-.6.9a13.2 13.2 0 0 0 0 .2l-.6 1a13.2 13.2 0 0 0-.1.3l-.6 1.1a13.2 13.2 0 0 0 0 .2l-.6 1.3a13.2 13.2 0 0 0-.1.2l-.6 1.5a13.2 13.2 0 0 0-.1.2l-.7 1.5a13.2 13.2 0 0 0 0 .3l-.7 1.6a13.2 13.2 0 0 0 0 .2l-.7 1.8a13.2 13.2 0 0 0-.1.3l-.3 1a13.2 13.2 0 0 0-7.8 2.6l-.5.4a13.2 13.2 0 0 0-1.2 1.2l-.5.6a13.2 13.2 0 0 0-.6.7l-.7.8a13.2 13.2 0 0 0-.2.4l-.8 1a13.2 13.2 0 0 0-.2.2l-.9 1.3-1 1.4a13.2 13.2 0 0 0-.1.2l-1 1.5a13.2 13.2 0 0 0-.1.1l-1 1.5a13.2 13.2 0 0 0-.1.2l-1 1.5a13.2 13.2 0 0 0-.1.3l-1 1.5a13.2 13.2 0 0 0 0 .2l-.9 1.5a13.2 13.2 0 0 0-.2.3l-.8 1.4a13.2 13.2 0 0 0 0 .2l-.8 1.5a13.2 13.2 0 0 0-.1.2l-.7 1.4a13.2 13.2 0 0 0-.2.2l-.6 1.4a13.2 13.2 0 0 0 0 .2l-.6 1.2a13.2 13.2 0 0 0-.2.4 13.2 13.2 0 0 0-.2-.2l-.4-.3a13.2 13.2 0 0 0-4.9-1.7 13.2 13.2 0 0 0-1.2-1.3 13.2 13.2 0 0 0-.3-.7 13.2 13.2 0 0 0-.1-.1l-.3-.4a13.2 13.2 0 0 0-.7-.8l.8 1 .4.8a13.2 13.2 0 0 0-2.4-2.6l1.1.7.3.2 1 1.2a13.2 13.2 0 0 0-.5-1l-.2-.4a13.2 13.2 0 0 0-21.1-3.3l-.3.3a13.2 13.2 0 0 0-3.5 6.1l-.1.6a13.2 13.2 0 0 0-.4 1.9v.6a13.2 13.2 0 0 0 0 .7l-.1.4v.5a13.2 13.2 0 0 0 0 .3v.6a13.2 13.2 0 0 0 0 .3v.7a13.2 13.2 0 0 0 0 .2v.7a13.2 13.2 0 0 0 0 .4v.8l-.1 1.5v.6a13.2 13.2 0 0 0 .3 1.7v.2a13.2 13.2 0 0 0 .1.4l.1.7a13.2 13.2 0 0 0 0 .4l.2.6a13.2 13.2 0 0 0 0 .3v.3l.1.3a13.2 13.2 0 0 0 .1.5l.1.6a13.2 13.2 0 0 0 .1.5l.1.5a13.2 13.2 0 0 0 .4 1.3l.1.4a13.2 13.2 0 0 0 .5.8 13.2 13.2 0 0 0 1 2l.3.4a13.2 13.2 0 0 0 .1.1 13.2 13.2 0 0 0-.3 1.1l-.2.8a13.2 13.2 0 0 0-.3 1.2l-.1 1a13.2 13.2 0 0 0-.1 1l-.1 1.1a13.2 13.2 0 0 0 0 1v1.4a13.2 13.2 0 0 0 0 .6v1.6a13.2 13.2 0 0 0 0 .5l.2 2a13.2 13.2 0 0 0 0 .3l.3 2.2a13.2 13.2 0 0 0 0 .3v.6a13.2 13.2 0 0 0 0 .4l-.3.5a13.2 13.2 0 0 0-.3.7l-.2.6a13.2 13.2 0 0 0-.3 1l-.1.8a13.2 13.2 0 0 0-.2.6l-.1.7a13.2 13.2 0 0 0-.1.8l-.1.8a13.2 13.2 0 0 0-.1.7v.8a13.2 13.2 0 0 0-.1.7v.8a13.2 13.2 0 0 0 0 .5v.9a13.2 13.2 0 0 0 0 .5v.9a13.2 13.2 0 0 0 .1.3v.8a13.2 13.2 0 0 0 .1.5l.1.8a13.2 13.2 0 0 0 0 .3l.2.9a13.2 13.2 0 0 0 0 .3l.1.7a13.2 13.2 0 0 0 .1.6l.2.7a13.2 13.2 0 0 0 0 .4l.2.6a13.2 13.2 0 0 0 0 .1l.2.6a13.2 13.2 0 0 0 0 .3l.2.5.2.6a13.2 13.2 0 0 0 1.4 1.8 13.2 13.2 0 0 0-2.2 2.3 13.2 13.2 0 0 0-.7.3l-.5.1a13.2 13.2 0 0 0-.7.4l-.5.2a13.2 13.2 0 0 0-.4.2l-.5.2a13.2 13.2 0 0 0-1 .6l-.5.3a13.2 13.2 0 0 0-1.5 1l-.5.5a13.2 13.2 0 0 0-1 .9l-.6.5a13.2 13.2 0 0 0-.6.7l-.5.6a13.2 13.2 0 0 0-.2.2l-.2.3-.1.1-.4.4a13.2 13.2 0 0 0-.5.6l-.3.4a13.2 13.2 0 0 0-1.2 1.8l-.2.4a13.2 13.2 0 0 0-.7 1.3l-.2.4a13.2 13.2 0 0 0-.3 1.2l.4-.4.5-.6.6-.5.6-.7.5-.6.5-.7.6-.7.4-.6.5-.7.4-.6.3-.4a5.7 5.7 0 0 1 0-.1l.3-.4a5.7 5.7 0 0 1 .6-.6l.3-.4a5.7 5.7 0 0 1 4.3-1.7 5.7 5.7 0 0 1 4.2 2l.3.5a5.7 5.7 0 0 1 1.3 3.1v.5a5.7 5.7 0 0 1 0 .6v.7a5.7 5.7 0 0 1 0 .4l-.1.9a5.7 5.7 0 0 1 0 .4l-.2 1a5.7 5.7 0 0 1-.1.4l-.3 1.2a5.7 5.7 0 0 1-6 4v.1a5.7 5.7 0 0 1-.2.2l-.7.7a5.7 5.7 0 0 1-.1.1l-.7.6-.7.7a5.7 5.7 0 0 1 0 .1l-.8.6a5.7 5.7 0 0 1 0 .1l-.7.6-.8.6-.7.6-.4.3a5.7 5.7 0 0 1-1.4 3.8 13.2 13.2 0 0 0 7 3.8 13.2 13.2 0 0 0 1.4 1l.3.1a13.2 13.2 0 0 0 1.4.7l.5.2a13.2 13.2 0 0 0 .7.2l.6.3.4.1.3.1h.1l.2.1.3.2.5.2.5.3.7.4.8.5 1 .6.9.6a13.2 13.2 0 0 0 .1 0l1 .6 1 .6a13.2 13.2 0 0 0 .2.2l.8.4a13.2 13.2 0 0 0 .2 0l.6.4.5.3a13.2 13.2 0 0 0 1.5.7l.6.3a13.2 13.2 0 0 0 4.8.1l.2.2 1 1 .4.3.2.4a13.2 13.2 0 0 0 0 .1l.9 1.7a13.2 13.2 0 0 0 0 .2l.8 1.4a13.2 13.2 0 0 0 0 .2l.6 1a13.2 13.2 0 0 0 .3.5l.4.7a13.2 13.2 0 0 0 1.2 1.8l.2.3a13.2 13.2 0 0 0 4.4 2.5l.7 2 .8 2 .8 2.1.7 2 .7 2 .6 1.9.6 1.7.4 1.4.4 1.2.3 1.1.2.6a13.2 13.2 0 0 0 0 .2v.5a13.2 13.2 0 0 0 0 .5v.7a13.2 13.2 0 0 0 .4 1l-.1.1a13.2 13.2 0 0 0-2.4 4l-.2.4a13.2 13.2 0 0 0-.1.5l-.2.4a13.2 13.2 0 0 0-.1.4l-.2.6a13.2 13.2 0 0 0 0 .1l-.2.7a13.2 13.2 0 0 0 0 .2l-.3.7-.2.7-.2.8-.3.8-.3.9-.3 1-.4 1.2a13.2 13.2 0 0 0 0 .1l-.5 1.2a13.2 13.2 0 0 0 0 .3l-.4 1.2a13.2 13.2 0 0 0-.1.2l-.4 1.3a13.2 13.2 0 0 0 0 .1l-.4 1.4-.3 1.4-.4 1.4-.4 1.4-.3 1.3-.4 1.2-.3 1.2-.3 1-.3 1a13.2 13.2 0 0 0-.1.2l-.3.6a13.2 13.2 0 0 0 0 .2l-.2.5-.2.5a13.2 13.2 0 0 0-.2.6l-.2.4a13.2 13.2 0 0 0 0 .4l-.2.5a13.2 13.2 0 0 0-.1.2l.3-.4-.1.3-.3.4v.3a13.2 13.2 0 0 0-.2.4v.4a13.2 13.2 0 0 0-.2.5v.1l-.1.1.1-1.1a13.2 13.2 0 0 0 0 .1l-.2.3-.2.3-.3.5a13.2 13.2 0 0 0-.2.5l-.2.3v.2l-.3.4a13.2 13.2 0 0 0-.2.3l-.3.6a13.2 13.2 0 0 0-.2.4l-.3.7a13.2 13.2 0 0 0-.2.4l-.1.3-.2.4-.1.1-.2.3v.2l-.2.3-.5.7a13.2 13.2 0 0 0-.2.2l-.5.8a13.2 13.2 0 0 0 0 .1l-.3.5a13.2 13.2 0 0 0-9 3.2l-.4.3a13.2 13.2 0 0 0-1.4 1.5l-.2.3a13.2 13.2 0 0 0-.2.2l-.2.3a13.2 13.2 0 0 0-.2 0h-.4a13.2 13.2 0 0 0-6.5 2 13.2 13.2 0 0 0-23.9 8.4v.4l.1.3v.4l.1.4.1.5v.7l.2.9.1.9.1 1 .2 1.2.1 1.3.2 1.4.1 1.5.2 1.7.2 1.8.2 1.8a13.2 13.2 0 0 0 0 .1l.2 1.8.2 1.8a13.2 13.2 0 0 0 0 .1l.3 1.7a13.2 13.2 0 0 0 0 .1l.3 1.6.2 1.5.2 1.4.2 1.3a13.2 13.2 0 0 0 0 .1l.2 1a13.2 13.2 0 0 0 0 .3l.2 1a13.2 13.2 0 0 0 0 .1l-.1.2a13.2 13.2 0 0 0-.7.7l-.4.5a13.2 13.2 0 0 0-.4.4l-.3.4a13.2 13.2 0 0 0-.4.4l-.3.4a13.2 13.2 0 0 0 0 .1l-.4.5a13.2 13.2 0 0 0-.1.2l-.4.5a13.2 13.2 0 0 0-.1.1l-.1.1-.2.3-.7.8-.7.9-.8.8-.7 1-.8.8-.6.7-.7.8-.5.6-.3.4a13.2 13.2 0 0 0-.2.2l-.3.3a13.2 13.2 0 0 0-.7 2.7l-.4.5-.8.8-.7.9-.9 1-.8.9-.9 1-.8.8-.9 1-.7.8a13.2 13.2 0 0 0-.1.1l-.7.8a13.2 13.2 0 0 0 0 .1l-.7.7a13.2 13.2 0 0 0-.1.1l-.5.7a13.2 13.2 0 0 0-.1.1l-.5.6a13.2 13.2 0 0 0-.2.2l-.4.5a13.2 13.2 0 0 0 0 .1l-.4.4a13.2 13.2 0 0 0-.4.7l-.4.7a13.2 13.2 0 0 0-.8 1.3l-.3.5a13.2 13.2 0 0 0-.1 3.9l-1 1a13.2 13.2 0 0 0 0 .1l-1.2 1.5-1.2 1.5-1.1 1.3-1.1 1.3-1 1.1-.8 1.1-.7.9-.6.7a13.2 13.2 0 0 0-.1.1l-.6.7a13.2 13.2 0 0 0-.2.2l-.4.4a13.2 13.2 0 0 0-.4.4l-.4.3-.4.4a13.2 13.2 0 0 0-1.5 1.7l-.2.3a13.2 13.2 0 0 0-2 4l-.1.5a13.2 13.2 0 0 0-.6 3.4v.4a13.2 13.2 0 0 0 17.3 12 13.2 13.2 0 0 0 2.8.7h.5a13.2 13.2 0 0 0 6.1-1l.4-.1a13.2 13.2 0 0 0 1.8-1 13.2 13.2 0 0 0 1-.4l.3-.2a13.2 13.2 0 0 0 2.4-1.5l.4-.4a13.2 13.2 0 0 0 1.4-1.3l.5-.5a13.2 13.2 0 0 0 .6-.7l.2-.4a13.2 13.2 0 0 0 .4-.4l.3-.4a13.2 13.2 0 0 0 .2-.4l.3-.4a13.2 13.2 0 0 0 .1-.2 13.2 13.2 0 0 0 2.5 0 13.2 13.2 0 0 0 .8.4l.5.2a13.2 13.2 0 0 0 8.8-1l.6-.3a13.2 13.2 0 0 0 1.3-.7 13.2 13.2 0 0 0 8.3 8.3l.4.1a13.2 13.2 0 0 0 1 .1 13.2 13.2 0 0 0 .2.2l.4.4a13.2 13.2 0 0 0 1.6 1.2l.3.2a13.2 13.2 0 0 0 1.9 1l.5.3a13.2 13.2 0 0 0 1.4.6l.8.2a13.2 13.2 0 0 0 1 .3l.4.1a13.2 13.2 0 0 0 .5.1l.5.1a13.2 13.2 0 0 0 .5.1l.6.1a13.2 13.2 0 0 0 .4 0l.6.2a13.2 13.2 0 0 0 .4 0h.7a13.2 13.2 0 0 0 .3.1h.8a13.2 13.2 0 0 0 .3.1h.8l1 .1a13.2 13.2 0 0 0 .1 0h.9l.8.1h.9l.9.1 1 .1 1 .1 1 .1 1 .1 1 .1.8.2h1l.8.2.9.1.8.1.8.1.7.1.7.1h.6l.5.2h.5l.5.1.6.1.5.1h.4a13.2 13.2 0 0 0 0 .1h.5a13.2 13.2 0 0 0 .4.2h.5a13.2 13.2 0 0 0 .3 0l.5.1a13.2 13.2 0 0 0 .7.1h.5a13.2 13.2 0 0 0 .7 0h.4a13.2 13.2 0 0 0 .5 0h.4a13.2 13.2 0 0 0 .6 0h.5a13.2 13.2 0 0 0 .6 0h.4a13.2 13.2 0 0 0 .6-.1h.4a13.2 13.2 0 0 0 .6-.2h.5a13.2 13.2 0 0 0 .4-.1l.5-.2a13.2 13.2 0 0 0 .3 0l.6-.2a13.2 13.2 0 0 0 .2 0l.6-.2a13.2 13.2 0 0 0 .1 0l.6-.1.3-.1-3-1.3a13.2 13.2 0 0 0 5.2.7l.8-.2 1-.3a13.2 13.2 0 0 0 2.5.2l.4-.2a13.2 13.2 0 0 0 .4 0l.5-.3a13.2 13.2 0 0 0 .3-.1l.3-.2.4-.2.4-.1.2-.1.3-.1-1.2 1.3a13.2 13.2 0 0 0 .2 0l.7-.2a13.2 13.2 0 0 0 .4 0l.7-.3a13.2 13.2 0 0 0 .1 0l.8-.2a13.2 13.2 0 0 0 .3-.1l.8-.3.8-.2 1-.3.9-.3 1-.3 1-.3.9-.3a13.2 13.2 0 0 0 .1 0h.5a13.2 13.2 0 0 0 .4-.1l.4-.1h.6l.4-.1h.3l.2-.1h.9a13.2 13.2 0 0 0 .3 0h.5a13.2 13.2 0 0 0 .5 0l.5-.1a13.2 13.2 0 0 0 .7-.1l.5-.1a13.2 13.2 0 0 0 .7-.1l.6-.1a13.2 13.2 0 0 0 .4-.1l.6-.2a13.2 13.2 0 0 0 .3 0l.7-.2a13.2 13.2 0 0 0 .2 0l.7-.3.8-.2.7-.2.8-.2.8-.3 1.6-.4.6-.2.7-.2.6-.2.6-.1.8-.2.7-.2 1.5-.3.7-.2.7-.2.7-.2a13.2 13.2 0 0 0 .2 0l.7-.2a13.2 13.2 0 0 0 .3 0l.8-.3a13.2 13.2 0 0 0 .2 0l.8-.3a13.2 13.2 0 0 0 .3 0l.8-.3.9-.3 1-.3 1-.4 1.2-.3a13.2 13.2 0 0 0 .1 0l1.3-.5 1.4-.4 3.2-1 1.8-.5 2-.6 2-.7a13.2 13.2 0 0 0 .2 0l2-.7a13.2 13.2 0 0 0 .2 0l2-.7a13.2 13.2 0 0 0 .3-.1l2-.8a13.2 13.2 0 0 0 .2 0l2.1-.8a13.2 13.2 0 0 0 .2-.1l2.1-.8a13.2 13.2 0 0 0 .2-.1l2-.9a13.2 13.2 0 0 0 .1 0l2-.9a13.2 13.2 0 0 0 .1 0l2-.9 2-.8 2-.9 2-.8 2-.8a13.2 13.2 0 0 0 .1 0l2-.8 1.9-.9 1.7-.7a13.2 13.2 0 0 0 .1 0l1.6-.7a13.2 13.2 0 0 0 .1-.1l1.4-.6a13.2 13.2 0 0 0 .1 0l1.2-.6a13.2 13.2 0 0 0 .2-.1l1-.5a13.2 13.2 0 0 0 .3-.2l.3-.1.5-.2a13.2 13.2 0 0 0 .5 0l.5-.2a13.2 13.2 0 0 0 .1 0l.7-.3.8-.2a13.2 13.2 0 0 0 .1 0l1-.3a13.2 13.2 0 0 0 .1 0l1-.4a13.2 13.2 0 0 0 .4-.1l1.1-.4a13.2 13.2 0 0 0 .4-.2l1.2-.4a13.2 13.2 0 0 0 .4-.2l.9-.4.4-.1a13.2 13.2 0 0 0 .4-.1l.8-.3a13.2 13.2 0 0 0 .4-.2l.8-.3a13.2 13.2 0 0 0 .4-.2l.7-.3a13.2 13.2 0 0 0 .6-.3l.7-.3a13.2 13.2 0 0 0 .5-.3l.6-.3a13.2 13.2 0 0 0 .7-.5l.5-.3a13.2 13.2 0 0 0 1-.7l.3-.3a13.2 13.2 0 0 0 .5-.5l.9-.6a13.2 13.2 0 0 0 .2-.1l.7-.5a13.2 13.2 0 0 0 .3-.2l.5-.4a13.2 13.2 0 0 0 .4-.2l.6-.5a13.2 13.2 0 0 0 .5-.8 13.2 13.2 0 0 0 .2 0l1.3-.5 1.5-.6a13.2 13.2 0 0 0 .1 0l1.7-.7a13.2 13.2 0 0 0 .2 0l1.9-.8a13.2 13.2 0 0 0 .2 0l2-.9a13.2 13.2 0 0 0 .2-.1l2-.9a13.2 13.2 0 0 0 .3-.1l2-1a13.2 13.2 0 0 0 .3-.1l2-1a13.2 13.2 0 0 0 .5-.3l1.8-1a13.2 13.2 0 0 0 .4-.2l1.6-1a13.2 13.2 0 0 0 .6-.4l1.4-1a13.2 13.2 0 0 0 .7-.5l1.1-.9a13.2 13.2 0 0 0 .8-.7l.9-.8a13.2 13.2 0 0 0 .9-1l.6-.6a13.2 13.2 0 0 0 1.2-1.6l.3-.6a13.2 13.2 0 0 0 .3-1 13.2 13.2 0 0 0 1.6-2.4l.5-.3 1.1-.7h.2a13.2 13.2 0 0 0 1 1.6v.3l.1.3.2.5a13.2 13.2 0 0 0 .2.5l.2.5a13.2 13.2 0 0 0 .1.1l.2.6a13.2 13.2 0 0 0 .3.5l.1.2v.4l.2.7v.6l.2.4v.8a13.2 13.2 0 0 0 0 .5l.1.4a13.2 13.2 0 0 0 0 .2l.1.5a13.2 13.2 0 0 0 2.5 5v.1l-.2.9-.3 1-.2 1-.3 1-.3 1-.3 1-.3 1.1-.3 1-.3 1-.3 1-.2.9-.3 1a13.2 13.2 0 0 0 0 .1l-.3.8a13.2 13.2 0 0 0 0 .2l-.2.8a13.2 13.2 0 0 0 0 .2l-.2.8-.2.8a13.2 13.2 0 0 0 0 .1l-.2.7a13.2 13.2 0 0 0 0 .2l-.2.6a13.2 13.2 0 0 0 0 .3l-.1.6a13.2 13.2 0 0 0-.1.3v.5a13.2 13.2 0 0 0-.1.6l-.1.6a13.2 13.2 0 0 0 .1.4v.3a13.2 13.2 0 0 0 0 .1l-.2.5v.4l-.1.3v.3l-.2.5v.4l-.2.6v.3l-.1.2v.2l-.1.2-.2.5-.1.3-.1.3a13.2 13.2 0 0 0-.1.2l-.3.8a13.2 13.2 0 0 0-.1.4l-.2.7-.2.5-.1.5a13.2 13.2 0 0 0-.1.3l-.1.3-.1.3a13.2 13.2 0 0 0-.2.4l-.2.7a13.2 13.2 0 0 0 0 .2l-.2.7a13.2 13.2 0 0 0-.2.5l-.1.7a13.2 13.2 0 0 0-.2.8l-.1.6a13.2 13.2 0 0 0 0 .4l-.2.7v.7h-.1l-.1.4-.1.5-.2.4-.2.5a13.2 13.2 0 0 0 0 .3l-.3.7a13.2 13.2 0 0 0-.1.5l-.2.7a13.2 13.2 0 0 0-.1.3l-.2.7a13.2 13.2 0 0 0-.2.8l-.1.6a13.2 13.2 0 0 0-.1.8l-.1.6v.3l-.1.3-.1.5a13.2 13.2 0 0 0-.1.4l-.1.8a13.2 13.2 0 0 0 0 .1l-.2.7v.4a13.2 13.2 0 0 0 0 .1l-.1.3v.4l-.1.4-.1.4-.1.4a13.2 13.2 0 0 0 0 .3l-.1.5-.1.5a13.2 13.2 0 0 0 0 .3l-.2.5v.7l-.1.3a13.2 13.2 0 0 0 0 .1l-.2 1v.4l-.1.4-.1.3v.4l-.1.3v.2l-.1.2-.1.4a13.2 13.2 0 0 0-.1.4l-.2.8a13.2 13.2 0 0 0-.1.6l-.1.8a13.2 13.2 0 0 0 0 .2l-.1.6v.2l-.1.2a13.2 13.2 0 0 0 0 .2v.2l-.1.3a13.2 13.2 0 0 0-1.1.1l-.4.3a13.2 13.2 0 0 0-.2 0l-.4.3a13.2 13.2 0 0 0-.5.3l-.4.3a13.2 13.2 0 0 0-.7.4l-.6.4a13.2 13.2 0 0 0-1.1 1l-.6.5a13.2 13.2 0 0 0-.9 1l-.3.3a13.2 13.2 0 0 0-.5.5l-.3.4a13.2 13.2 0 0 0-.4.6l-.3.4a13.2 13.2 0 0 0-.1.2l-.3.5a13.2 13.2 0 0 0-.3.3l-.3.5a13.2 13.2 0 0 0 0 .1l-.3.5a13.2 13.2 0 0 0-.1.1l-.3.5-.3.5-.2.4a13.2 13.2 0 0 0-.2.3l-.4.7a13.2 13.2 0 0 0 0 .3l-.4.6-.3.4-.5.5a13.2 13.2 0 0 0-.2.3l-.5.6a13.2 13.2 0 0 0-.2.3l-.8 1-2 2.2-.9 1a13.2 13.2 0 0 0-.7.3l-.4.2a13.2 13.2 0 0 0-.3.1l-.5.2a13.2 13.2 0 0 0-1 .5l-.5.3a13.2 13.2 0 0 0-1.6 1l-.6.4a13.2 13.2 0 0 0-.4.3l-.3.3a13.2 13.2 0 0 0-.2.1l-.3.3a13.2 13.2 0 0 0-.2.1l-.3.4a13.2 13.2 0 0 0-.1 0l-.4.4a13.2 13.2 0 0 0-.2.1l-.4.4-.2.2-.4.2-.5.3-.5.4a13.2 13.2 0 0 0-.3.2l-.5.3a13.2 13.2 0 0 0-.2.2l-.6.4a13.2 13.2 0 0 0-.2.2l-.6.4a13.2 13.2 0 0 0-.4.3l-.6.5a13.2 13.2 0 0 0-.4.4l-.6.5a13.2 13.2 0 0 0-.5.5l-.6.6a13.2 13.2 0 0 0-.5.4l-.6.7a13.2 13.2 0 0 0-.3.4l-.6.6a13.2 13.2 0 0 0-.2.3l-.5.7a13.2 13.2 0 0 0-.2.2l-.6.7a13.2 13.2 0 0 0-.1.3l-.6.7a13.2 13.2 0 0 0-.1.2l-.5.7a13.2 13.2 0 0 0-.2.3l-.5.7-.5.8-.4.7-.5.7-.4.7a13.2 13.2 0 0 0-.1 0l-.5.8-.5.9-.6 1a13.2 13.2 0 0 0-.1 0l-.6 1-.7 1.2a13.2 13.2 0 0 0-.1.1l-.7 1.2-.8 1.3-.4.5a13.2 13.2 0 0 0-.4 0l-.6.4a13.2 13.2 0 0 0-1.8 1l-1 .6-1.1.8-1.4 1-1.6 1-1.8 1.2-2 1.1-1.9 1.3-2 1.1-2 1.2-1.8 1a13.2 13.2 0 0 0 0 .1l-1.7 1-1.6 1-.9.5a13.2 13.2 0 0 0-.4.1l-.4.2a13.2 13.2 0 0 0 0 .1l-.2.1-.2.1-.3.2a13.2 13.2 0 0 1 5 2 13.2 13.2 0 0 1 2.7 2.2 13.2 13.2 0 0 1 2.6 4.6 13.2 13.2 0 0 1-5.6 15.5l-.2.2h-.1.2l-.3.2-.5.4a13.2 13.2 0 0 1-.1.1l-.5.4a13.2 13.2 0 0 1 0 .1l-.5.4-.4.3-.4.4-.3.2a13.2 13.2 0 0 1-1 .8l-.3.3a13.2 13.2 0 0 1-1.4.9l-.4.2a13.2 13.2 0 0 1-1.4.7l-.4.1a13.2 13.2 0 0 1-.4.2l-.5.2-.2.1a13.2 13.2 0 0 1-.2.1l-2.5 1.4-1.3.7-.6.4a13.2 13.2 0 0 1 .2 2.3l-.2.6a13.2 13.2 0 0 1-.4 1.3l-.3.8a13.2 13.2 0 0 1-.3.6l-.4 1a13.2 13.2 0 0 1-.2.4l-.6 1.4a13.2 13.2 0 0 1-.2.4l-.8 1.6a13.2 13.2 0 0 1-.2.4l-1 1.9a13.2 13.2 0 0 1-.3.4l-1.2 2.1a13.2 13.2 0 0 1-.3.4l-1.4 2.2a13.2 13.2 0 0 1-.2.4l-1 1.5a13.2 13.2 0 0 1 1.4 1.4l.8-.9 1.5-1.8 1.3-1.5a13.2 13.2 0 0 1 0-.2l1.1-1.2a13.2 13.2 0 0 1 .6-.6l.7-.8a13.2 13.2 0 0 1 2.4-2l.4-.3a13.2 13.2 0 0 1 10-1.4 13.2 13.2 0 0 1 1-.3l1.1-1.2 1.7-1.8 1.8-2 1.8-2 1.8-2.1 1.7-2 1.7-2 1.4-1.7 1.3-1.5 1-1.1a13.2 13.2 0 0 1 0-.2l.8-.8.5-.6a13.2 13.2 0 0 1 .8-.9l.6-.5a13.2 13.2 0 0 1 14.5-1.9 13.2 13.2 0 0 1 .2 0l.6-.5.6-.4a13.2 13.2 0 0 1 .1-.1l.5-.3.2-.2a13.2 13.2 0 0 1 0-.1l1-1.1a13.2 13.2 0 0 1 .2-.1l.8-.9a13.2 13.2 0 0 1 .1-.1l.6-.7a13.2 13.2 0 0 1 .2-.1l.5-.4a13.2 13.2 0 0 1 1.8-1.6l.4-.2a13.2 13.2 0 0 1 7.7-2l.2-.8.2-1a13.2 13.2 0 0 1 0-.1l.2-1 .3-.8.2-1 .2-1 .2-.8a13.2 13.2 0 0 1 0-.1l.3-1 .2-1 .2-.8.3-1 .2-1 .2-1 .2-1.2.3-1.2.2-1.3.3-1.3.2-1.3.3-1.3.2-1.2.3-1.2.2-1.1.2-1a13.2 13.2 0 0 1 0-.1l.2-1 .2-.9a13.2 13.2 0 0 1 0-.2l.2-.7a13.2 13.2 0 0 1 0-.2l.2-.6a13.2 13.2 0 0 1 0-.2l.2-.5a13.2 13.2 0 0 1 .1-.5l.2-.7a13.2 13.2 0 0 1 6.7-8l.5-.2a13.2 13.2 0 0 1 6.6-1.4 13.2 13.2 0 0 1 3.4.6 13.2 13.2 0 0 1 1.7.7 13.2 13.2 0 0 1 1.5.8 13.2 13.2 0 0 1 2.6 2.2 13.2 13.2 0 0 1 2 2.9 13.2 13.2 0 0 1 0 .2l.2-.2.2-.6.2-.5.2-.5.2-.5.3-.6a13.2 13.2 0 0 0 0-.1l.2-.5.2-.4.2-.5.2-.5a13.2 13.2 0 0 0 0-.1l.4-1 .2-.5.1-.2.1-.2.1-.2.3-.4a13.2 13.2 0 0 0 .3-.5l.3-.5a13.2 13.2 0 0 0 .2-.1l.3-.6a13.2 13.2 0 0 0 .1-.2l.4-.6.4-.7a13.2 13.2 0 0 0 .1-.1l.2-.4a13.2 13.2 0 0 0 .2-.2l.2-.4a13.2 13.2 0 0 0 .1-.3l.2-.4a13.2 13.2 0 0 0 .3-.5l.2-.4a13.2 13.2 0 0 0 .1-.3l.2-.4a13.2 13.2 0 0 0 0-.1l.2-.4a13.2 13.2 0 0 0 .2-.3l.1-.4a13.2 13.2 0 0 0 .3-.7l.2-.7a13.2 13.2 0 0 0 .3-1l.2-.6a13.2 13.2 0 0 0 .1-.7l.2-.7a13.2 13.2 0 0 0 0-.2l.2-.7v-.6l.2-.4v-.3l.1-.4.2-.5a13.2 13.2 0 0 0 0-.2l.1-.4a13.2 13.2 0 0 0 0-.2l.1-.4a13.2 13.2 0 0 0 0-.1l.1-.4a13.2 13.2 0 0 0 0-.2l.2-.6.1-.6.1-.5v-.4l.1-.2.2-.4.2-.6a13.2 13.2 0 0 0 0-.1v-.3l.2-.4.1-.3v-.3a13.2 13.2 0 0 0 .1 0l.1-.4a13.2 13.2 0 0 0 0-.1l.3-.7a13.2 13.2 0 0 0 0-.2l.2-.7a13.2 13.2 0 0 0 .2-.3l.1-.8.3-.8a13.2 13.2 0 0 0 0-.2l.1-.4a13.2 13.2 0 0 0 .1-.5l.1-.3v-.4a13.2 13.2 0 0 0 .1 0v-.5a13.2 13.2 0 0 0 .1-.2v-.3l.2-.7a13.2 13.2 0 0 0 .1-.3v-.3l.2-.4a13.2 13.2 0 0 0 0-.5l.1-.4a13.2 13.2 0 0 0 0-.2l.1-.4a13.2 13.2 0 0 0 0-.3l.2-.6v-.7l.2-.4a13.2 13.2 0 0 0 0-.4l.2-.4a13.2 13.2 0 0 0 0-.1v-.5a13.2 13.2 0 0 0 .1-.2v-.4l.2-.5a13.2 13.2 0 0 0 0-.2v-.4l.2-.4.1-.8v-.4a13.2 13.2 0 0 0 .1-.3l.1-.5a13.2 13.2 0 0 0 0-.1v-.5l.1-.3.1-.4v-.4l.1-.3.2-.6a13.2 13.2 0 0 0 0-.2v-.4l.1-.4a13.2 13.2 0 0 0 0-.3l.2-.4v-.3a13.2 13.2 0 0 0 0-.2l.2-.7v-.4l.1-.5a13.2 13.2 0 0 0 0-.3l.2-.6a13.2 13.2 0 0 0 .1-.6v-.7a13.2 13.2 0 0 0 .1-.1v-.2l.1-.3.1-.3.2-.5a13.2 13.2 0 0 0 .1-.4l.2-.7a13.2 13.2 0 0 0 .1-.2l.3-.7a13.2 13.2 0 0 0 0-.3l.2-.8a13.2 13.2 0 0 0 .2-.5l.1-.7a13.2 13.2 0 0 0 .2-.8l.1-.8a13.2 13.2 0 0 0 .1-.4l.1-.6v-.4l.2-.4v-.5l.2-.1a13.2 13.2 0 0 0 0-.2v-.3l.3-.6a13.2 13.2 0 0 0 .2-.5l.2-.7.1-.5.2-.4v-.3a13.2 13.2 0 0 0 .1 0l.2-.5a13.2 13.2 0 0 0 0-.1l.3-.8a13.2 13.2 0 0 0 .1-.4l.1-.4.2-.5a13.2 13.2 0 0 0 0-.2l.2-.4a13.2 13.2 0 0 0 0-.3l.1-.4.2-.8a13.2 13.2 0 0 0 0-.2l.3-.8a13.2 13.2 0 0 0 0-.4l.2-.8v-.4a13.2 13.2 0 0 0 .1-.3l.1-.4v-.4l.2-.4v-.3l.2-.5a13.2 13.2 0 0 0 .1-.3l.3-.7a13.2 13.2 0 0 0 0-.2l.3-.8a13.2 13.2 0 0 0 0-.1l.3-1 .4-1 .3-1 .3-1 .4-1.2.5-1.2.4-1.3.4-1.3a13.2 13.2 0 0 0 .2-.3l.3-1.2a13.2 13.2 0 0 0 0-.1l.4-1.1a13.2 13.2 0 0 0 0-.4l.4-1a13.2 13.2 0 0 0 0-.2l.3-1a13.2 13.2 0 0 0 0-.2l.2-.8.2-.7.1-.6.1-.3v-.1a13.2 13.2 0 0 0 0-.1v-.1l.2-.4a13.2 13.2 0 0 0 0-.2 13.2 13.2 0 0 0-.2-4.7v-.3l.1-.2.2-.3.2-.5a13.2 13.2 0 0 0 .2-.3l.2-.5.2-.4a13.2 13.2 0 0 0 .2-.5l.1-.4.2-.4a13.2 13.2 0 0 0 0-.2l.2-.4a13.2 13.2 0 0 0 .1-.3l.3-.7a13.2 13.2 0 0 0 0-.3l.3-.6a13.2 13.2 0 0 0 .3-1v-.5a13.2 13.2 0 0 0 .4-2v-.4a13.2 13.2 0 0 0 0-2h.4a13.2 13.2 0 0 0 1.5-.7l.4-.1a13.2 13.2 0 0 0 .3-.2l.5-.2.5-.3.4-.2.6-.3a13.2 13.2 0 0 0 .2-.1l.5-.3a13.2 13.2 0 0 0 .3-.2l.6-.3a13.2 13.2 0 0 0 .4-.3l.5-.3a13.2 13.2 0 0 0 .5-.3l.5-.4a13.2 13.2 0 0 0 .8-.5l.5-.4a13.2 13.2 0 0 0 .7-.6l.5-.5a13.2 13.2 0 0 0 .5-.5l.5-.5a13.2 13.2 0 0 0 .4-.5l.5-.5a13.2 13.2 0 0 0 .3-.4l.5-.5a13.2 13.2 0 0 0 .2-.3 13.2 13.2 0 0 0 1.2.7l.7.4a13.2 13.2 0 0 0 .7.3l.4.2a13.2 13.2 0 0 0 .3.1l.4.2a13.2 13.2 0 0 0 .1 0l.5.2a13.2 13.2 0 0 0 .2.1l.4.2.4.1a13.2 13.2 0 0 0 .3.1l.5.2.5.2a13.2 13.2 0 0 0 .7.2l.5.1.5.2a13.2 13.2 0 0 0 .7.1l.4.1a13.2 13.2 0 0 0 .3 0l.4.2a13.2 13.2 0 0 0 .3 0 13.2 13.2 0 0 0 24.9-2v-.6a13.2 13.2 0 0 0 .1-.5l.1-.5a13.2 13.2 0 0 0 0-.1v-.7l.2-1v-1l.2-1.1.1-1.2.2-1.3.1-1.1.2-1 .2-1 .2-.6a13.2 13.2 0 0 0 .2-.6l.2-.8a13.2 13.2 0 0 0 .1-.3l.3-1a13.2 13.2 0 0 0 0-.3l.3-.9a13.2 13.2 0 0 0 0-.4l.3-1a13.2 13.2 0 0 0 0-.2l.2-1a13.2 13.2 0 0 0 0-.2l.3-1a13.2 13.2 0 0 0 0-.2l.2-1 .1-1a13.2 13.2 0 0 0 0-.1l.2-1a13.2 13.2 0 0 0 0-.3l.2-1a13.2 13.2 0 0 0 0-.3l.1-1a13.2 13.2 0 0 0 0-.1l.1-.9a13.2 13.2 0 0 0 0-.5l.1-.7a13.2 13.2 0 0 0 0-.4v-.6a13.2 13.2 0 0 0 0-1.2v-.9a13.2 13.2 0 0 0-.7-3.1v-.4a13.2 13.2 0 0 0 0-.5l.2-1.3a13.2 13.2 0 0 0 0-.5v-1.3a13.2 13.2 0 0 0 0-.4l.1-1.4a13.2 13.2 0 0 0 0-.4v-.7l.2-.7v-.7a13.2 13.2 0 0 0 .2-1v-.6a13.2 13.2 0 0 0-.6-2.2v-1a13.2 13.2 0 0 0-.1-.4l-.2-1.5a13.2 13.2 0 0 0 0-.3l-.2-1.3a13.2 13.2 0 0 0 0-.3l-.2-1.3a13.2 13.2 0 0 0 0-.1l-.2-1.2a13.2 13.2 0 0 0 0-.3l-.3-1a13.2 13.2 0 0 0 0-.4l-.2-1a13.2 13.2 0 0 0-.2-.5l-.2-.8a13.2 13.2 0 0 0-.2-.7l-.2-.8a13.2 13.2 0 0 0-.2-.5l-.2-.7a13.2 13.2 0 0 0-.2-.4l-.3-.6a13.2 13.2 0 0 0-.3-.8l-.3-.5a13.2 13.2 0 0 0-.4-.8l-.2-.4a13.2 13.2 0 0 0-.8-1.3l-.5-.7a13.2 13.2 0 0 0-2.4-2.4 13.2 13.2 0 0 0-.1-.4l-.2-.5a13.2 13.2 0 0 0-24.2-.7 13.2 13.2 0 0 0-4.7 5 13.2 13.2 0 0 0-.8.7l-.4.5a13.2 13.2 0 0 0-.4.5l-.6.7a13.2 13.2 0 0 0-.3.4l-.6.9a13.2 13.2 0 0 0-.2.2l-.7 1a13.2 13.2 0 0 0-.1.1l-.8 1.2a13.2 13.2 0 0 0-.1.2l-.9 1.3-1 1.4a13.2 13.2 0 0 0 0 .2l-.4.5v-.2a13.2 13.2 0 0 0-.1-.1l-1-1.5-1-1.7-1-1.6-1-1.5-1-1.6-1-1.5-.9-1.4-.7-1.2-.6-1-.5-.8a13.2 13.2 0 0 0-.3-.3l-.3-.5a13.2 13.2 0 0 0-7.5-4.3l-.2-.3-1-1.1a13.2 13.2 0 0 0 0-.1l-1-1.1a13.2 13.2 0 0 0-.1-.1l-1-1.1a13.2 13.2 0 0 0 0-.1l-1-1.1a13.2 13.2 0 0 0-.1-.2l-1-1.1a13.2 13.2 0 0 0-.2-.1l-1-1.2a13.2 13.2 0 0 0-.2-.1l-1.1-1.2a13.2 13.2 0 0 0-.2-.2l-1.2-1.2-1.3-1.2a13.2 13.2 0 0 0 0-.1l-1.3-1.2-1-1-1.1-1.1-1-1-.8-.8-.4-.4.1-.6.4-2.4a13.2 13.2 0 0 0 0-.1l.4-2.6a13.2 13.2 0 0 0 0-.2l.5-2.8a13.2 13.2 0 0 0 0-.3l.4-3a13.2 13.2 0 0 0 0-.3l.3-3.1a13.2 13.2 0 0 0 0-.4l.2-3.3a13.2 13.2 0 0 0 0-.3l.1-2.5a13.2 13.2 0 0 0 3-3.2l.2-.8a13.2 13.2 0 0 0 .7-2.7v-.6a13.2 13.2 0 0 0 .2-1v-.9a13.2 13.2 0 0 0 0-.8v-1a13.2 13.2 0 0 0 0-.6v-1.2a13.2 13.2 0 0 0 0-.3l-.1-1.5a13.2 13.2 0 0 0 0-.3l-.2-1.7a13.2 13.2 0 0 0 0-.2l-.2-1.9a13.2 13.2 0 0 0 0-.1l-.2-2a13.2 13.2 0 0 0 0-.2l-.3-2.1a13.2 13.2 0 0 0 0-.1l-.3-2.3-.2-1.3a13.2 13.2 0 0 0 5.8-10.1v-.5a13.2 13.2 0 0 0 0-.7v-.5a13.2 13.2 0 0 0 0-.6v-.6a13.2 13.2 0 0 0 0-.4l-.1-.6a13.2 13.2 0 0 0-.2-1.3l-.2-.6a13.2 13.2 0 0 0-.3-1.5l-.2-.5a13.2 13.2 0 0 0-.4-1l-.2-.4v-.6l-.1-1-.2-1.6-.1-2-.2-2.3a13.2 13.2 0 0 0 0-.2l-.2-2.6a13.2 13.2 0 0 0 0-.2l-.3-3-.3-3.3-.4-3.2-.3-3.1V209l.4-1.8a13.2 13.2 0 0 0 0-.2l.2-1.4.2-1.2a13.2 13.2 0 0 0 0-.2l.2-.8a13.2 13.2 0 0 0 0-.3v-.5a13.2 13.2 0 0 0-1.2-5.3 13.2 13.2 0 0 0 0-.1v-1a13.2 13.2 0 0 0-.1-.3l-.1-1-.2-1a13.2 13.2 0 0 0 0-.4l-.2-.9-.2-1.8v-.5a13.2 13.2 0 0 0 .6-1l.1-.6a13.2 13.2 0 0 0 0-.4l.2-.4v-.4l.1-.4v-.4l.2-.4.2-.7.2-1 .3-1 .3-1 .3-1.1.3-1 .2-1 .3-.9.2-.8a13.2 13.2 0 0 0 0-.3l.2-.6a13.2 13.2 0 0 0 0-.2l.2-.6a13.2 13.2 0 0 0 0-.2l.1-.5a13.2 13.2 0 0 0 0-.5l.2-.4a13.2 13.2 0 0 0 0-.6l.1-.7a13.2 13.2 0 0 0 0-.2v-.5a13.2 13.2 0 0 0 .1-.9l.1-.4.2-1a13.2 13.2 0 0 0 .1-.1l.2-.8a13.2 13.2 0 0 0 0-.4l.2-.7a13.2 13.2 0 0 0 0-.3l.1-.5a13.2 13.2 0 0 0 0-.4l.2-.5a13.2 13.2 0 0 0 0-.7l.1-.6a13.2 13.2 0 0 0-.4-2 13.2 13.2 0 0 0-.3-4.1l-.1-.5a13.2 13.2 0 0 0-23.6-2.4 13.2 13.2 0 0 0-.5.4l-.2.4a13.2 13.2 0 0 0-.8 2.2 13.2 13.2 0 0 0-.7 1.3v.5a13.2 13.2 0 0 0-.1.4l-.2.3-.2.6-.2.5-.2.4a13.2 13.2 0 0 0-.2.3l-.2.4a13.2 13.2 0 0 0-.1.2l-.2.4a13.2 13.2 0 0 0-.3.7l-.3.7a13.2 13.2 0 0 0 0 .9l-.3.5-.5.9-.3.4a13.2 13.2 0 0 0-.1.2l-.5.5a13.2 13.2 0 0 0-.2.3l-.4.6a13.2 13.2 0 0 0-.2.3l-.5.7a13.2 13.2 0 0 0-.3.4l-.5.8a13.2 13.2 0 0 0-.2.3l-.4.8a13.2 13.2 0 0 0-.2.3l-.5 1-.5.8-1 1.8-.5.8-.5.9-.4.8-.5.8-.5.8-.5 1-.6 1-.6 1-.7 1.2-.7 1.3-.8 1.4-.8 1.4-.8 1.5-.5.8-.7 1.2-1.1 1.7a13.2 13.2 0 0 0 0 .2l-1 1.5-.9 1.4-.8 1.3a13.2 13.2 0 0 0 0 .1l-.6 1a13.2 13.2 0 0 0-.2.2l-.4.8a13.2 13.2 0 0 0-.2.3l-.3.6a13.2 13.2 0 0 0-.3.5l-.1.4a13.2 13.2 0 0 0-.3 3.3 13.2 13.2 0 0 0-2.2.7l-.3.2a13.2 13.2 0 0 0-1.9 1.4l-.5.4a13.2 13.2 0 0 0-.8.7l-.4.4a13.2 13.2 0 0 0-.3.3l-.4.4-.5.6-.5.4v-.4a13.2 13.2 0 0 0 0-.3v-.7a13.2 13.2 0 0 0 0-.2v-1a13.2 13.2 0 0 0 0-.5v-.6a13.2 13.2 0 0 0-.2-1.3v-.4a13.2 13.2 0 0 0-.5-2l-.1-.4a13.2 13.2 0 0 0-.7-1.6l-.2-.5a13.2 13.2 0 0 0-.2-.4l.1-.8.1-.9.2-1 .1-1 .2-1.2a13.2 13.2 0 0 0 .3-.5l.1-.4.3-.7v-.5l.2-.5.2-.6.1-.5.2-.5a13.2 13.2 0 0 0 0-.1l.1-.6.2-.5a13.2 13.2 0 0 0 0-.2l.2-.5.1-.6.2-.5.1-.5.1-.5a13.2 13.2 0 0 0 .1-.3l.1-.4.2-.8a13.2 13.2 0 0 0 0-.3l.2-.6.1-.5a13.2 13.2 0 0 0 .1-.6v-.4a13.2 13.2 0 0 0-.2-1.3 13.2 13.2 0 0 0 .9-1.5l.1-.4a13.2 13.2 0 0 0 .4-.8l.2-.5a13.2 13.2 0 0 0 .2-.6l.2-.4a13.2 13.2 0 0 0 .1-.6l.2-.5a13.2 13.2 0 0 0 0-.3l.1-.3.1-.2a13.2 13.2 0 0 0 0-.2l.2-.4.1-.6.2-.6.2-.5v-.3l.1-.3.1-.2.2-.7.3-.6.2-.7a13.2 13.2 0 0 0 0-.2l.3-.7a13.2 13.2 0 0 0 0-.1l.3-.8a13.2 13.2 0 0 0 .1-.3l.1-.4a13.2 13.2 0 0 0 0-.2l.3-.7a13.2 13.2 0 0 0 0-.1l.2-.6v-.3l.1-.2.2-.4v-.1l.2-.4.4-.8.3-.7.2-.4a13.2 13.2 0 0 0 0-.1l.2-.4a13.2 13.2 0 0 0 .1-.3l.3-.5a13.2 13.2 0 0 0-24-11l-.3.4a13.2 13.2 0 0 0 0 .1l-.3.5a13.2 13.2 0 0 0 0 .1l-.2.5-.3.5a13.2 13.2 0 0 0 0 .2l-.4.6a13.2 13.2 0 0 0-.1.4l-.2.3a13.2 13.2 0 0 0 0 .2l-.1.2-.4.8-.5 1a13.2 13.2 0 0 0 0 .2l-.6 1.2-.6 1.3a13.2 13.2 0 0 0 0 .2l-.7 1.4a13.2 13.2 0 0 0 0 .2l-.7 1.5a13.2 13.2 0 0 0 0 .3l-.7 1.6a13.2 13.2 0 0 0-.1.3l-.6 1.7a13.2 13.2 0 0 0-.1.3l-.6 1.8a13.2 13.2 0 0 0 0 .3l-.7 2a13.2 13.2 0 0 0 0 .2l-.6 1.9a13.2 13.2 0 0 0 0 .2l-.5 2a13.2 13.2 0 0 0 0 .1l-.5 2-.3.9v.2a13.2 13.2 0 0 0 0 .2l-.2.4a13.2 13.2 0 0 0 0 .2l-.1.3-.2.7a13.2 13.2 0 0 0 0 .4l-.2.7a13.2 13.2 0 0 0 0 .1l-.2.7a13.2 13.2 0 0 0 0 .2l-.2.6v.3l-.2.3-.1.3a13.2 13.2 0 0 0-.2.5l-.2.4a13.2 13.2 0 0 0-.2.6l-.2.6-.2.7a13.2 13.2 0 0 0-.2.4l-.2.7a13.2 13.2 0 0 0 0 .4l-.3.7a13.2 13.2 0 0 0 0 .1l-.2.7a13.2 13.2 0 0 0 0 .3l-.1.2a13.2 13.2 0 0 0-2.5.2 13.2 13.2 0 0 0-1.7-1.6v-1.1a13.2 13.2 0 0 0 0-.2v-.8a13.2 13.2 0 0 0 0-.1V186a13.2 13.2 0 0 0 0-.1v-1.4a13.2 13.2 0 0 0-.1-.1V183a13.2 13.2 0 0 0 0-.2l-.2-1.7a13.2 13.2 0 0 0 0-.2l-.1-1.9-.2-2-.2-2.1-.1-2-.1-2-.1-1.9v-7.4l.1-.9v-.6a13.2 13.2 0 0 0 0-.5l.1-.7a13.2 13.2 0 0 0-.2-.7v-.2l.3-1a13.2 13.2 0 0 0 0-.2l.5-1.6a13.2 13.2 0 0 0 0-.1l.4-1.4.4-1.1a13.2 13.2 0 0 0 0-.2l.2-.8a13.2 13.2 0 0 0 0-.1l.2-.6a13.2 13.2 0 0 0 .1-.8l.1-.4a13.2 13.2 0 0 0-25-7.8l-.2.4a13.2 13.2 0 0 0-.4 1l-.2.5a13.2 13.2 0 0 0-.1.3l-.3.8-.3 1-.4 1.3-.5 1.5-.2.6-.2.4a13.2 13.2 0 0 0 0 .2l-.3.7a13.2 13.2 0 0 0 0 .2l-.4.8-.4 1a13.2 13.2 0 0 0 0 .2l-.4 1.2a13.2 13.2 0 0 0 0 .2l-.5 1.2a13.2 13.2 0 0 0 0 .2l-.5 1.3a13.2 13.2 0 0 0-.1.4l-.4 1.3a13.2 13.2 0 0 0 0 .3l-.4 1.2a13.2 13.2 0 0 0 0 .4l-.4 1.1a13.2 13.2 0 0 0-.4 1.1 13.2 13.2 0 0 0-3 3.7l-.1.7-.2.4a13.2 13.2 0 0 0 0 .2l-.1.4-.2.6-.2.6-.1.5-.2.5-.2.5a13.2 13.2 0 0 0 0 .1l-.1.3.6-1.6.3-.4a13.2 13.2 0 0 0 0 .4l-.2 1a13.2 13.2 0 0 0 0 .2 13.2 13.2 0 0 0-.5 1.6 13.2 13.2 0 0 0-4.8 3l-.2.2-.5.4-.3.2-.3.2a13.2 13.2 0 0 0-.2.1l-.4.3a13.2 13.2 0 0 0-.2.1l-.5.3a13.2 13.2 0 0 0-.4.4l-.5.3a13.2 13.2 0 0 0-.3.3l-.5.4a13.2 13.2 0 0 0-.2.1l-.6.6a13.2 13.2 0 0 0-.3.3l-.7.6-.8.7a13.2 13.2 0 0 0-.2.2l-.8.8a13.2 13.2 0 0 0-.1 0l-.9.9-.2.3-.4-1.2a13.2 13.2 0 0 0-.1-.4l-1-2.9a13.2 13.2 0 0 0 0-.2l-.3-1-.3-1.8-.3-2.7v-.6a13.2 13.2 0 0 0 2.6-4.5l.2-.6a13.2 13.2 0 0 0 .2-1.5v-.8a13.2 13.2 0 0 0 0-.2l.1-1a13.2 13.2 0 0 0 0-.4v-1.2a13.2 13.2 0 0 0 0-.2l.1-1.4a13.2 13.2 0 0 0 0-.2V153l.1-2v-1.9l.1-1.9V143.5a13.2 13.2 0 0 0 0-.2v-1.5a13.2 13.2 0 0 0 0-.3v-1.4a13.2 13.2 0 0 0 0-.3v-1.1a13.2 13.2 0 0 0 0-.5v-1a13.2 13.2 0 0 0-.1-.4l-.1-.8a13.2 13.2 0 0 0 0-.2l-.1-.7a13.2 13.2 0 0 0 0-.3V134a13.2 13.2 0 0 0 0-.2l.1-.6a13.2 13.2 0 0 0 0-.4l.1-.6a13.2 13.2 0 0 0 0-.1l.1-.6a13.2 13.2 0 0 0 0-.4v-.5a13.2 13.2 0 0 0 0-.1l.1-.6a13.2 13.2 0 0 0 0-.2v-.6a13.2 13.2 0 0 0 0-.5v-.5a13.2 13.2 0 0 0 0-.3v-.5a13.2 13.2 0 0 0 0-.2v-.5a13.2 13.2 0 0 0 0-.4v-.4a13.2 13.2 0 0 0 0-.1v-.3a13.2 13.2 0 0 0 0-.6l.1-.4a13.2 13.2 0 0 0 .2-.4l.1-.5a13.2 13.2 0 0 0-11.8-16.7zm-13.4 9a13.2 13.2 0 0 0-.2.4v-.2zm24.7 8.6v.5-.1zm0 .5v.3-.3zm-.1.5v.2a13.2 13.2 0 0 0 0-.2zm.2 0v.1l-.1.6a13.2 13.2 0 0 0 0-.3zm-1 12.2v.1l-.2.4a13.2 13.2 0 0 0 .2-.5zm-70.9 13.8 2.1 3.4a13.2 13.2 0 0 0-4.8-2zm86 16.9a13.2 13.2 0 0 0 0 .2h-.1zm66 24.1zm-114.7 6.6v.1a13.2 13.2 0 0 0-.1-.1zm1.5.7.6.6a13.2 13.2 0 0 0 1 .8l.5.4a13.2 13.2 0 0 0 .7.6l-2.4-1.7zM341 216.5v.3l-.2.4a13.2 13.2 0 0 0 0 .4l-.3.7a13.2 13.2 0 0 0 0 .1zm-65.1 5.8a13.2 13.2 0 0 0 3.2.3 13.2 13.2 0 0 0 1.8 1.7 13.2 13.2 0 0 0-3.2-1.4h-.8a13.2 13.2 0 0 0-1.4.5v-.2a13.2 13.2 0 0 0 .1-.2l.2-.4zm7.4 3a13.2 13.2 0 0 0 .9.2 13.2 13.2 0 0 0-.6 0 13.2 13.2 0 0 0-.3-.2zm30.8 6.3a13.2 13.2 0 0 0 .4.7l-3.3.3a13.2 13.2 0 0 0-.1-.4l-.2-.4a13.2 13.2 0 0 0-.3-.2 13.2 13.2 0 0 0 2.3 0 13.2 13.2 0 0 0 1.2 0zm2.5.4h-.1a13.2 13.2 0 0 0 .1 0zm-26.7 57.4h.6a13.2 13.2 0 0 0 1 .6l.5.3a13.2 13.2 0 0 0 .8.4l.6.3a13.2 13.2 0 0 0 .8.3l.8.3a13.2 13.2 0 0 0 .4.2l.9.3a13.2 13.2 0 0 0 .1 0l1 .4a13.2 13.2 0 0 0 .1 0l1 .3.8.3a13.2 13.2 0 0 0 .2.2l1.4 1.3a13.2 13.2 0 0 0 .2.2l1.5 1.3a13.2 13.2 0 0 0 .2.1l1.6 1.4a13.2 13.2 0 0 0 .1 0l1.7 1.5 1.7 1.4 1.6 1.3 1.6 1.3 1.3 1.1 1.3 1 .7.6a13.2 13.2 0 0 0 0 .8v.5a13.2 13.2 0 0 0 0 .4l.1.7a13.2 13.2 0 0 0 .1.5l.2.8a13.2 13.2 0 0 0 0 .5l.3 1a13.2 13.2 0 0 0 0 .2l.3 1.1a13.2 13.2 0 0 0 .1.4l.4 1.2a13.2 13.2 0 0 0 0 .2l.4 1.4a13.2 13.2 0 0 0 0 .1l.5 1.5.5 1.6.5 1.6.5 1.6.4 1.5.4 1.4.3 1.2.3 1 .2.7.1.6a13.2 13.2 0 0 0 2.1 2.6 13.2 13.2 0 0 0 0 .1l-.4.6a13.2 13.2 0 0 0-.3.5l-.3.5a13.2 13.2 0 0 0-.3.6l-.2.4a13.2 13.2 0 0 0-1 2.9l-.2.4a13.2 13.2 0 0 0 0 .4l-.1.2-.2.6-.4 1-.3 1a13.2 13.2 0 0 0 0 .1l-.5 1.2-.4 1.4-.5 1.5-.4 1.3-.5 1.3-.4 1-.4 1-.4 1-.4 1-.5 1.2-.5 1-.4 1.2-.6 1.3-.6 1.3-.6 1.4a13.2 13.2 0 0 0 0 .1l-.7 1.6-.7 1.7-.5 1v.1l-2.7 2.4-2.8 2.6a13.2 13.2 0 0 0-.2 0l-2.8 2.7a13.2 13.2 0 0 0-.2.2l-1.9 1.9a13.2 13.2 0 0 0-1 .1l-.3.2a13.2 13.2 0 0 0-1.3.9l-.5.3a13.2 13.2 0 0 0-.3.2l-.7.5a13.2 13.2 0 0 0 0 .1l-1 .7-1.1 1-1.3 1-1.5 1-1.5 1.3-1.7 1.2-1.6 1.3-1.5 1.2a13.2 13.2 0 0 0-.2.1l-1.3 1.1a13.2 13.2 0 0 0-.2.1l-1.1 1a13.2 13.2 0 0 0-.3.3l-1 .8a13.2 13.2 0 0 0-.3.3l-.8.8a13.2 13.2 0 0 0-.4.3l-.6.7a13.2 13.2 0 0 0-.6.8 13.2 13.2 0 0 0-2.5.7 13.2 13.2 0 0 0-18.3.3l-.3.3a13.2 13.2 0 0 0-1 .2 13.2 13.2 0 0 0-9.2-4.6l-.2-.1-.7-.6-1-.8-1-1-1.1-1.2-1.2-1.3-1-1.3-1-1.2-.9-1.2-1.4-2-.6-.8a13.2 13.2 0 0 0-.2-.2l-.2-.9-.5-2.2-.5-2.2-.5-2.2-.5-2-.4-1.9-.3-1.7-.3-1.5-.2-1.3-.2-1a13.2 13.2 0 0 0-.6-2.2l-.3-.8a13.2 13.2 0 0 0-.2-.2 13.2 13.2 0 0 0 .3-1.7v-.5a13.2 13.2 0 0 0-.2-2.2V344.4l.1-.4v-.7l.1-.3.2-.7a13.2 13.2 0 0 0 0-.3v-.5a13.2 13.2 0 0 0 .1-3.2v-.5a13.2 13.2 0 0 0-5.7-9.3l.1-.2a13.2 13.2 0 0 0 .3-.4l.2-.3a13.2 13.2 0 0 0 .5-.8l.2-.5a13.2 13.2 0 0 0 .9-1.8l.1-.4.2-.4a13.2 13.2 0 0 0 0-.3 13.2 13.2 0 0 0 1.1-4 13.2 13.2 0 0 0 .2-1.1 13.2 13.2 0 0 0 .2-1.3 13.2 13.2 0 0 0 0-.1v-.5a13.2 13.2 0 0 0 .1-.5v-.5a13.2 13.2 0 0 0-.1-2.3 13.2 13.2 0 0 0 .5-1.4v-.1a13.2 13.2 0 0 0 2.8-1.7l.3-.5a13.2 13.2 0 0 0 1.5-2.7v-.1a13.2 13.2 0 0 0 .3 0l.5-.2a13.2 13.2 0 0 0 4.1-2.2l.7-.6a13.2 13.2 0 0 0 .2-.1l1-.9.7-.5.7-.6.8-.7 1-.7 1-.8 1-.8 1.3-1 1.3-1 1.5-1 .3-.3a13.2 13.2 0 0 0 2-1.3l.5-.3a13.2 13.2 0 0 0 .1-.1 13.2 13.2 0 0 0 .9.5h.4a13.2 13.2 0 0 0 5.9 0l.6-.2a13.2 13.2 0 0 0 1.1-.3l.4-.2a13.2 13.2 0 0 0 .5-.1l.4-.2a13.2 13.2 0 0 0 .4-.1l.5-.3.6-.2a13.2 13.2 0 0 0 .2 0l.5-.3.6-.3.5-.2.5-.2.5-.2.5-.2 1-.2.7-.2h.6l.6-.2h3.6a13.2 13.2 0 0 0 .2 0h1.2a13.2 13.2 0 0 0 .2 0h1.2a13.2 13.2 0 0 0 .3 0h1.3a13.2 13.2 0 0 0 .3-.1h1.3a13.2 13.2 0 0 0 .4-.1l1.3-.1a13.2 13.2 0 0 0 .3 0l1.4-.2 1.4-.1 1.3-.2 1-.1h1zm-85 12.6a13.2 13.2 0 0 0 0 .2v-.1zm25.3 7.7V310v-.2zm-1 2.2.1.1v.8a13.2 13.2 0 0 0 0-.9zm.1.2v.7a13.2 13.2 0 0 0 0-.6zm-26.3 2.4zm0 0a13.2 13.2 0 0 0 0 .1 13.2 13.2 0 0 0 0 .1 13.2 13.2 0 0 0-.1.1v-.1a13.2 13.2 0 0 0 0 .1v-.1zm-.1.5a13.2 13.2 0 0 0 0 .1 13.2 13.2 0 0 0 0 .3v-.1zm183.3 1.6.5 1-.1.4-.2-.5a13.2 13.2 0 0 0-.2-.4v-.5zm-66.9 20.7a13.2 13.2 0 0 0 0 .3v-.2zm68.4 4.1.2.3a13.2 13.2 0 0 0 .1 0l.3.5-.7-.3a13.2 13.2 0 0 0-.1 0l.2-.4zm45.2 17.6a13.2 13.2 0 0 0 .1.1v.4l-.2.2v-.5a13.2 13.2 0 0 0 .1-.2zm-188.9 27.8h.3a13.2 13.2 0 0 0-.3 0zm134 13.3a13.2 13.2 0 0 0 .4.6l-.3-.4zm31.4 17.2v.3zm-187.7 8.4a13.2 13.2 0 0 0-2 .7h-.2l-.2.1.9-.3.7-.3zm-101 22.2a13.2 13.2 0 0 0 0 .3l.4.6a13.2 13.2 0 0 0 .3.3l-.5-.4zm20.8 6.8-.5.2h-.2a13.2 13.2 0 0 0 .7-.2z" style="mix-blend-mode:normal" transform="translate(-97 -214)"/><path fill="none" stroke="#87ff87" stroke-width="11.3" d="m156 287.2-.3-.4-.4-.3-.5-.1-.8.3-1 .8-1.2 1.3-1.2 1.9-1.3 2.4-1.3 2.8-1.1 3.3-1 3.5-.7 3.6-.4 3.7-.2 3.6.2 3.5.4 3.1.7 2.7 1 2.2 1.1 1.5 1.4.9 1.5.1 1.7-.5 1.8-1.3 1.8-2 2-3 2-3.6 1.9-4.6 1.7-5.3 1.3-5.8 1-6 .4-5.7v-5.3l-.1-4.5-.5-3.7-.7-2.7-1-1.7-1-1-1.5-.2-1.6.5-1.7 1.3-1.8 2-1.7 2.9-1.6 3.5-1.4 4.3-1.1 4.9-.7 5.5-.4 6 .1 6 .4 6.1.6 5.7.8 5 1 4.1 1 3.3 1 2.4 1.3 1.4 1.3.7 1.5-.2 1.7-1 1.8-1.9 2-2.7 2-3.8 1.9-4.6 1.7-5.4 1.2-5.8.7-6 .2-5.5-.2-5.1-.6-4.4-.8-3.5-1-2.8-1-2-1.3-1.4-1.5-.8-1.6-.2-1.6.4-1.6 1-1.6 1.6-1.3 2.3-1.1 2.9-.8 3.5-.5 4-.2 4.5.2 4.8.4 5 .7 4.8.8 4.6 1 4.1 1.1 3.4 1.3 2.7 1.3 1.9 1.5 1 1.6.3 1.7-.5 1.8-1.4 2-2.3 2-3.1 1.8-4 1.6-4.9 1.2-5.3.8-5.6.3-5.4-.2-5-.5-4.4-.8-3.6-1-2.9-1.2-2.1-1.3-1.5-1.4-.7-1.5-.2-1.4.6-1.4 1.3-1.2 2-1 2.7-.7 3.4-.5 4-.2 4.3v4.7l.3 4.8.4 4.8.7 4.6.8 4.2 1 3.6 1 3 1.3 2 1.3 1.5 1.5.6 1.5-.2 1.7-.9 1.8-1.6 1.8-2.3 1.8-3.1 1.5-3.8 1.3-4.3 1-4.7.4-5 .2-4.7-.3-4.5-.6-4-.8-3.4-1.1-2.8-1.3-2.1-1.5-1.6-1.7-1-1.8-.3-1.9.3-1.7.9-1.7 1.5-1.5 2.2-1.2 2.9-1 3.4-.7 3.9-.4 4.1-.2 4.4v4.4l.4 4.2.6 4 .8 3.4 1 2.9 1.1 2.2 1.3 1.5 1.5.7 1.6.1 1.8-.6 1.9-1.2 2-2 1.9-2.6 1.8-3.3 1.6-3.9 1.3-4.3.8-4.6.5-4.6v-4.3l-.3-3.8-.6-3.3-1-2.6-1.1-2-1.4-1.5-1.6-1-1.8-.3H178l-2 .6-1.8 1-1.7 1.5-1.5 2-1.4 2.4-1 2.9-.9 3.2-.5 3.6-.3 3.7.1 3.7.4 3.8.7 3.5 1 3.3 1.1 2.9 1.4 2.4 1.5 1.8 1.6 1.3 1.8.8 1.8.2 2-.4 1.9-.9 1.9-1.5 1.8-2 1.7-2.6 1.5-3 1.1-3.4.8-3.6.5-3.5.1-3.3-.1-3-.5-2.6-.6-2.2-1-1.8-1.1-1.5-1.4-1-1.5-.9-1.8-.4H182l-1.8.4-1.8 1-1.7 1.4-1.5 2-1.2 2.5-1 2.9-.7 3.2-.4 3.3-.1 3.5.1 3.4.5 3.4.7 3.3 1 3 1 2.5 1.4 2 1.4 1.5 1.6 1 1.6.2 1.7-.5 1.7-1.2 1.7-1.9 1.5-2.5 1.4-3.2 1.2-3.5.9-3.9.6-3.8.2-3.8v-3.5l-.3-3-.5-2.7-.7-2.2-1-1.8-1-1.3-1-.9-1.3-.4-1.3-.1-1.4.4-1.4.7-1.4 1.1-1.4 1.5-1.2 1.7-1.1 2-1 2.3-.8 2.4-.6 2.7-.4 2.8v5.9l.4 2.9.6 2.9.8 2.6 1 2.3 1 2 1.1 1.3 1.2 1 1.2.2 1.4-.3 1.4-1 1.4-1.6 1.4-2.3 1.3-3 1.2-3.4.9-3.9.6-4 .4-4v-3.9l-.3-3.5-.4-3-.7-2.8-.9-2.3-1-2-1.2-1.7-1.3-1.4-1.5-1.1-1.5-1-1.6-.6-1.6-.3h-1.6l-1.5.3-1.3.6-1.2 1-1 1.4-.8 1.6-.5 1.9-.3 2v2.3l.2 2.4.4 2.4.7 2.4 1 2.3 1.1 2.1 1.3 1.8 1.5 1.5 1.5 1.1 1.6.7 1.7.2 1.7-.2 1.7-.7 1.6-1.2 1.5-1.7 1.3-2 1-2.5.8-2.5.5-2.6.1-2.5-.1-2.4-.4-2.2-.7-1.9-.8-1.7-1-1.4-1.2-1.3-1.2-1-1.4-.8-1.4-.7-1.4-.5-1.3-.3-1.4-.1H179l-1.1.3-1 .5-.9.7-.7.8-.5 1-.4 1.1-.2 1.3v1.4l.3 1.5.5 1.6.7 1.6 1 1.6 1 1.6 1.3 1.5 1.3 1.3 1.4 1 1.4.8 1.5.4h1.4l1.4-.5 1.3-.9 1.1-1.3 1-1.7.7-2 .4-2.2.1-2.3-.2-2.2-.4-2.1-.6-2-1-1.8-1-1.6-1.5-1.4-1.6-1.3-1.8-1.3-2-1-2-1-2-1-2.1-.8-1.9-.6-1.7-.4-1.5-.2h-1.3l-1 .2-1 .4-.6.6-.5.8-.3 1-.2 1v1.2l.2 1.3.4 1.3.5 1.4.7 1.3.8 1.2.9 1 .8 1 1 .6.9.4h1.8l.8-.5.7-.6.6-.8.3-1 .1-1v-1.2l-.4-1.2-.6-1.1-.8-1.1-1-1-1-.8-1.2-.6-1.3-.5-1.2-.2h-1.2l-1.1.1-1 .4-1 .5-.8.6-.6.7-.5.9-.4.9-.1.9v.9l.3.8.4.8.7.7.8.5 1.1.4 1.2.1h1.5l1.5-.3 1.7-.4 1.9-.8 1.8-1 1.8-1.1 1.5-1.4 1.3-1.6 1-1.6.6-1.7.3-1.6v-1.5l-.2-1.3-.6-1.3-.9-1-1-1-1.3-.8-1.3-.7-1.4-.6-1.5-.4-1.4-.4-1.4-.2h-2.7l-1.2.2-1 .3-1 .3-.8.5-.7.5-.5.5-.3.5-.3.5v1.2l.2.6.5.7.5.7.7.6.8.6 1 .5.9.3.9.1h.9l.8-.1.7-.2.6-.3.4-.3.2-.4-.2-.8-.4-.5-.7-.4-.9-.5-1-.4-1.4-.3-1.6-.3-1.8-.2h-5.9l-2 .3-2.1.3-2 .4-1.8.5-1.6.6-1.5.7-1.3.7-1.1.7-.9.7-.7.7-.5.7-.3.7-.2.6v.6l.2.5.4.4.6.4.7.2 1 .2h1.1l1.3-.2 1.2-.3 1.3-.5 1.1-.5 1-.7.8-.6.6-.5.5-.6.3-.4.2-.4-.2-.6-.3-.3-.6-.2-.8-.1-1-.1h-2.6l-1.5.3-1.6.4-1.6.6-1.5.6-1.4.7-1.3.8-1.1.8-1 .7-.7.7-.5.6-.3.6v.4l.6.4h.7l.9-.1 1.1-.4 1.4-.5 1.4-.7 1.5-1 1.5-1 1.5-1.2 1.3-1.2 1-1.2 1-1 .7-.9.5-.6.4-.5.2-.4.3-.4-.3-.3-.7-.1-.7-.1h-1l.7-.4.4-.2.6-.3.6-.3.8-.4.7-.4.8-.4.8-.5.7-.4.6-.3.5-.4.4-.2.6-.3-.3.3-.3.3-.6.4-.6.4-.8.5-1 .4-1 .5-1.2.6-1.2.5-1.3.6-1.3.5-1.3.6-1.4.7-1.3.7-1.3.7-1.3.7-1.2.8-1.1.9-1 .8-1 1-1 .9-.7 1-.7 1-.6.9-.5 1-.4 1-.3 1-.3 1-.1 1-.1.9v2.8l.2 1 .1.7.2.7v.7l.2.5v.5l.1.6v.4l.1-.5h-.4l-.7.5-.6.4-.6.7-.6.7-.6 1-.6 1-.5 1.1-.4 1.2-.3 1-.2 1.1-.1 1V300.5l.7.4h.4l.6-.3.6-.3.6-.5.8-.7.8-.8.8-1 .9-1.1.9-1.2 1-1.3.8-1.3 1-1.4.8-1.4.7-1.2.5-1 .5-.9.2-.5-.4.5-.4 1-.6 1.3-.7 1.6-.7 2-.8 2.2-.7 2.4-.8 2.5-.7 2.5-.6 2.6-.6 2.5-.4 2.4-.4 2-.4 2-.2 1.5-.2 1.1-.1.9v.4l.6-.7.4-1 .5-1.2.6-1.5.6-1.7.6-1.8.6-2 .6-2 .4-2 .3-1.7.3-1.5v-2.6l-.7.4-.5.8-.5 1.3-.6 1.6-.5 1.9-.5 2-.4 2.2-.3 2.3-.3 2.3-.2 2.2-.2 2v4.2l.3.7h.7l.5-.7.5-1.1.5-1.5.5-1.7.4-1.9.4-2 .2-2.1.2-2.1v-5.6l-.1-1.4-.2-1-.2-.8-.3-.4-.7.2-.5.6-.6 1-.5 1.2-.5 1.5-.4 1.7-.4 1.9-.4 2-.3 2-.2 2.1-.1 2v5.3l.2 1.2.3.8.3.4h.4l.5-.3.6-.6.5-1 .4-1.2.4-1.4.2-1.4.2-1.4.2-1.3v-3.7l-.2-.5-.3.6-.1.7-.2 1v1.3l-.1 1.6V320.9l.2 1.8.1 1.9.2 1.7.3 1.6.3 1.4.3 1.1.5 1 .5.5.6.3h.7l.7-.5.8-.9.8-1.1.8-1.5.8-1.7.6-1.8.4-2 .3-1.8.2-1.8v-1.7l-.3-1.4-.3-1.2-.5-1-.5-.7-.7-.4-.8-.3h-.8l-.8.3-.8.4-.7.8-.6 1-.5 1-.3 1.5-.2 1.5v1.7l.3 1.8.5 1.9.6 1.9.9 2 1 1.8 1.2 1.7 1.3 1.5 1.4 1.3 1.4 1 1.5.5 1.4.3 1.5-.1 1.3-.5 1.3-.8 1-1.1 1-1.4.6-1.5.5-1.7.4-1.6.1-1.6V323.4l-.2-1-.3-.6-.4-.4-.5-.2h-.5l-.6.5-.5.6-.4 1-.4 1.1-.3 1.3-.2 1.5-.1 1.5v1.6l.1 1.6.3 1.5.4 1.4.6 1.2.6 1 .8.9.7.5.8.2.9-.1.8-.4.7-.7.7-1 .5-1 .5-1.3.2-1.4.2-1.3v-1.3l-.3-1.2-.3-1-.5-.9-.6-.7-.6-.4-.8-.2h-.7l-.8.2-.8.6-.7.7-.7 1-.6 1.1-.4 1.3-.3 1.3-.2 1.4v1.3l.2 1.2.3 1.2.5 1 .7.8.8.7.8.5 1 .3h1l1-.3 1.2-.5 1.1-.8 1-1 1-1.3.9-1.4.6-1.5.5-1.5.3-1.4v-2.2l-.2-.8-.4-.6-.5-.3h-.7l-.7.2-.8.5-.8.8-.7 1-.8 1.2-.6 1.3-.6 1.4-.5 1.3-.3 1.3-.2 1.2-.1 1 .1 1 .3.8.4.7.6.6.8.3.8.1h1l1-.4 1-.5 1.2-.7 1.1-1 1-1 1-1.3.7-1.3.5-1.4.4-1.3.2-1.3V329l-.4-.7-.5-.6-.7-.4-.8-.2h-.8l-1 .2-1 .4-.8.6-.9.7-.7 1-.7 1-.5 1.2-.3 1.2-.2 1.1v1.2l.2 1 .3 1 .6.9.7.8.8.6 1 .4 1.1.3h1.3l1.3-.1 1.5-.4 1.6-.5 1.6-.7 1.7-1 1.7-1.1 1.6-1.3 1.5-1.4 1.3-1.5 1.1-1.6.9-1.5.6-1.5.4-1.3.2-1.2v-1l-.1-.9-.4-.6-.5-.5-.8-.3-.9-.2-1 .1-1 .3-1.2.5-1.2.7-1 1-1 1-1 1.3-.7 1.4-.6 1.3-.5 1.4-.4 1.3-.2 1.1v2l.4.7.5.4.8.3h.9l1-.3 1.3-.5 1.3-.7 1.4-1 1.4-1.2 1.4-1.4 1.2-1.5 1-1.6.8-1.6.7-1.6.4-1.3.3-1.2v-1.6l-.3-.5-.4-.3-.5-.2h-.7l-.8.2-1 .4-1 .5-1 .6-1 .8-1 1-.8 1-.8 1.2-.7 1.2-.6 1.1-.4 1.1-.3 1.1-.1 1v.8l.2.6.3.4.6.3.7.1h.8l1-.4 1.2-.5 1.2-.7 1.3-1 1.4-1.1 1.4-1.4 1.3-1.5 1.2-1.7 1-1.8 1-1.9.6-1.8.5-1.6.3-1.4v-1l-.1-.8-.4-.3h-.6l-.9.3-1 .6-1.3 1-1.3 1.2-1.3 1.4-1.3 1.6-1.3 1.7-1 1.8-1 1.8-.8 1.7-.5 1.6-.4 1.5-.2 1.4v1l.3 1 .5.5.6.3h1.9l1-.5 1.3-.6 1.2-.8 1.3-1 1.3-1.2 1.3-1.3 1.4-1.5 1.3-1.6 1.2-1.7 1.2-1.7 1-1.8.8-1.7.7-1.7.6-1.6.4-1.4.3-1.2.1-1.2v-1.8l-.1-.7-.3-.6-.3-.6-.4-.4-.6-.3-.6-.2-.7-.2h-.7l-.8.2-.8.3-.8.5-.9.6-.8.8-.9 1-.8 1-.7 1.1-.7 1.4-.6 1.4-.5 1.5-.4 1.6-.3 1.6-.1 1.5V325.2l.3 1 .4.7.5.5.6.2h.8l.8-.4 1-.6 1-1 1-1.2 1-1.5 1-1.8 1-2 1-2.2 1-2.3.7-2.5.6-2.4.5-2.2.3-2.1.2-1.9.1-1.6v-1.4l-.1-1.2-.2-1-.4-.8-.4-.5-.5-.3-.7-.1h-.8l-.8.5-1 .6-.9.8-.9 1.1-.8 1.3-.8 1.5-.7 1.6-.6 1.7-.4 1.8-.3 1.8-.2 1.9-.1 1.8v1.8l.2 1.7.4 1.5.4 1.3.5 1 .6.7.7.3h.7l.8-.5.8-.8.8-1 .7-1.5.7-1.8.6-2 .4-2 .4-2.1.2-2.1v-3.7l-.2-1.5-.3-1.2-.4-1.1-.5-.8-.5-.7-.7-.4-.7-.2h-.8l-.8.1-.8.4-.8.7-.8.8-.8 1.2-.6 1.3-.5 1.4-.3 1.6-.3 1.6v3.1l.1 1.5.3 1.2.3 1 .4.7.5.4h.5l.6-.4.6-.8.5-1.2.5-1.5.4-1.6.3-1.9.1-1.9v-3.5l-.4-1.6-.4-1.5-.5-1.3-.7-1.1-.6-1-.8-.9-.7-.6-.7-.6-.7-.4-.7-.3-.8-.2h-.7l-.8-.1h-.8l-.7.1-.8.1-.6.1-.6.2h-.5l-.7.2.4.1.6.1.6.2.5.3.4.4.2.4.2.5.2.6.2.6.2.5v.4l.2.4.5.3h.5l.9-.2.5-.2.5-.3.6-.3.6-.4.7-.4.6-.4.6-.6.5-.5.5-.6.4-.7.4-.6.4-.5.3-.5.2-.4.4-.3.4.5.2.5.3.8.2 1 .3 1 .2 1.2.3 1.1.3 1.1.2 1 .3.9.3.8.3.6.2.6.3.5.3.3.5.3.7-.3.3-.3.2-.5.3-.5.2-.7.2-.8.1-.9.1-1V292.6l-.1-.5-.1-.4-.2-.7-.2-.5-.2-.6-.3-.7-.1-.5-.2-.4v-.5l-.2-.5v-.4l-.1-.5-.1-.4v-.4l-.2-.4v-.4l-.2-.4v-.4l-.2-.4-.2-.4-.2-.4-.3-.4-.2-.3-.3-.4-.5-.5-.4-.5-.5-.3-.6-.3-.5-.2-.6-.4-.5-.4-.5-.4-.3-.5-.3-.5v-1l.2-.3.4-.1h.5l.7.3.4.2.5.3.5.3.6.4.6.5.6.6.6.7.5.8.6 1 .6 1 .5 1 .6 1.1.5 1.2.4 1.2.5 1.2.3 1.3.4 1.2.3 1.2.2 1.2.2 1.2.1 1.2.1 1.2v3.5l-.2 1.2-.2 1.3-.3 1.2-.4 1.3-.4 1.2-.4 1.1-.4 1-.5 1-.5.7-.4.6-.4.5-.4.3-.5.4-.3.2.1-.6.3-.5.4-.7.2-.5.2-.6.3-.6.2-.7.2-.8.1-.9.1-.8v-1l.1-.9v-2l-.1-1.2-.2-1.3-.2-1.4-.3-1.6-.4-1.5-.5-1.6-.5-1.6-.6-1.5-.7-1.5-.7-1.4-.8-1.3-.8-1.2-.9-1-.9-1-.9-.8-.8-.5-.9-.3h-.7l-.7.2-.6.5-.5.8-.5 1M280.7 325.6l.6-1 .4-.8.5-1.1.5-1 .2-1V319l-.4-.8-.7-.6-1-.5-1.3-.3h-1.7l-1.8.5-2 .9-2 1.5-2 2-1.9 2.5-1.6 3-1.3 3.3-1 3.6-.8 3.8-.4 3.9-.1 3.9.2 3.8.5 3.6.8 3.4 1.1 3 1.3 2.5 1.6 2 1.9 1.3 2 .7h2.3l2.5-.8 2.7-1.6 2.6-2.3 2.6-3 2.3-3.6 2-4 1.4-4.4.9-4.4.4-4.2v-4l-.6-3.5-1-3-1.2-2.6-1.7-2-2-1.4-2.3-.8-2.5-.2-2.6.5-2.6 1.3-2.5 2-2.3 2.6-2 3.1-1.8 3.5-1.5 3.9-1.1 4-.8 4.3-.5 4.2-.2 4.2.3 3.8.6 3.4 1 2.8 1.4 2 1.7 1 2 .1 2.5-.8 2.7-1.7 2.9-2.7 3-3.5 2.7-4.4 2.4-5 1.8-5.4 1.3-5.5.6-5.3.2-5-.4-4.3-.8-3.8-1.2-3-1.5-2.4-1.8-1.7-2-.9-2.2-.2-2.3.5-2.2 1.1-2 1.9-2 2.5-1.6 3-1.4 3.4-1.2 3.6-.8 3.8-.4 3.7-.1 3.7.2 3.5.6 3.3 1 2.8 1.2 2.4 1.5 1.9 1.7 1.1 2 .6 2.3-.2 2.3-1 2.3-1.5 2.2-2.3 2-3 1.7-3.4 1.3-3.8 1-4 .5-4 .2-3.6-.2-3.2-.5-2.6-.8-2-1-1.6-1.3-1-1.5-.4-1.6.1-1.6.7-1.7 1.4-1.5 1.8-1.4 2.3-1.2 2.6-1 3-.7 3-.5 3-.1 3.2.1 3 .5 2.8.7 2.5 1 2.1 1.3 1.6 1.4 1.1 1.7.6 1.9-.1 2-.7 2-1.3 2.1-2 2-2.6 1.8-3.1 1.5-3.6 1.1-3.7.8-3.7.4-3.4v-3l-.1-2.6-.5-2-.7-1.5-1-1-1.2-.5h-1.4l-1.5.4-1.7 1-1.6 1.4-1.6 2-1.5 2.5-1.3 2.9-1 3.2-.7 3.3-.5 3.4v3.3l.1 3.1.6 3 .8 2.5 1.1 2.1 1.4 1.6 1.5 1 1.8.3 2-.3 2-1 2.3-1.7 2.2-2.3 2-2.8 2-3.2 1.5-3.5 1.2-3.6.8-3.4.5-3 .1-2.8-.2-2.3-.5-1.9-1-1.4-1-1-1.5-.6-1.6-.2-1.8.3-2 .7-2 1.1-1.8 1.6-1.9 2-1.6 2.5-1.5 2.8-1.2 3-.9 3-.5 3.1-.3 3 .1 3 .4 2.6.7 2.4 1 2 1.1 1.7 1.4 1.1 1.6.6h1.9l2-.5 2.2-1.2 2.2-1.8 2.3-2.4 2.1-2.9 1.9-3.4 1.5-3.7 1-3.7.8-3.7.2-3.5-.2-3-.6-2.8-1-2.2-1.3-1.8-1.6-1.4-1.9-.8-2.1-.4h-2.4l-2.4.7-2.5 1.2-2.4 1.9-2.3 2.3-2 3-1.9 3.3-1.5 3.7-1.3 3.8-.9 3.8-.6 3.6-.3 3.6v3.3l.4 3 .7 2.5 1 2.2 1.3 1.6 1.5 1.1 1.9.6 2.7-.4 3.6-1.9 3.7-2.8 3.7-3.7 3-4 2-4 1.6-4 1.3-3.8.8-3.7.5-3.3.2-2.8-.3-2.5-.7-2-1-1.6-1.5-1.1-1.7-.8-2-.2-2.3.2-2.3.8-2.4 1.3-2.4 2-2.2 2.5-2 3-1.7 3.6-1.5 3.7-1.2 4-1 4-.5 3.8-.3 3.6.1 3.3.5 3 .8 2.3 1 1.9 1.5 1.3 1.7.7 2 .1 2.2-.5 2.4-1 2.6-1.8 2.7-2.2 2.5-2.7 2.5-3 2.1-3.4 1.7-3.3 1.4-3.2.8-3 .4-2.6v-2.3l-.4-1.9-.7-1.5-1.2-1.1-1.4-.8-1.7-.3h-2l-2 .4-2 .9-2 1.2-2 1.6-1.8 2-1.7 2.2-1.6 2.5-1.4 2.6-1.3 2.8-1.2 3-1 3-1 3-.8 3-.6 2.6-.5 2.5-.2 2v1.8l.4 1.3.7.9 1 .4h1.2l1.6-.7 1.8-1 2-1.7 2.1-2.1 2.3-2.6 2.1-2.8 2-3 1.6-3 1.2-2.8.8-2.5.4-2v-1.6l-.5-1-1-.7-1.3-.2-1.8.1-2.2.4-2.5.7-3 1-3 1.2-3.3 1.6-3.3 1.8-3 2.1-3 2.5-2.7 2.7-2.5 3-2.2 3-1.9 3.2-1.6 3-1.2 2.7-.8 2.3-.5 2-.1 1.7.3 1.2.6 1 1 .4 1.4.2 1.7-.3 2.1-.6 2.5-1.2 2.7-1.7 3-2.3 2.8-2.8 2.6-3.1 2.3-3.5 1.8-3.4 1.4-3.3.9-3 .4-2.5v-2.1l-.5-1.6-.8-1.2-1.3-.6-1.7-.2-2 .2-2.2.7-2.4 1-2.3 1.6-2.3 2-2 2.3-1.9 2.6-1.5 2.9-1.3 3-1 3-.7 2.7-.3 2.5v2.2l.5 1.7.9 1.2 1.2.7 1.6.1 2-.4 2.4-1 2.6-1.7 2.7-2 2.6-2.6 2.5-3 2-3 1.8-3 1.2-3 .8-2.6.4-2.3v-2l-.5-1.5-.8-1.3-1.3-.9-1.5-.6-1.8-.3h-2l-2.2.5-2.1.8-2.2 1-2 1.5-1.7 1.9-1.5 2-1.2 2.5-1 2.6-.5 2.7-.2 2.8.2 2.6.6 2.3.9 2 1.2 1.7 1.6 1.3 2 .9 2.2.4h2.5l2.6-.6 2.6-.9 2.4-1.4 2.3-1.7 2-2 1.6-2.1 1.4-2 1-2 .8-1.6.4-1.4V357l-.2-1-.6-.7-1-.5-1.4-.4-1.8-.2-2 .2-2.4.5-2.4.8-2.5 1.3-2.4 1.6-2.2 2-2 2.1-1.8 2.4-1.5 2.4-1.2 2.3-1 2.2-.6 2-.3 1.7v1.5l.3 1.1.6.8 1 .4h1.3l1.6-.3 2-.8 2-1.2 2-1.7 2-2 1.9-2.5 1.5-2.7 1.3-2.8.8-3 .5-2.7.1-2.6-.3-2.3-.6-2-1-1.6-1.3-1.3-1.6-1.1-2-.8-2-.6-2.3-.2h-2.3l-2.4.4-2.3.7-2.3 1-2 1.4-2.1 1.6-1.8 2-1.7 2-1.5 2.3-1.2 2.4-1 2.4-.8 2.4-.4 2.2-.1 2 .2 1.8.5 1.4.7 1 1 .6 1.2.1 1.5-.4 1.6-.8 1.9-1.4 2-1.9 2-2.4 2-2.9 1.8-3.3 1.6-3.5 1-3.7.8-3.8.3-3.6V344l-.5-3-.8-2.6-1-2.2-1.3-1.6-1.5-1.2-1.7-.6h-1.9l-2 .5-1.9 1.1-1.8 1.6-1.8 2.1-1.5 2.6-1.4 2.8-1 3-.7 3.4-.4 3.4v3.4l.3 3.2.7 3 .9 2.6 1.1 2 1.4 1.3 1.4.8 1.7.2 1.7-.4 1.7-1 1.7-1.6 1.5-2 1.3-2.3 1-2.6.8-2.8.4-3 .1-3-.2-3.1-.5-3-.8-3-1-2.7-1.1-2.5-1.3-2-1.5-1.7-1.5-1.3-1.7-.7-1.8-.1-1.8.3-2 1-1.8 1.4-1.9 2-1.7 2.3-1.6 2.7-1.3 2.9-1 3.1-.8 3.3-.3 3.4v3.4l.4 3.3.8 3 1.2 2.7 1.4 2.1 1.7 1.5 2 .8 2 .1 2.2-.6 2.2-1.3 2.3-2 2.2-2.6 2-3.3 1.8-3.8 1.4-4.2 1-4.4.3-4.5v-4.3l-.4-3.9-.8-3.4-1-2.9-1.3-2.3-1.5-1.8-1.7-1.3-1.8-.8-1.9-.4-2 .2-1.9.7-2 1.3-1.7 1.7-1.7 2-1.5 2.5-1.3 2.6-1 2.9-.7 3-.3 3v3l.5 2.9.8 2.7 1.1 2.5 1.4 2 1.5 1.5 1.6.9 1.7.3 1.8-.4 1.6-.9 1.6-1.5 1.4-2 1.2-2.5 1-2.8.6-3 .4-3.2.1-3.2-.1-3.1-.4-2.9-.7-2.6-.9-2.1-1-1.8-1.4-1.2-1.5-.7-1.7-.2-1.8.3-2 .8-1.9 1.2-1.9 1.5-1.7 1.8-1.6 1.9-1.4 1.9-1.2 1.9-1 1.8-.6 1.6-.3 1.4v1l.2.8.6.4h.9l1.1-.4 1.4-.7 1.6-1 1.6-1.5 1.6-1.7 1.7-2 1.5-2.3 1.3-2.3 1.2-2.3.9-2.1.7-1.9.5-1.6.4-1.3.1-1v-.8l-.2-.5-.4-.2h-.6l-.8.3-.8.5-1 .8-1 1.1-1.2 1.4-1.1 1.5-1.1 1.8-1 1.9-1 2-.8 2-.7 2-.5 1.9-.3 1.7-.1 1.4.1 1.1.4.7.7.2.9-.2 1-.7 1.3-1.2 1.3-1.7 1.3-2 1.3-2.4 1.3-2.6 1.1-2.8 1-2.8 1-2.6.7-2.3.5-2 .3-1.6.1-1.2v-.8l-.4-.5-.5-.1-.8.1-1 .4-1.2.7-1.3 1-1.5 1.1-1.5 1.3-1.4 1.3-1.4 1.4-1.4 1.3-1.1 1.3-1 1-.7.8-.4.6h.6l1-.6 1.1-.9 1.5-1 1.6-1.4 1.9-1.4 1.9-1.6 2-1.6 1.9-1.6 1.9-1.6 1.7-1.5 1.6-1.5 1.4-1.2 1.2-1.2 1-1 .9-.8.6-.7.6-.6.4-.5.3-.5.2-.5h-.4l-.5.1-.6.4-.8.6-.8.7-.9.9-.9 1-.8 1-.8 1-.7 1.1-.5 1-.4 1-.3.8v1.1l.8.3.6-.1 1-.4 1-.7 1.3-1 1.4-1.2 1.5-1.4 1.4-1.6 1.3-1.5 1-1.4.9-1.3.5-1 .2-.7v-.6l-.4-.3-.6-.1h-.8l-1 .1-1.2.3-1.2.4-1.3.5-1.3.6-1.2.7-1.3.8-1.2.9-1 .9-.9.9-.7.8-.5.8-.3.6v.5l.1.4.4.2.7.1h.9l1-.3 1.4-.4 1.5-.5 1.6-.7 1.8-.9 1.8-1 1.7-.9 1.5-.9 1.4-.9 1-.7 1-.7.6-.5.5-.5.2-.4-.1-.7-.5-.4-.7-.3-.8-.3-1-.1h-2.5l-1.2.3-1.2.5-1 .5-1 .7-.8.8-.6.8-.4.9-.2.8.1.8.3.7.6.7.9.5 1 .4 1.4.2h1.6l1.8-.2 2-.4 2.1-.6 2-.9 2-1 1.7-1.1 1.4-1.1 1-1 .9-1 .5-1 .3-.7v-.6l-.1-.6-.4-.5-.5-.5-.7-.3-.7-.2-.8-.1h-.7l-.7.2-.6.3-.5.6-.4.7-.1.8v1l.2 1 .5 1.2.7 1 .9 1.2 1 1 1.2 1 1.3.9 1.4.7 1.5.5 1.5.2h1.5l1.5-.3 1.3-.5 1-.6 1-.8.7-.7.4-.7.2-.7v-.7l-.3-.6-.5-.6-.8-.6-1-.6-1-.4-1.2-.5-1.2-.3-1.1-.2h-2.1l-.7.3-.6.5-.4.6v.8l.1 1 .5 1 .7 1.1 1 1.2 1 1.1 1.3 1.2 1.4 1 1.5 1 1.6 1 1.7.6 1.6.4 1.6.3 1.5.1h1.3l1-.1.8-.2.6-.3.3-.3v-.9l-.5-.5-.6-.7-.9-.7-1-.9-1.2-.9-1.2-.9-1.3-.8-1.3-.8-1.2-.6-1-.4-1-.2-.6.1-.5.4-.3.6v.9l.3 1.1.4 1.3.7 1.4 1 1.6 1 1.5 1.2 1.5 1.3 1.4 1.4 1.3 1.4 1.2 1.4.9 1.3.7 1.2.4 1 .3h.8l.6-.1.4-.3v-.7l-.1-.5-.4-.6-.6-.6-.5-.5-.7-.6-.6-.5-.6-.4-.5-.3-.5-.1h-.7l-.4.8v.6l.2.8.2.9.4 1 .4 1 .6 1 .6 1.1.6 1 .7 1 .7.8.7.7.6.6.5.4.5.2.5.3-.1.5-.5.4-.4.5-.2.4-.2.4v.6l-.2.6v2.6l.1 1V340.5l-.3 1.4-.3 1.5-.4 1.4-.6 1.3-.7 1.2-.8 1.1-1 1.1-1 1-1.2.9-1.3.8-1.4.8-1.4.7-1.5.7-1.5.7-1.6.6-1.6.7-1.5.8-1.6.8-1.6.8-1.6 1-1.5 1-1.5 1-1.5 1-1.4 1-1.3 1-1.2 1-1.1 1-1 .8-1 .7-.7.6-.7.6-.6.4-.5.4-.4.4-.4.3-.5.3-.4.3-.4.2-.5.1-.5.3-.5.3-.5.5-.6.4-.4.5-.5.5-.6.4-.6.5-.3.2-.4.3-.4.2-.4.2-.4.3-.4.2-.4.2-.4.2-.4.1-.3.2-.7.3-.7.3-.6.3-.5.2h-.4l-.4-.4-.4-.7-.3-.3-.2-.3-.6-.5-.6-.3h-2.4l-.6-.1-.7-.2-.8-.1-.7-.2-.8-.2-.7-.4-.3-.3-.4-.3-.3-.4-.3-.6-.4-.5-.3-.7-.4-.6-.4-.7-.3-.7-.4-.6-.3-.5-.3-.4-.2-.4-.3-.4.3.7.3.5.3.6.5.7.5.7.6.8.7.8.7.8.7.8.7.7.7.7.7.5.6.5.6.4.6.4.5.2.5.1.4.1H256.9l.4-.2.4-.1.4.2.3.2-.5.1-.7-.3-.4-.2-.5-.3-.5-.4-.6-.5-.7-.6-.7-.6-.7-.6-.7-.7-.6-.7-.7-.8-.7-.8-.6-.9-.6-1-.5-1-.5-1-.5-1-.4-1.1-.4-1.1-.3-1.1-.4-1.1-.3-1-.3-1-.3-1-.3-.8-.3-.8-.3-.8-.3-.8-.2-.8-.3-.8-.3-.7-.2-.8-.2-.7-.3-.7-.1-.7-.2-.7-.1-.6-.1-.7-.2-.6v-.5l-.1-.6-.1-.5v-.5l-.1-.4v-.9l-.2-.7v-.6l-.1-.6-.1-.4-.1-.5-.1-.5-.4.5V344.3l.2 1 .2 1 .2 1 .3 1.2.4 1.2.4 1.3.5 1.3.4 1.3.4 1.2.4 1 .4 1 .3 1 .3.6.2.5.2.4.3.6.3.3-.1.5-.2.4-.2.5v.5l-.2.5v.4l-.2.4v.4l-.2.5-.3.4-.3.3-.3.3-.5-.3-.2-.7-.2-.5-.2-.6-.2-.6-.3-.8-.3-.8-.2-.8-.3-.8-.3-.8-.3-.7-.3-.7-.2-.8-.3-.7-.2-.8-.1-.7-.2-.8-.1-.7-.1-.8-.1-.7-.2-1.5-.1-.8-.1-.7-.1-.8-.1-.7v-.7l-.2-.7v-.6l-.1-.5v-.5l-.1-.6-.1-.5v-.4l-.1-.5v-.5l-.1-.4-.1-.7-.1-.4-.3.5-.1.7-.1.6v.6l-.1.7v3.7l.2 1.2.3 1.2.2 1.3.4 1.3.4 1.3.4 1.4.6 1.4.5 1.4.6 1.5.6 1.4.7 1.5.6 1.4.7 1.3.6 1.3.6 1.1.6 1 .6 1 .5.7.5.7.5.6.4.5.4.5.3.4.3.4.3.4.3.3.3.4.4.5.4.4.4.4.3.4.2.5.3.5.2.4.1.4-.2-.5-.2-.5-.3-.8-.3-1-.5-1.2-.6-1.5-.6-1.8-.9-2-.8-2-1-2.2-1-2.2-1-2-.9-2-.9-1.8-.7-1.7-.7-1.5-.6-1.3-.5-1.2-.4-1-.3-1-.2-1-.1-.8v-2.2l.2-.7.1-.7.2-.6.2-.7.3-.6.2-.6.4-.6.3-.7.4-.6.4-.6.5-.7.5-.7.6-.6.6-.8.7-.7.7-.8.8-.9.8-.9.7-.8.8-1 .7-.8.6-.9.6-.8.5-.8.5-.8.5-.7.4-.8.4-.7.4-.7.4-.7.4-.6.3-.6.4-.6.3-.6.3-.5.3-.5.3-.5.2-.5.3-.5.2-.5.2-.5.2-.4.2-.5.1-.4.3-.6v-1h-.5l-1 .2-.6.4-1 .6-1 .9-1.4 1-1.5 1.2-1.5 1.4-1.6 1.4-1.5 1.4-1.4 1.3-1.2 1.2-1 1-1 .8-.5.7-.5.4.7-.4.7-.6.9-.7 1-1 1.3-1 1.8-1.4 1.8-1.5 1.8-1.7 1.8-1.7 1.3-1.3 1.1-1.2.9-1 .7-1 .5-.6.3-.5.3-.4-.7.2-.6.3-.7.4-.8.5-1 .5-.8.6-1 .6-.9.5-.8.6-.7.5-.7.4-.5.3-.4.3-.4.2.6-.5.5-.5.6-.6.8-.7.7-.7.8-.8.7-.9.7-.7.5-.7.4-.6.2-.4-.7.1-.7.5-.8.7-.9.8-1 .8-1.1 1-1.1.9-1.2.9-1 .8-1.1.8-.9.7-.7.5-.5.4-.4.3.3-.3.5-.4.6-.6.8-.7 1-.7 1-.8 1.2-1 1.2-.8 1-1 1-.8 1-.7.5-.6.5-.4.4-.3-.4.4-.3.4-.5.5-.7.6-.8.7-.8.6-1 .6-1 .7-.9.6-.9.6-.8.5-.7.4-.6.4-.4.3.7-.3.8-.4.9-.6 1-.6 1.2-.7 1.2-.8 1.3-.9 1.4-.9 1.2-1 1.2-.9 1-.8.9-.7.6-.6.5-.4.3-.5-.6.2-.6.4-.9.4-1 .6-1.2.6-1.3.7-1.4.7-1.4.8-1.4.7-1.4.7-1.3.6-1.2.5-1 .4-.8.3-.6.2h-.4l.1-.6.5-.4.8-.5 1-.6 1.2-.7 1.3-.8 1.5-.8 1.5-.9 1.4-1 1.4-.8 1.1-.8 1-.7.7-.5.4-.3-.2.5-.5.5-.9.7-1 .8-1.2.8-1.3.9-1.5.8-1.4.9-1.5.8-1.4.7-1.4.8-1.3.6-1.1.6-1 .6-1 .4-.8.4-.7.4-.6.3-.4.2-.4.2-.6.4-.4.3-.4.4-.2.5-.3.4-.2.3-.2.4-.4.5-.4.5-.4.6-.5.5-.3.3-.4.4-.3.3.5-.1.4-.2.5-.1h.4l.5-.1.6-.4.4-.2.4-.4.4-.3.5-.4.6-.4.5-.2.6-.2.7-.1h1.1" style="mix-blend-mode:normal" transform="translate(-97 -214)"/></g><path fill="#fff" fill-rule="evenodd" d="M70 241.7c11.2 2.2-2.7-.7 4.8 1.2h.7c.2.1.3.5.6.6.5.3 1.3-.2 1.8 0 .3.1.3.5.6.6.4.2.9-.1 1.2 0 .3.1.5.4.7.6l2.4.7c.8 0 1.7-.2 2.5 0l3 .6h28.9c.6 0 1.2.4 1.8.6h6.8c.4.1.7.5 1.2.6h17.7c.5-.1.9-.5 1.3-.6 1-.3 2.6.3 3.7 0l1.2-.6h1.2c.5-.1.8-.5 1.3-.6h1.2l1.8-.7c.8-.2 1.7-.3 2.5-.6l1.8-.6c.8-.2 1.7-.3 2.5-.6l2.4-1.2c1-1.4 2.5-.3 3.7-.6l1.2-.6h.6c.5-.3 1.4-1.5 1.9-1.9 3-2.2.7-.4 3-1.8l1.9-1.3.6-.6 1.8-.6 1.3-.6c3-1.2.8 0 4.3-1.2 2-.7.5-.8 3-1.2h1.9c.6-.2 1.2-.6 1.8-.7.6 0 1.3.2 1.9 0 .4 0 .8-.4 1.2-.6l1.8-.6c1.3-.5 2.4-1.3 3.7-1.8l1.8-.6 1.3-.7c.4 0 .8.2 1.2 0 .3 0 .4-.4.6-.6.4-.2.9-.3 1.2-.6.3-.1.4-.4.6-.6l1.3-.6c.2-.2.3-.5.6-.6l1.8-.6c1-.4 2-1 3.1-1.3.8-.2 1.7-.3 2.4-.6.9-.3 1.7-.8 2.5-1.2l1.2-.6.6-.6c.4-.2.9.2 1.3 0 .2-.1 0-.4 0-.6.4-.2.7-.6 1.2-.7.6 0 1.2.2 1.8 0 .3 0 3.4-1.6 3.7-1.8l.6-.6c.6-.3 1.3-.4 1.9-.6l1.2-.6h1.2c.3-.1.4-.5.6-.6h.7l.6-.7 1.2-.6c.5-.3.7-1 1.2-1.2h1.2c.3 0 .4-.5.7-.6.3-.3.8-.4 1.2-.6.2-.2.3-.6.6-.6.4-.2.8 0 1.2 0 .6-.2.7-1 1.3-1.3h.6c.4-.3.7-1 1.2-1.2.4-.2.8.1 1.2 0 .3 0 .4-.5.6-.6.4-.3.8-.5 1.3-.6l1.8-.6c1.7-.8 3.2-1.8 5-2.5.7-.3 1.6-.3 2.4-.6.6-.3 1.1-.9 1.8-1.2l1.8-.6c.3-.2.4-.6.7-.7.3 0 .8.2 1.2 0 .3 0 .3-.4.6-.6h.6c.5-.2.7-1 1.2-1.2.4-.1.9.2 1.3 0 .1 0-.2-.5 0-.6.3-.3.8.2 1.2 0l.6-.6 2.5-1.3c.6-.3 1.1-.9 1.8-1.2.4-.1.8.2 1.2 0 .6-.2.7-1 1.2-1.2h.7c.2-.1.2-.6 0-.6s-.1.4 0 .6c0 .3.5.3.6.6v1.2c.2.9.3 1.7.6 2.5.3.7.8 1.2 1.2 1.8.2.3.6.4.6.6.2.6-.1 1.3 0 1.9.1.3.5.3.6.6l.7 1.8c1.4 2.8-.3-2.6 1.2 1.9v.6c.7 1.5.6-.2.6 1.2v23.9c0 .9.2 1.7 0 2.5l-.6 1.8v1.3l-.6 1.2-.6 1.2-.7.6c-.2.4-.3.9-.6 1.3-.3.5-1.5 1.2-1.8 1.8v.6c-.1.3-.4.4-.6.6-.8.8-1.8 1.6-2.5 2.5-.3.3-.3.8-.6 1.2-.3.5-.9.8-1.2 1.2-1.4 1.8.3.9-1.9 2.5-.3.3-.9.3-1.2.6l-1.2 2.4c-.3.5-1 .8-1.2 1.3-1.4.3-.4 1.2-.7 1.8 0 .3-.4.4-.6.6v.6c-.1.3-.4.4-.6.7v.6c-.1.2-.5.3-.6.6v1.2c0 .3-.4.4-.6.6-2.2 4.5.6-1-1.2 1.9-.3.3-.5.8-.6 1.2v.6h-.7c-.2.1-.3.5-.6.6-.4.3-.9.3-1.2.6-.3.4-.3 1-.6 1.3-.5.5-1.2.8-1.9 1.2-.3.2-.9.3-1.2.6-.3.3-.3.8-.6 1.2-.5.7-1.4 1.2-1.8 1.9l-1.3 2.4c-.1.2-.5-.2-.6 0-.2.4.2.9 0 1.2-.2.6-.9.8-1.2 1.3-2.2 4.4.6-1-1.2 1.8l-.6 1.2c-.5.7-1.4 1.2-1.9 1.9-.2.4-.3.9-.6 1.2-.5.5-1.3.7-1.8 1.2-.4.4-.3 1-.6 1.3-.4.3-1 .2-1.3.6s-.3.9-.6 1.2-.8.4-1.2.6l-.6.6c-.8.5-1.7.7-2.5 1.3-.2.1-.3.5-.6.6-.4 0-.9-.2-1.2 0-.5.2-.7 1-1.2 1.2-.4.2-1-.2-1.3 0-.5.3-.7 1-1.2 1.2-.4.2-.8-.1-1.2 0-.6.2-.7 1-1.3 1.2-.3.2-.8 0-1.2 0-.5.2-.7 1-1.2 1.3h-.6c-.4.1-2.3 2.3-2.5 2.4-1.8 1.8-4.1 2.8-6.1 4.3l-.6.6-.6.6v.7c-.3.2-.9-.2-1.3 0-.5.2-.7 1-1.2 1.2-.6.3-1.3.3-1.8.6s-.7 1-1.3 1.2c-.3.2-.8-.1-1.2 0-.3.1-.4.5-.6.6l-1.2.7c-.3.1-.4.4-.6.6h-.7l-.6.6-1.2.6c-.5.3-.8.8-1.2 1.2l-.6.6v.6h-.6v.7c-.1.2-.5-.1-.7 0-.2 0-.4.4-.6.6-.5.5-1.3 1.5-1.8 1.8-2.7 1.8.2-.3-2.5.6l-.6.6-1.2.7h-3.7c-.8 0-1.6-.2-2.4 0-.7 0-1.2.5-1.9.6-1 .1-2-.3-3 0-1.2-.4-1.2 1-1.9 1.2h-1.2c-.3 0-.4.5-.6.6h-1.3c-.4.1-.7.5-1.2.6H178l-1.8.6-2.5.6-1.2.7-3.7 1.8-1.2.6h-1.3c-.2.1-.3.5-.6.6h-.6c-.2.2-.3.5-.6.6H162.6c-.3.1-.4.6-.7.7-1 .2-2.6-.3-3.6 0-.5 0-.8.5-1.3.6h-1.8c-.8 0-1.6.4-2.5.6h-1.2c-.4 0-.8.5-1.2.6h-1.9l-1.8.6-2.4.6h-1.9l-.6.6h-1.2c-.2.1.2.6 0 .6-.6.2-1.3 0-1.9 0l-3 .7c-3.9 1 2 .2-3.1 1.2-.8.2-1.6 0-2.5 0H117.8c-.3-.1-.4-.5-.6-.6h-1.9l-.6-.6-1.8-.7c-.8-.1-1.7.2-2.5 0-1 .4-1.1-1-1.8-1.2-.4-.1-.9.2-1.2 0-.3 0-.4-.5-.7-.6h-1.2c-.3 0-.3-.5-.6-.6H96.3c-.2 0 .2.5 0 .6-.3.3-.9-.2-1.2 0-.3.1-.4.5-.6.6H92l-1.2-.6-.6-.6h-1.3c-.4-.2-1.8-2.2-2.4-2.5-.6-.2-1.3-.3-1.8-.6-.6-.2-.7-1-1.3-1.2h-1.2c-.9-.3-1.6-.8-2.5-1.2l-1.2-.6-.6-.7-1.2-.6c-.3-.1-.4-.4-.6-.6h-.6c-.3-.1-.4-.5-.7-.6h-.6c-.2-.1-.3-.5-.6-.6-.4-.2-1 .3-1.2 0-.2-.1.1-.5 0-.6-1.3-1.3 0 2-1.2-.6v-.6h-.7c-.5-.3-.7-1-1.2-1.3-.8-.4-.5.8-1.2-.6v-.6c-.3-.3-.9.2-1.2 0-.6-.3-1.3-1.5-1.9-1.8l-1.2-.7-.6-.6c-.4-.2-.9-.3-1.2-.6-.3-.1-.5-.4-.7-.6l-1.2-1.2c-.3-.4-.3-.9-.6-1.2l-.6-.7-1.8-1.8-.7-.6c-.2-.4-.3-.9-.6-1.2-.1-.3-.4-.4-.6-.7l-.6-1.2c-.2-.2-.5-.3-.6-.6-.1-.4.2-.9 0-1.2-.1-.2-.5.2-.6 0-.2-.4.1-.9 0-1.2-.1-.3-.6-.4-.6-.7-1.4-4.2 2.3 2.9-.7-3-.2-.5-1-.7-1.2-1.3v-7.3c0-.5-.5-.8-.6-1.2-.2-1 0-2 0-3.1v-1.2c-.1-.5-.5-.8-.6-1.3v-3.6c.1-.3.5-.4.6-.7v-.6c.1-.2.5.2.6 0s-.1-.4 0-.6.5.2.6 0c1.3-1.3-2 0 .6-1.2h.7c.2-.1-.1-.4 0-.6 0-.3.4-.4.6-.6l.6-.7c.6-.3.8.7 1.2-.6v-1.2c0-.2 2.4-2.4 2.5-2.4 0-.2-.2-.5 0-.7s.4.2.6 0 0-.4 0-.6c1.5-4.4-.2 1 1.2-1.8v-.6c.1-.3.5-.4.6-.6 1.5-2.3-.2-.5 1.2-1.9l.7-.6.6-.6v-.6c.3-.8 1.4-1.1 1.8-1.9a9 9 0 0 0 .6-1.8v-.6l.6-.6c.2-.3 0-1.7 0-1.9.2-.1.5.2.7 0s-.1-.4 0-.6c0-.2.5-.3.6-.6.1-.5-.2-3.3 0-3.7l.6-.6c.2-.4-.2-2 0-2.4.6-1.4 1.6-2.5 2.4-3.7z"/><g fill="none" stroke="#000" stroke-linecap="round" stroke-linejoin="round" stroke-miterlimit="10"><path stroke-width="5.7" d="m182.7 118.8-.7-1.8"/><path stroke-width="6.2" d="m182 117-2-.4"/><g stroke-width="7.7"><path d="m180 116.6-1.5.9M178.5 117.5l-1.4 1.5M177 119l-1.1 2M175.9 121l-.5 2.7M175.4 123.7l.5 3.2M176 127l.5 1.5M176.5 128.5l1 1.6M177.4 130.1l1.1 1.4M178.5 131.5l1.3 1.2M179.8 132.7l1.5.9M181.3 133.6l1.6.4M183 134h1.7M184.7 134l1.8-.6M186.5 133.4l1.7-1.1M188.2 132.2l1.7-1.6M189.9 130.6l1.4-2.2M191.3 128.4l1.2-2.4M192.5 126l1-2.5M193.5 123.5l.6-2.6M194 121l.4-2.6M194.4 118.4V116M194.4 116l-.3-2.2M194 113.8l-.5-2M193.5 111.8l-.9-1.7M192.6 110l-1-1.3M191.5 108.7l-2.7-1.4M188.8 107.3l-3.2.5M185.6 107.8l-1.7 1M183.9 108.7l-1.7 1.3M182.2 110l-1.5 1.6M180.7 111.6l-1.4 1.8M179.3 113.4l-1.2 2M178 115.4l-.9 2M177.1 117.3l-.6 2M176.5 119.2l-.4 1.8M176 121l.2 2.9M176.2 123.9l1.6 1.6M177.8 125.5l2.8.1M180.6 125.6l1.7-.6M182.3 125l1.6-1M183.9 124l1.5-1.4M185.4 122.6l1.4-1.6M186.8 121l1.1-1.6M188 119.4l.8-1.7M188.8 117.7l.6-1.5M189.4 116.2l.4-2.8M189.8 113.4l-.7-2.1M189 111.3l-1.5-1M187.5 110.2l-2.1.3M185.4 110.5l-2.1 1.5M183.3 112l-1.7 2.5M181.6 114.4l-1 2.8M180.5 117.2l-.3 2.4M180.2 119.6l.5 1.7M180.7 121.3l1.9 1M182.6 122.3l1.7-.9M184.3 121.4l-.1-2M184.2 119.5l-1.6-1M182.6 118.5l-2.2-.6M180.4 117.9l-2.4-.3M178 117.6h-2M176 117.6l-1.8.2M174.2 117.8l2-1.3M176.2 116.5l2-1.2M178.2 115.3l1.4-.8"/></g><path stroke-width="2.5" d="m179.6 114.5-1.7.7"/><path stroke-width=".5" d="m178 115.2-2.2.8"/><path stroke-width=".1" d="m175.8 116-3.6 1.2"/><path stroke-width="2.3" d="m51.3 83.1-1-1.6"/><path stroke-width="3" d="M50.4 81.5 48 81"/><path stroke-width="4.8" d="m48 81-2.4 1.4"/><path stroke-width="5.7" d="m45.6 82.4-1.2 1.2"/><path stroke-width="6.1" d="m44.4 83.6-1.2 1.6"/><path stroke-width="6.4" d="M43.2 85.2 42 87"/><path stroke-width="6.7" d="m42 87-.9 2"/><path stroke-width="7" d="m41.1 89-.7 2"/><path stroke-width="7.2" d="m40.4 91-.4 2"/><path stroke-width="7.4" d="m40 93-.1 1.8"/><path stroke-width="7.6" d="m39.9 94.8 1 2.9"/><g stroke-width="7.7"><path d="m40.8 97.7 2.5 1.5M43.3 99.2l1.7.2M45 99.4l2-.4M47 99l2-.9M49 98.1l1.9-1.4M50.9 96.7l2-1.8M52.8 94.9l1.8-2.4M54.6 92.5l1.5-2.8M56.1 89.7l1.4-3.2M57.5 86.5l1.1-3.3M58.6 83.2l1-3.4M59.5 79.8l.7-3.3M60.2 76.5l.3-3.2M60.5 73.3v-3M60.5 70.3l-.3-2.6M60.2 67.7l-.7-2.2M59.5 65.5l-.9-1.9M58.6 63.6l-1-1.4M57.5 62.2l-2.7-1.3M54.8 60.9l-3 1.3M51.8 62.2 50.2 64M50.2 64l-1.5 2.4M48.7 66.4l-1.4 3M47.3 69.4 46 72.8M46 72.8l-1 3.6M45 76.4l-.8 3.6M44.2 80l-.4 3.4M43.8 83.4l-.2 3.1M43.6 86.5l.1 2.8M43.8 89.3l.4 2.3M44.2 91.6l.9 2M45 93.5l1.2 1.4M46.2 94.9l1.5.8M47.7 95.7l1.7.1M49.4 95.8l2-.5M51.3 95.3l2-1.2M53.3 94l2-1.7M55.3 92.3l1.8-2.3M57.1 90l1.6-2.5M58.7 87.5l1.4-2.7M60 84.8l1-2.6M61 82.2l.8-2.6M61.8 79.6 62 77M62.1 77v-2.2M62.1 74.8l-.3-2M61.8 72.8 61 71M61.1 71l-1-1.5M60.2 69.5 59 68.3M59 68.3 56.4 67M56.4 67.1l-2.9.8M53.5 67.9 52.1 69M52 69l-1.3 1.8M50.7 70.7 49.3 73M49.3 73l-1.2 2.4M48.1 75.4l-1 2.7M47 78.1l-.8 2.7M46.2 80.8l-.7 2.7M45.5 83.4l-.4 2.5M45 85.9l-.2 2.2M44.8 88V90M44.8 89.9l.6 2.4M45.4 92.3l1.7.7M47.1 93l2.3-1.6M49.4 91.4l1.1-1.6M50.5 89.8l1-2M51.5 87.8l.8-2.2M52.3 85.6l.7-2.3M53 83.3l.4-2.2M53.4 81l.2-1.9M53.6 79.1v-1.7M53.6 77.4l-.9-2.6M52.7 74.8 51 73.5M51 73.5h-2.4M48.6 73.6l-2.4 1.7M46.2 75.3 45 76.8M45 76.7l-1 1.7M44 78.4l-1 1.8M43 80.2l-.7 1.7M42.3 82l-.5 1.5M41.8 83.5l-.5 2.4M41.3 85.9l1.3 1M42.6 87l1.4-1.5M44 85.5 45 83M45.1 83l.4-2.8M45.5 80.2 45 78M45 78l-1.4-1.3M43.6 76.7l-2.2-.2M41.4 76.5l-2.3.6M39 77.2l-1.8 1.2M37.2 78.4l-1.4 1.4M35.8 79.8l1.8-1.3M37.6 78.5l2.1-2.5M39.7 76l1.3-1.6M41 74.4l1.3-1.6M42.3 72.8l1.4-1.6M43.7 71.2l1.4-1.4"/></g><path stroke-width="6.3" d="m45 69.8 1.8-1.6"/><path stroke-width="2.9" d="m46.8 68.2-1 1.6"/><path stroke-width=".2" d="m45.8 69.8-3 5.8"/><path stroke-width="3.8" d="m77 163.7 1.7-.8"/><path stroke-width="5.1" d="m78.7 162.9-2.2-1"/><g stroke-width="7.7"><path d="M76.5 162H75M74.9 162l-2.1.4M72.8 162.4l-2.4.6M70.4 163l-2.7 1M67.7 164l-3 1.5M64.6 165.5l-3.3 1.8M61.3 167.3l-3.5 2.3M57.8 169.6l-3.7 2.8M54 172.4l-3.7 3.2M50.3 175.5l-3.9 3.7M46.4 179.2l-3.8 4M42.6 183.2l-3.7 4.5M38.9 187.7l-3.7 4.7M35.3 192.4l-3.5 4.9M31.8 197.3l-3.3 5M28.5 202.3l-3.1 4.9M25.4 207.2l-2.8 4.7M22.6 212l-2.4 4.4M20.2 216.4l-2 4M18.2 220.5l-1.7 3.7M16.5 224.2l-1.2 3.2M15.3 227.4l-.9 2.8M14.4 230.2l-.4 2.4M14 232.6l.2 2M14.2 234.7l.7 1.8M14.9 236.5l1.2 1.6M16.1 238.1l1.8 1.4M17.9 239.5l2.2 1.2M20.1 240.7l2.8.8M22.9 241.5l3.2.6M26 242l3.7.3M29.7 242.3l4.1-.2M33.8 242l4.6-.6M38.4 241.4l5-1M43.4 240.4l5.5-1.5M48.9 238.9l5.7-2M54.6 237l5.7-2.4M60.3 234.6 66 232M66 232l5.3-2.8M71.3 229.2l5-3M76.3 226.2l4.6-3M80.9 223.2l4-3M85 220.1l3.6-3.1M88.6 217l3-3.1M91.7 213.9l2.5-3M94.2 210.9l2-2.8M96.3 208.1l1.6-2.4M97.9 205.7l1.2-2.1M99.1 203.6l.9-1.7M100 202l1-2M101 200l-.3 1.7"/></g><path stroke-width="5" d="m100.7 201.7-1.4 2.3"/><path stroke-width="3.2" d="m99.3 204-2.4 3.2"/><path stroke-width="1.9" d="m96.9 207.2-3.6 3.9"/><path stroke-width=".9" d="m93.3 211-4.5 4.4"/><path stroke-width=".2" d="m88.8 215.4-14.1 11.2"/><path stroke-width="3.6" d="M289.4 84.7v1.7"/><path stroke-width="5" d="m289.5 86.4 1.8-.7"/><g stroke-width="7.7"><path d="m291.3 85.7.8-1.9M292.1 83.8l1-3.1M293.2 80.7l1.1-4.6M294.3 76l1-6.2M295.4 69.8l.9-7.7M296.3 62.1l.7-9M297 53.2l.6-9.8M297.6 43.4l.4-10.2M298 33.2l.3-10.3M298.3 23l.3-10.2M298.6 12.8l.3-10M298.9 2.9l.3-9.6"/></g><path stroke-width="2.5" d="m62.6 268.5-1.2-1.7"/><path stroke-width="3" d="m61.4 266.8-2-1.3"/><path stroke-width="4.6" d="m59.4 265.5-1.9.3"/><path stroke-width="5.7" d="m57.5 265.8-2.3 2"/><path stroke-width="6.7" d="m55.2 267.9-1.2 1.8"/><path stroke-width="7.2" d="m54 269.7-1.1 2.2"/><path stroke-width="7.7" d="m52.9 272-1 2.6"/><g stroke-width="7.7"><path d="m52 274.6-.7 3M51.3 277.5l-.4 3.2M50.9 280.7v3.5M50.8 284.2l.4 3.7M51.2 287.9l.7 4M52 291.8l1.2 4.1M53.2 295.9l1.7 4.2M54.9 300.1l2.3 4.2M57.2 304.3l2.8 4.3M60 308.6l3.5 4.1M63.5 312.7l4 4M67.5 316.8l4.5 3.8M194.3 319.6l7-3.1M201.3 316.4l7-3.5M208.4 312.9l7-4M215.4 308.8l7-4.5M222.3 304.3l6.7-5M229 299.4l6.5-5.3M235.5 294l6.1-5.5M241.6 288.5l5.7-5.7M247.3 282.8l5.1-5.7M252.4 277.1l4.7-5.6M257.1 271.5l4.2-5.4M261.4 266.1l3.7-5.3M265 260.8l3.4-5M268.4 255.7l2.8-5M271.2 250.8l2.5-4.8M273.7 246l2.2-4.5M275.9 241.5l1.8-4.3M277.7 237.2l1.4-4M279.1 233.2l1.2-3.7M280.3 229.5l.8-3.4M281.1 226l.7-3.1M281.8 222.9l.4-3M282.2 219.9l.3-2.7M282.5 217.2v-2.5M282.6 214.7v-2.3M282.5 212.4v-2.2M282.4 210.2l-.1-2M282.3 208.2l-.2-2M282.1 206.2l-.2-1.8M282 204.4l-.3-1.6M281.7 202.7l-.3-1.6M281.4 201.1l-.4-3M281 198.1l-.2-2.6M280.8 195.5v-2M280.8 193.5v-2.3M280.7 191.2l-.3-1.8M280.4 189.4l-.3-1.7M280 187.7l-1.5-.6M278.5 187.1l-1.7 1.3M276.8 188.4l-1.5 1.4M275.3 189.8l-2 1.9M273.3 191.7l-1.3 1.1M272 192.8l-1.4 1.3M270.6 194.1l-1.6 1.4M269 195.5l-2 1.6M267 197.1l-2.2 1.8M264.8 198.9l-2.6 2M262.2 200.8l-3 2.1M259.2 203l-3.3 2.2M255.9 205.2l-3.7 2.2M252.2 207.4l-4 2.3M248.2 209.7l-4.4 2.3M243.8 212l-4.7 2.2M239.1 214.2l-5 2M234.2 216.2l-5.3 2M229 218.2l-5.5 2M223.5 220.2l-5.6 1.9M218 222.1l-5.8 1.9M212.2 224l-5.7 1.8M206.5 225.8l-5.7 2M200.8 227.7l-5.6 2M195.2 229.6l-5.5 2M189.7 231.6l-5.3 2M184.4 233.6l-5.1 2M179.3 235.6l-5 2M174.3 237.5l-5 1.9M169.3 239.4l-4.8 1.7M164.5 241l-4.8 1.6M159.7 242.6l-4.8 1.5M154.9 244l-4.8 1.4M150 245.4l-4.7 1.2M145.3 246.6l-4.6 1M140.7 247.7l-4.5 1M136.2 248.6l-4.5.8M131.7 249.4l-4.4.6M127.3 250l-4.4.4M122.9 250.4l-4.4.1M118.5 250.5H114M114.1 250.5l-4.2-.2M109.9 250.3l-4.2-.4M105.7 250l-3.9-.6M101.8 249.4l-3.7-.7M98 248.7l-3.4-.6M94.6 248l-3.4-.6M91.3 247.4l-3.1-.7M88.2 246.7l-2.9-.6M85.3 246.1l-2.6-.6M82.7 245.5l-2.4-.6M80.3 244.9l-2.1-.6M78.2 244.2l-2-.6M76.2 243.6l-1.7-.6M74.5 243l-1.6-.6M73 242.4l-2.6-1.2M70.4 241.2l-2-1.2M68.5 240l-1.6-1M67 238.9l-2-1.1M65 237.8l-1.7-.6M63.3 237.2l-1.6.2M61.7 237.4l-1.4 1.2M60.3 238.6l-.3.6"/></g><path stroke-width="4.2" d="M90 252.6h-1.3"/><path stroke-width="6.9" d="m88.7 252.7-2 2.5"/><g stroke-width="7.7"><path d="m86.7 255.2-1.4 2.5M85.3 257.7l-1.6 3.5M83.7 261.2l-1.8 4.5M81.9 265.7l-2 5.6M79.9 271.3l-2.2 6.5M77.7 277.8l-2.2 7M75.5 284.7l-2.2 7.3M73.4 292l-2.2 7M71.3 299l-2 6.7M69.3 305.7l-1.8 6M67.5 311.6l-1.6 5M66 316.7l-1.4 4.1"/></g><path stroke-width="3.3" d="m116.7 246.5 1.9-1.4"/><path stroke-width="4.4" d="m118.6 245.2.7 1.5"/><path stroke-width="7.2" d="m119.3 246.7-.2 2"/><g stroke-width="7.7"><path d="m119.1 248.7-.3 3M118.8 251.7l-.5 4.1M118.3 255.8l-.7 5.4M117.6 261.2l-.8 6.4M116.8 267.6l-.9 7.1M116 274.7l-1 7.7M115 282.4l-1.1 7.7M113.9 290.1l-1 7.6M112.9 297.7l-1.1 7M111.8 304.7l-1 6.3M110.8 311l-.9 5.4M110 316.4l-.8 4.5"/></g><path stroke-width="3" d="m158.5 241.8 1 2.7"/><path stroke-width="4.1" d="M159.5 244.5v2.3"/><path stroke-width="5.3" d="m159.6 246.8-.2 3"/><path stroke-width="6.3" d="m159.4 249.9-.4 3.8"/><path stroke-width="7.1" d="m159 253.7-.5 4.6"/><g stroke-width="7.7"><path d="m158.5 258.3-.8 5.3M157.7 263.6l-.9 6M156.8 269.5l-1 6.6M155.7 276l-1.2 7.1M154.5 283.1l-1.2 7.3M153.3 290.4l-1.2 7.2M152 297.6l-1.1 7M150.9 304.6l-1 6.4M149.8 311l-.8 5.7M149 316.8l-.7 4.8"/></g><path stroke-width=".3" d="m171.4 294.4.3-1.1"/><path stroke-width="2.8" d="m191.5 252.2.6 3.2"/><path stroke-width="4.1" d="m192 255.4.3 2.5"/><path stroke-width="5.5" d="M192.3 258v3"/><path stroke-width="6.8" d="m192.2 261-.3 3.5"/><g stroke-width="7.7"><path d="m192 264.5-.5 4M191.5 268.5l-.7 4.4M190.8 272.9l-.7 4.8M190 277.7l-.8 5.2M189.2 283l-.9 5.5M188.3 288.5l-.9 5.7M187.4 294.2l-.9 5.6M186.5 299.8l-.8 5.4M185.7 305.2l-.7 5M185 310.1l-.6 4.4M184.4 314.5l-.4 3.8"/></g><path stroke-width="3.4" d="m194.9 316.3 1.4-2.4"/><path stroke-width=".4" d="m206 290.4.7-2"/><path stroke-width="3.9" d="m233.8 230.5 2 1"/><path stroke-width="5.2" d="m235.7 231.4.7 3"/><path stroke-width="7.1" d="m236.4 234.3-.1 2.3"/><g stroke-width="7.7"><path d="m236.3 236.6-.3 2.8M236 239.4l-.5 3.3M235.5 242.7l-.6 3.8M234.9 246.5l-.6 4.2M234.3 250.7l-.6 4.7M233.7 255.4l-.4 5M233.3 260.4l-.3 5.2M233 265.6l-.2 5.4M232.8 271l-.2 5.3M232.6 276.3v5.3M232.6 281.6v5M232.5 286.6v4.8M232.5 291.4v4.4M232.5 295.8v3.8M232.6 299.6v3M232.6 302.7l.1 2.4M232.7 305l.2 1.8M232.9 306.8l.4 2M233.3 308.8l1.6-1.5"/></g><path stroke-width="7.4" d="m234.9 307.3.7-1.5"/><path stroke-width="4" d="m235.7 305.8.7-1.6M236.4 304.2l.9-2"/><path stroke-width="2.7" d="m237.3 302.3.6-2.2"/><path stroke-width="1.6" d="m238 300 .3-2.4"/><path stroke-width=".7" d="M238.3 297.6v-2.8"/><path stroke-width=".2" d="m238.2 294.8-1.5-7.8"/><path stroke-width="5.6" d="m59.4 285.4.7 1.5"/><path stroke-width="6.3" d="m60 287 2.4.5"/><g stroke-width="7.7"><path d="m62.4 287.5 2.2.3M64.6 287.8l3.5.4M68.1 288.2l2.2.3M70.3 288.5l2.6.4M72.9 288.9l2.8.3M75.7 289.2l3.2.3M78.9 289.5l3.5.2M82.4 289.7l3.7.2M86.1 289.9l4 .1M90.1 290h4.2M94.3 290l4.4.2M98.7 290.2h4.4M103.1 290.2h4.6M107.7 290.3h4.5M112.2 290.3l4.7-.1M116.9 290.2l4.6-.2M121.5 290l4.6-.2M126.1 289.8l4.6-.3M130.7 289.5l4.6-.4M135.3 289.1l4.4-.3M139.7 288.8l4.3-.2M144 288.6l4.1-.2M148.1 288.4h4M152 288.4l3.7.2M155.7 288.6l3.5.2M159.2 288.9l3.2.4M162.4 289.3l3 .5M165.4 289.8l2.9.6M168.3 290.4l2.7.6M171 291l2.6.6M173.6 291.6l2.5.5M176.1 292.1l2.5.5M178.6 292.6l2.5.4M181.1 293l2.5.3M183.6 293.3l2.4.2M186 293.5h2.3M188.3 293.5h2.3M190.6 293.4l2.3-.3M192.9 293.1l2.2-.5M195 292.6l2.3-.7M197.3 291.9l2.2-1M199.5 291l2.3-1.2M201.8 289.8l2.2-1.2M204 288.6l2.3-1.5M206.3 287.1l2.3-1.5M208.6 285.6l2.3-1.5M211 284l2.2-1.5M213.2 282.5l2.3-1.6M215.5 281l2.2-1.6M217.7 279.4l2.1-1.4M219.8 278l2.1-1.5M222 276.5l2-1.3M224 275.2l1.9-1.3M225.9 273.9l1.9-1.3M227.8 272.6l1.8-1.3M229.6 271.3l1.9-1.3M231.5 270l1.8-1.3M233.3 268.7l1.7-1.3M235 267.4l1.6-1.4M236.6 266l1.6-1.3M238.2 264.7l1.5-1.2M239.7 263.5l1.5-1.2M241.2 262.3l1.4-1.1M242.6 261.2l1.4-1.1M244 260l1.3-1M245.3 259l1.3-1M246.6 258l2.6-2M249.2 256l1.2-1M250.4 255l1.3-1.2M251.7 253.8l1.2-1.2M253 252.6l1-1.4M254 251.2l1.1-1.4M255.1 249.8l1-1.4M256.2 248.4l1-1.4M257.1 247l1.9-2.4M259 244.6l1.6-1.8M260.6 242.8l1.2-1.4M261.8 241.4l1.3-1.4M263.1 240l1.7-.8M264.8 239.2l1.7-.2"/></g><path stroke-width="5" d="m266.5 239 .5 2.5"/><path stroke-width="1.5" d="m267 241.5-.4 2.3"/><path stroke-width=".7" d="m266.6 243.8-1 2.7"/><path stroke-width=".2" d="m265.6 246.5-4.6 8.2"/><g stroke-width="7.7"><path d="m318.9 183.7-1.2 1.6M317.7 185.3l-1 1.7M316.6 187l-1 1.9M315.6 188.9l-.9 1.8M314.7 190.7l-.7 1.8M314 192.5l-.7 1.8M313.3 194.3l-.6 1.6M312.7 195.9l-.8 2.6M312 198.5l-.5 2M311.5 200.5l-.3 1.8M311.2 202.3l1.7-.2M312.9 202.1l1.8-2.4M314.7 199.7l1.1-1.6M315.8 198l1.1-1.7"/></g><path stroke-width="6.9" d="m317 196.3 1-1.8"/><g stroke-width="7.7"><path d="m74.5-4.2.2 3M74.7-1.3l.1 2.2M74.8 1v1.6M74.9 2.6l-.2 2.2M74.7 4.8l-1 1.7M73.8 6.5 72 7.6M72 7.6l-2 1M70 8.7l-1.7.5M68.3 9.2l.1-2.1"/></g><path stroke-width="2.7" d="m68.4 7 1.3-2.8"/><path stroke-width="1.3" d="m69.7 4.3.6-2.3"/><path stroke-width=".7" d="m70.3 2 .4-2.8"/><path stroke-width="4.7" d="m76-2-.8 1.6"/><path stroke-width="5" d="m75.2-.4-1.4 1.7"/><path stroke-width="5.4" d="m73.8 1.3-2 2.2"/><path stroke-width="5.7" d="m71.8 3.5-1.1 1.2"/><path stroke-width="5.9" d="M70.7 4.7 69.5 6"/><path stroke-width="6" d="m69.5 6-1.2 1"/><path stroke-width="6.1" d="M68.3 7 66 9"/><path stroke-width="6.4" d="m66 9-1.6 1.6"/><path stroke-width="6.8" d="m64.4 10.6-1.1 1.2"/><path stroke-width="7.1" d="M63.3 11.8 62 13.5"/><path stroke-width="7.5" d="m62 13.5-.9 2"/><g stroke-width="7.7"><path d="m61.1 15.4-.7 2.3M60.4 17.7l-.4 1.6M60 19.3l-.2 1.7M59.8 21v1.7M59.7 22.7v1.7M59.7 24.4l.1 1.7M59.8 26.1l1.3-1.7"/></g><path stroke-width="4.2" d="m61.2 24.4.6-1.7"/><path stroke-width="2.1" d="m61.8 22.7-.2-2.2"/><path stroke-width=".5" d="m61.6 20.5-3-4.9"/><path stroke-width="2.7" d="M98.4 96.5 97 97.6"/><path stroke-width="3.2" d="m97 97.6 1.5 1.4"/><g stroke-width="7.7"><path d="m98.5 99 1.6 1.6M100 100.6l2 2M102 102.5l1.9 2M103.9 104.4l2.2 1.7M106 106l2.5 1.5M108.5 107.5l2.8 1.2M111.3 108.7l3.1 1M114.4 109.7l1.6.5M116 110.2l1.6.4M117.6 110.6l3 .7M120.6 111.3l2.3.6M123 111.9l1.7.4M124.8 112.3l-1.2-2"/></g><path stroke-width="1.4" d="m123.6 110.3-1.4-.9"/><path stroke-width=".6" d="m122.2 109.4-1.8-.9"/><path stroke-width=".1" d="m120.4 108.5-5.8-1.8"/><g stroke-width="7.7"><path d="m283.6 319.3 1.1-4.8M284.7 314.5l1.1-4.7M285.8 309.8l1-4.5M286.8 305.3l1-4.3M287.7 301l1-4.2M288.6 296.9l.9-4M289.5 292.8l.8-3.8M290.3 289l.9-3.7M291.2 285.3l.9-3.6M292 281.7l.9-3.3M292.9 278.4l.8-3M293.7 275.3l.8-2.9M294.4 272.4l.7-2.7M295.1 269.7l.6-2.7M295.7 267l.5-2.6M296.2 264.4l.5-2.7M296.7 261.7l.4-2.7M297.1 259l.4-2.8M297.5 256.2l.5-2.8M298 253.4l.4-2.8M298.4 250.6l.6-2.9M299 247.7l.5-2.8M299.5 244.9l.6-2.8M300.1 242l.7-2.7M300.9 239.3l.7-2.7M301.6 236.7l.9-2.6M302.5 234.1l.8-2.3M303.3 231.8l.9-2.2M304.2 229.6l.8-2M305 227.6l.8-2M305.8 225.7l.7-1.8M306.5 224l.6-1.6M307.1 222.4l1-2.6M308 219.8l.6-2M308.6 217.9l.4-2.1M309 215.8l.8-1.8"/></g><path stroke-width="6.6" d="M309.8 214v2.6"/><path stroke-width="1.1" d="m309.9 216.6-.6 2.4"/><path stroke-width=".4" d="m309.3 219-2.7 8.4"/><path stroke-width="3" d="m229.5 115.2 1.8-.2"/><path stroke-width="3.8" d="m231.3 115 1.6-1.3"/><path stroke-width="5.9" d="m233 113.7 1-1.3"/><path stroke-width="7" d="m234 112.4 1.3-1.4"/><g stroke-width="7.7"><path d="m235.3 111 1.3-1.5M236.6 109.5l1.7-1.7M238.3 107.8l2.4-1.8M240.7 106l1.5-.8M242.2 105.2l1.7-1M243.9 104.2l1.8-1M245.7 103.3l2-1.1M247.8 102.2l2.2-1.2M250 101l2.4-1.2M252.4 99.8l2.6-1.1M255 98.7l2.7-1M257.7 97.6l2.8-.9M260.5 96.7l2.9-.8M263.4 95.9l2.9-.8M266.3 95.1l2.9-.7M269.2 94.4l2.9-.7M272.1 93.7l3-.6M275 93.1l3-.6M278 92.5l2.8-.6M280.8 91.9l2.8-.8M283.6 91.2l2.8-.8M286.4 90.4l2.7-.6M289.1 89.8l2.7-.7M291.8 89l2.5-.6M294.3 88.4l2.4-.7M296.7 87.7l2.4-.7M299 87l2.3-.6M301.3 86.4l2.1-.6M303.4 85.8l2-.5M305.4 85.3l2-.5M307.3 84.8l1.8-.4M309.1 84.4l1.7-.2M310.8 84.2l2.8-.4M313.6 83.8l2.4-.2M316 83.6l2.2-.1"/></g><path stroke-width=".1" d="m300 65.7-3.2-1.1"/><path stroke-width="3" d="m31.5 60-.1-1.7"/><path stroke-width="3.4" d="m31.4 58.3-.9-2.4"/><path stroke-width="4.1" d="m30.5 55.9-.6-1.6"/><path stroke-width="4.4" d="m30 54.3-.8-1.7"/><path stroke-width="4.7" d="m29.2 52.6-.8-2"/><path stroke-width="4.9" d="m28.4 50.6-.9-2"/><path stroke-width="5.1" d="m27.5 48.5-1-2.2"/><path stroke-width="5.3" d="M26.5 46.3 25.3 44"/><path stroke-width="5.4" d="M25.3 44 24 41.6"/><path stroke-width="5.5" d="M24 41.6 22.6 39"/><path stroke-width="5.6" d="M22.6 39 21 36.3"/><path stroke-width="5.7" d="m21 36.3-1.8-2.9"/><path stroke-width="5.8" d="m19.2 33.4-2-3"/><path stroke-width="5.9" d="m17.2 30.4-2.4-3.1"/><path stroke-width="6" d="m14.8 27.3-2.5-3"/><path stroke-width="6.1" d="m12.3 24.2-2.7-2.9"/><path stroke-width="6.2" d="m9.6 21.3-2.8-2.6"/><path stroke-width="6.3" d="m6.8 18.7-2.7-2.4"/><path stroke-width="6.4" d="m4.1 16.3-2.6-2.1"/><path stroke-width="6.6" d="m1.5 14.2-2.6-1.9"/><path stroke-width="1.1" d="m198 186 1.1-1.7"/><path stroke-width=".6" d="m199.1 184.3 1.5-1.9"/><path stroke-width=".3" d="m200.6 182.4 1.8-2.2"/><path stroke-width=".1" d="m202.4 180.2 5.4-6.5"/><path stroke-width="4.5" d="m219.4 153.5-.2 2"/><path stroke-width="4.6" d="m219.2 155.4-.7 2.2"/><path stroke-width="4.9" d="m218.5 157.6-.8 1.9"/><path stroke-width="5" d="m217.7 159.5-1 2.2M216.7 161.7l-1.3 2.5M215.4 164.2l-1.5 2.6"/><g stroke-width="5"><path d="m213.9 166.8-.9 1.4M213 168.2l-1 1.4M212 169.6l-1 1.5"/></g><path stroke-width="5" d="m211 171-1 1.6M210 172.5l-1.1 1.5M208.9 174l-1.2 1.5M207.7 175.5l-1.2 1.5"/><path stroke-width="5.1" d="m206.5 177-1.2 1.4M205.3 178.4l-1.2 1.4"/><g stroke-width="5.1"><path d="M204 179.7 203 181M202.9 181l-1.3 1.3M201.6 182.3l-1.2 1.1M200.4 183.4l-1.2 1.1"/></g><g stroke-width="5.1"><path d="m199.2 184.5-2.6 2M196.6 186.5l-1.4 1M195.2 187.4l-1.4 1M193.8 188.3l-1.5.9M192.3 189.2l-1.5.8"/></g><path stroke-width="5.1" d="m190.8 190-1.6 1M189.2 191l-1.6.8"/><g stroke-width="5.1"><path d="m187.6 191.8-1.7 1M185.9 192.7l-1.7.9M184.2 193.6l-1.8.8M182.4 194.4l-1.8.7M180.6 195l-1.8.6"/></g><path stroke-width="5.1" d="m178.8 195.6-1.8.5M177 196.1l-1.6.4M175.4 196.5l-1.7.3M173.8 196.8l-3.2.3M170.6 197.1h-3M167.5 197l-3-.2M164.5 196.8l-2.9-.2M161.6 196.6l-2.7-.4M158.9 196.2l-2.5-.5M156.4 195.7l-2.4-.4M154 195.3l-2.3-.3M151.7 195l-2.3-.4M149.4 194.6l-2.1-.7M147.3 193.9l-2-1.2M145.4 192.7l-1.8-1.7"/><path stroke-width="5.2" d="m143.6 191-1.7-2.2"/><path stroke-width="5.3" d="m141.9 188.8-1.6-2.4M140.3 186.4l-1.5-2.8"/><path stroke-width="5.4" d="m138.8 183.6-.7-1.4"/><path stroke-width="5.3" d="m138 182.2-.7-1.6M137.3 180.6l-.7-1.5M136.6 179l-.6-1.5"/><path stroke-width="5.2" d="m136 177.5-1.2-2.8"/><path stroke-width="4.7" d="m134.8 174.7-.7-2.1"/><path stroke-width="1.6" d="m223.9 69.4-1.5-1.2"/><path stroke-width="1.9" d="m222.4 68.2-1.5-2"/><path stroke-width="2.4" d="m221 66.3-1.8-2.7"/><path stroke-width="2.8" d="m219.2 63.5-1-1.6"/><path stroke-width="3" d="m218.3 62-1-1.8"/><path stroke-width="3.2" d="m217.3 60.2-1-1.7"/><path stroke-width="3.5" d="m216.2 58.5-1.2-1.7"/><path stroke-width="3.7" d="m215 56.8-1.3-1.6"/><path stroke-width="4" d="m213.7 55.2-1.4-1.5"/><path stroke-width="4.2" d="m212.3 53.7-1.5-1.3"/><path stroke-width="4.5" d="M210.8 52.4 209 51"/><path stroke-width="4.7" d="m209 51-1.7-1.2"/><path stroke-width="4.8" d="m207.3 49.8-2-1.1"/><path stroke-width="4.9" d="m205.3 48.7-2-1"/><path stroke-width="5.1" d="m203.2 47.6-2.1-.9"/><path stroke-width="5.2" d="m201 46.7-2.2-.8"/><path stroke-width="5.3" d="m198.8 45.9-2.4-.6M196.4 45.2l-2.5-.4"/><path stroke-width="5.4" d="m194 44.8-2.7-.3"/><path stroke-width="5.5" d="M191.3 44.5h-2.7M188.6 44.4l-2.8.2"/><path stroke-width="5.6" d="m185.8 44.6-2.9.4M182.9 45l-3 .7M179.9 45.7l-3.1.9M176.8 46.5l-3.2 1M173.6 47.6l-3.2 1.2M170.4 48.8l-3.1 1.4M167.3 50.2l-3.2 1.5M164.1 51.7l-3.1 1.8M161 53.5l-3.2 2"/><path stroke-width="5.5" d="m157.8 55.5-3 2.2M154.7 57.7l-3 2.4M151.8 60.1l-2.9 2.5"/><path stroke-width="5.6" d="m149 62.6-2.7 2.6M146.3 65.2l-2.4 2.6M143.9 67.7l-2.2 2.5M141.7 70.2l-1.8 2.4"/><path stroke-width="5.5" d="m140 72.6-1.4 2.2"/><path stroke-width="5.1" d="m138.6 74.8-1 2.2"/><path stroke-width="4.5" d="m137.7 77-.4 2"/><path stroke-width="3.6" d="m137.3 79 .2 2"/><path stroke-width="2.8" d="m137.5 81 .6 1.2"/><path stroke-width="2.6" d="m106.4 140.2-.4 2.1"/><path stroke-width="3" d="m106 142.3-1.6 1.7"/><path stroke-width="3.5" d="m104.4 144-2.9 2"/><path stroke-width="3.9" d="m101.5 146-1.7 1"/><path stroke-width="4.1" d="m99.8 147-1.8 1.2"/><path stroke-width="4.3" d="m98 148.2-1.9 1.1"/><path stroke-width="4.4" d="m96.1 149.3-1.8 1"/><path stroke-width="4.5" d="m94.3 150.3-1.8.8"/><path stroke-width="4.7" d="m92.5 151.1-1.7.6"/><path stroke-width="4.9" d="m90.8 151.7-1.7.5"/><path stroke-width="5" d="m89 152.2-1.6.3"/><path stroke-width="5.2" d="M87.4 152.5h-1.8"/><path stroke-width="5.5" d="M85.6 152.6h-1.9"/><path stroke-width="5.7" d="m83.7 152.6-2.1-.1"/><path stroke-width="6" d="m81.6 152.5-2.5-.2"/><path stroke-width="6.3" d="m79.1 152.3-2.6-.1"/><path stroke-width="6.5" d="m76.5 152.2-2.9-.2"/><path stroke-width="6.8" d="m73.6 152-3-.2"/><path stroke-width="7" d="M70.7 151.8h-3"/><path stroke-width="7.1" d="m67.6 151.7-3.1-.1"/><path stroke-width="7.2" d="m64.5 151.6-3.2-.1"/><path stroke-width="7.3" d="m61.3 151.5-3.2-.2M58.1 151.3l-3.1-.2M55 151.1l-3.1-.2"/><path stroke-width="7.4" d="m51.9 151-3-.3M49 150.7l-2.7-.3M46.3 150.4l-2.4-.3M43.9 150.1l-2.1-.2"/><path stroke-width="7.3" d="m41.8 149.9-1.8-.3"/><path stroke-width="7.2" d="m40 149.6-2-.6"/><path stroke-width="6.2" d="m38 149 2.3-1.8"/><path stroke-width="2" d="m40.3 147.2.1-.1"/><path stroke-width="1.6" d="m114.4 51.7 1.1-1.4"/><path stroke-width="1.9" d="m115.5 50.3 1-1.3"/><path stroke-width="2.5" d="m116.5 49 .4-2"/><path stroke-width="2.8" d="m117 47-.4-3.2"/><path stroke-width="3.2" d="m116.6 43.8-.6-1.7"/><path stroke-width="3.4" d="m116 42-.8-1.7"/><path stroke-width="3.6" d="m115.2 40.3-1-1.7"/><path stroke-width="3.9" d="M114.3 38.6 113 37"/><path stroke-width="4.2" d="m113 37-1.4-1.4"/><path stroke-width="4.5" d="m111.6 35.6-1.6-1.4"/><path stroke-width="4.8" d="m110 34.3-1.8-1.3"/><path stroke-width="5" d="m108.2 33-2-1.2"/><path stroke-width="5.1" d="m106.2 31.8-2.2-1.2"/><path stroke-width="5.3" d="m104 30.6-2.3-1.2"/><path stroke-width="5.4" d="m101.7 29.4-2.5-1.1M99.2 28.3 96.6 27"/><path stroke-width="5.5" d="m96.6 27.1-2.8-1"/><path stroke-width="5.6" d="m93.8 26-3-1"/><path stroke-width="5.7" d="m90.8 25-3.3-.8"/><path stroke-width="5.8" d="m87.5 24.2-3.6-.6"/><path stroke-width="5.9" d="m83.9 23.6-3.8-.3"/><path stroke-width="6.1" d="m80 23.3-3.9.1"/><path stroke-width="6.2" d="m76.2 23.4-4 .4"/><path stroke-width="6.3" d="m72.2 23.8-4 .8"/><path stroke-width="6.4" d="m68.3 24.6-3.9 1M64.4 25.7 60.7 27M60.7 27l-3.5 1.7"/><path stroke-width="6.2" d="m57.2 28.8-3.1 2"/><path stroke-width="5.8" d="M54 30.7 51.4 33"/><path stroke-width="5.1" d="M51.3 33 49 35.6"/><path stroke-width="4" d="m49 35.6-1.7 3"/><path stroke-width="3" d="m47.3 38.5-1.5 3"/><path stroke-width="2.1" d="m45.8 41.5-1.3 3.2"/><path stroke-width="1.2" d="m44.5 44.7-1.2 3.2"/><path stroke-width=".5" d="M43.3 47.9 42 51"/><path stroke-width=".1" d="m42 51.1-3.6 8.2"/><path stroke-width="6.3" d="m152.2 103.4-2.3-.7"/><path stroke-width="7.4" d="m149.9 102.7-2.2.6"/><g stroke-width="7.7"><path d="m147.7 103.3-2.6 1.4M145.1 104.7l-1.4 1M143.7 105.8 142 107M142.1 107.1l-1.6 1.6M140.5 108.7l-1.5 2M139 110.7l-1.4 2.2M137.6 112.9l-1.2 2.5M136.4 115.4l-1 2.8M135.4 118.2l-.7 3M134.7 121.3l-.5 3.3M134.2 124.6l-.2 3.5M134 128v3.7M134 131.7l.1 3.9M134.1 135.6l.4 4M134.5 139.6l.5 4M135 143.7l.8 4M135.8 147.6l1 3.9M136.8 151.5l1.2 3.5M138 155l1.5 3.3M139.5 158.3l1.8 3M141.3 161.3l2 2.6M143.3 164l2.3 2.3M145.6 166.3l2.5 2M148.1 168.4l2.9 1.8M151 170.2l3 1.4M154 171.6l3.5 1.1M157.5 172.7l3.7.7M161.2 173.4l4 .2M165.1 173.6l4.2-.3M169.3 173.3l4.5-.8M173.8 172.5l4.6-1.5M178.4 171l4.8-2M183.2 169l4.8-2.7M188 166.3l4.7-3.2M192.7 163.1l4.7-3.6M197.4 159.5l4.4-4M201.8 155.5l4-4.4M205.9 151.1l3.7-4.5M209.6 146.6l3.1-4.6M212.7 142l2.7-4.7M215.4 137.3l2.1-4.7M217.5 132.6l1.6-4.7M219.1 127.9l1-4.7M220.2 123.2l.4-4.7M220.6 118.5v-4.6M220.6 113.9l-.6-4.6M220 109.3l-1.1-4.5M218.9 104.8l-1.6-4.3M217.3 100.5l-2.1-4.1M215.2 96.4l-2.7-4M212.6 92.5l-3.2-3.6M209.4 88.9l-3.6-3.3M205.8 85.7l-4-2.8M201.8 82.9l-4.3-2.3M197.5 80.6l-4.8-1.7M192.7 78.9l-5-1.1M187.7 77.8l-5.4-.4M182.3 77.4l-5.7.4M176.6 77.8l-5.8 1M170.8 78.8l-5.8 1.6M165 80.4l-5.8 2.2M159.2 82.6l-5.5 2.6M153.7 85.2l-5.2 2.8M148.5 88l-4.8 3M143.7 90.9l-4.4 3M139.3 93.8l-4 3M135.3 96.7l-3.5 2.8M131.8 99.5l-3 2.5M128.8 102l-2.4 2.3M126.4 104.3l-1.8 2M124.6 106.3l-1.1 1.6M123.5 108l-.2 2.2M123.3 110.2l2.7 1.6M126 111.8l2.5.9M128.6 112.7l3 .8"/></g><path stroke-width="7.7" d="m131.5 113.5 1.6.4"/><path stroke-width="5.4" d="m133.1 113.8 1.7.4M134.8 114.2l3 .7"/><path stroke-width="3.4" d="m137.9 114.8 2.5.5"/><path stroke-width="1.9" d="m140.4 115.2 1.8.3"/><path stroke-width="3.9" d="m35 76.6-2.1.6"/><path stroke-width="4.9" d="m32.9 77.2-1.7 1.1"/><path stroke-width="6.4" d="m31.2 78.3-2 2.3"/><path stroke-width="7.6" d="m29.2 80.6-1 1.7"/><g stroke-width="7.7"><path d="m28.2 82.2-1 2.1M27.1 84.3l-1 2.5M26.2 86.8l-.8 2.7M25.4 89.5l-.7 3.1M24.7 92.6l-.3 3.2M24.4 95.8l-.1 3.4M24.3 99.2l.2 3.3M24.5 102.5l.6 3.4M25.1 105.9l1 3.3M26.1 109.2l1.4 3.2M27.5 112.4l1.7 3M29.2 115.5l2 3M31.2 118.4l2.3 2.8M33.5 121.2l2.5 2.6M36 123.8l2.7 2.4M38.7 126.2l3 2.1M41.6 128.3l3.2 1.9M44.8 130.2l3.4 1.6M48.2 131.8l3.7 1.3M51.9 133l3.9 1M55.8 134l4.1.4M60 134.4h4.2M64.2 134.4l4.5-.5M68.7 133.9l4.4-1M73.1 132.8l4.5-1.5M77.6 131.3l4.4-2M82 129.2l4.3-2.5M86.3 126.7l4-3M90.4 123.7l3.7-3.5M94 120.2l3.5-3.9M97.5 116.3l2.9-4.3M100.4 112l2.4-4.7M102.8 107.3l2-5M104.7 102.3 106 97M106 97l.7-5.7M106.7 91.3v-5.8M106.7 85.5l-.6-5.8M106.1 79.7 105 74M105 74l-1.8-5.4M103.2 68.6l-2.3-5.1M101 63.5l-2.8-4.8M98.2 58.7l-3.1-4.3M95 54.4l-3.4-3.8M91.6 50.6l-3.8-3.3M87.8 47.3l-4.1-2.8M83.7 44.5l-4.4-2.1M79.3 42.3l-4.6-1.6M74.7 40.7l-4.7-1M70 39.7l-4.8-.5M65.2 39.2l-4.7.1M60.5 39.3l-4.6.7M56 40l-4.4 1.2M51.6 41.2l-4 1.7M47.6 43 43.9 45M43.9 45.1l-3.3 2.7M40.6 47.8l-3 3M37.7 50.8 35.2 54M35.2 54l-1.9 3.5M33.3 57.5l-1.4 3.4M31.9 60.9l-1 3.2M31 64.1l-.5 3"/></g><path stroke-width="6.5" d="M30.5 67.1V70"/><path stroke-width="4.6" d="m30.5 69.9.3 2.4"/><path stroke-width="3.1" d="m30.8 72.3.5 2"/><path stroke-width="1.9" d="m31.3 74.3.5 1.7"/><path stroke-width=".9" d="m31.8 76 .7 4.2"/></g><path fill="none" d="M0 0h314.7v314.7H0z"/></svg>