<?xml version="1.0" encoding="UTF-8"?>
<svg width="80" height="80" version="1.1" viewBox="0 0 80 80" xml:space="preserve" xmlns="http://www.w3.org/2000/svg"><g transform="translate(-535.57 -73.215)" fill="none" stroke-linecap="round" stroke-linejoin="round" stroke-miterlimit="10"><g stroke="#000"><path d="m581.5 103.18-0.67348-0.20784" stroke-width="1.875"/><path d="m580.83 102.97-0.65414 0.16918" stroke-width="2.1835"/><g stroke-width="2.2718"><path d="m580.17 103.14-0.76853 0.42212"/><path d="m579.4 103.57-0.42858 0.32062"/><path d="m578.98 103.89-0.45919 0.39635"/><path d="m578.52 104.28-0.46562 0.48498"/><path d="m578.05 104.77-0.4463 0.56713"/><path d="m577.6 105.33-0.41568 0.66059"/><path d="m577.19 105.99-0.3593 0.7492"/><path d="m576.83 106.74-0.2884 0.83621"/><path d="m576.54 107.58-0.22073 0.90708"/><path d="m576.32 108.49-0.14501 0.96833"/><path d="m576.18 109.46-0.0758 1.0328"/><path d="m576.1 110.49-6e-3 1.0892"/><path d="m576.09 111.58 0.0516 1.1456"/><path d="m576.15 112.72 0.11274 1.189"/><path d="m576.26 113.91 0.16434 1.2019"/><path d="m576.42 115.11 0.22557 1.1826"/><path d="m576.65 116.3 0.29645 1.1343"/><path d="m576.94 117.43 0.36413 1.0505"/><path d="m577.31 118.48 0.44147 0.97477"/><path d="m577.75 119.46 0.52202 0.87487"/><path d="m578.27 120.33 0.5913 0.78787"/><path d="m578.86 121.12 0.67992 0.70408"/><path d="m579.54 121.82 0.76209 0.61708"/><path d="m580.31 122.44 0.82976 0.52847"/><path d="m581.13 122.97 0.92643 0.42857"/><path d="m582.06 123.4 1.0054 0.32063"/><path d="m583.07 123.72 1.0892 0.2014"/><path d="m584.16 123.92 1.1713 0.0692"/><path d="m585.33 123.99 1.2454-0.0822"/><path d="m586.57 123.91 1.3228-0.25778"/><path d="m587.9 123.65 1.3711-0.43502"/><path d="m589.27 123.21 1.4098-0.61063"/><path d="m590.68 122.6 1.4291-0.78626"/><path d="m592.11 121.82 1.4098-0.93771"/><path d="m593.52 120.88 1.3711-1.0763"/><path d="m594.89 119.8 1.3099-1.189"/><path d="m596.2 118.61 1.2084-1.2841"/><path d="m597.4 117.33 1.0956-1.347"/><path d="m598.5 115.98 0.93771-1.3711"/><path d="m599.44 114.61 0.7927-1.3921"/><path d="m600.23 113.22 0.62836-1.3904"/><path d="m600.86 111.83 0.46723-1.3904"/><path d="m601.33 110.44 0.31419-1.3985"/><path d="m601.64 109.04 0.145-1.3776"/><path d="m601.79 107.66-0.0193-1.3727"/><path d="m601.77 106.29-0.17562-1.3582"/><path d="m601.59 104.93-0.32868-1.3164"/><path d="m601.26 103.62-0.47691-1.2841"/><path d="m600.78 102.33-0.62353-1.2261"/><path d="m600.16 101.1-0.77497-1.152"/><path d="m599.39 99.953-0.92482-1.0698"/><path d="m598.46 98.883-1.0634-0.95704"/><path d="m597.4 97.926-1.189-0.82492"/><path d="m596.21 97.101-1.2906-0.67348"/><path d="m594.92 96.428-1.4033-0.50269"/><path d="m593.52 95.925-1.5048-0.32062"/><path d="m592.01 95.604-1.5918-0.11443"/><path d="m590.42 95.49-1.674 0.1015"/><path d="m588.74 95.591-1.7175 0.3013"/><path d="m587.03 95.893-1.732 0.48496"/><path d="m585.3 96.378-1.7046 0.64286"/><path d="m583.59 97.021-1.637 0.76047"/><path d="m581.95 97.781-1.5419 0.83137"/><path d="m580.41 98.612-1.4291 0.87487"/><path d="m578.98 99.487-1.3083 0.86843"/><path d="m577.67 100.36-1.1778 0.84909"/><path d="m576.5 101.2-1.044 0.81204"/><path d="m575.45 102.02-0.88776 0.76208"/><path d="m574.56 102.78-0.71698 0.68636"/><path d="m573.85 103.47-0.52202 0.59132"/><path d="m573.33 104.06-0.32869 0.47206"/><path d="m573 104.53-0.0564 0.66059"/><path d="m572.94 105.19 0.81848 0.48497"/><path d="m573.76 105.67 0.7363 0.2578"/><path d="m574.5 105.93 0.88133 0.23845"/></g><path d="m575.38 106.17 0.48496 0.11443" stroke-width="2.2695"/><path d="m575.86 106.28 0.47852 0.11274" stroke-width="1.6086"/><path d="m576.34 106.4 0.91193 0.18207" stroke-width="1.6086"/><path d="m577.25 106.58 0.77498 0.11927" stroke-width=".99736"/><path d="m578.03 106.7 0.52202 0.0758" stroke-width=".57151"/><path d="m590.55 107.76-0.21428-0.55425" stroke-width="1.6742"/><path d="m590.34 107.21-0.62192-0.10791" stroke-width="1.8501"/><g stroke-width="2.2718"><path d="m589.71 107.1-0.40924 0.25939"/><path d="m589.31 107.36-0.42857 0.43341"/><path d="m588.88 107.79-0.35285 0.61709"/><path d="m588.52 108.41-0.13856 0.79914"/><path d="m588.39 109.21 0.15144 0.93771"/><path d="m588.54 110.15 0.18207 0.49141"/><path d="m588.72 110.64 0.25779 0.46563"/><path d="m588.98 111.11 0.32868 0.42052"/><path d="m589.31 111.53 0.38347 0.3464"/><path d="m589.69 111.87 0.43985 0.25779"/><path d="m590.13 112.13 0.48496 0.13857"/><path d="m590.61 112.27 0.50913-0.0109"/><path d="m591.12 112.26 0.53652-0.17722"/><path d="m591.66 112.08 0.52203-0.34641"/><path d="m592.18 111.73 0.48497-0.50269"/><path d="m592.67 111.23 0.42696-0.62997"/><path d="m593.09 110.6 0.35929-0.71698"/><path d="m593.45 109.88 0.27713-0.7492"/><path d="m593.73 109.14 0.18206-0.76208"/><path d="m593.91 108.37 0.0886-0.74115"/><path d="m594 107.63v-0.71214"/><path d="m594 106.92-0.0886-0.66059"/><path d="m593.91 106.26-0.17562-0.5913"/><path d="m593.74 105.67-0.2594-0.5043"/><path d="m593.48 105.16-0.32062-0.39635"/><path d="m593.16 104.77-0.8056-0.40925"/><path d="m592.35 104.36-0.95704 0.13212"/><path d="m591.39 104.49-0.50269 0.27067"/><path d="m590.89 104.76-0.48496 0.38508"/><path d="m590.41 105.15-0.45919 0.47209"/><path d="m589.95 105.62-0.41568 0.53973"/><path d="m589.53 106.16-0.35285 0.58003"/><path d="m589.18 106.74-0.28841 0.57842"/><path d="m588.89 107.32-0.20139 0.55425"/><path d="m588.69 107.87-0.11443 0.52202"/><path d="m588.57 108.39 0.0516 0.86198"/><path d="m588.63 109.25 0.47852 0.49141"/><path d="m589.1 109.75 0.82331 0.0193"/><path d="m589.93 109.77 0.48496-0.18368"/><path d="m590.41 109.58 0.48497-0.30129"/><path d="m590.9 109.28 0.45919-0.4028"/><path d="m591.36 108.88 0.40279-0.46562"/><path d="m591.76 108.41 0.32707-0.49786"/><path d="m592.09 107.91 0.25779-0.48497"/><path d="m592.34 107.43 0.18367-0.46563"/><path d="m592.53 106.96 0.11927-0.82331"/><path d="m592.65 106.14-0.2143-0.62353"/><path d="m592.43 105.52-0.47207-0.30774"/><path d="m591.96 105.21-0.62352 0.0692"/><path d="m591.34 105.28-0.62192 0.45276"/><path d="m590.72 105.73-0.5043 0.72986"/><path d="m590.21 106.46-0.30774 0.82493"/><path d="m589.9 107.29-0.0951 0.70408"/><path d="m589.81 107.99 0.145 0.51558"/><path d="m589.95 108.51 0.55425 0.29001"/><path d="m590.51 108.8 0.50913-0.26423"/><path d="m591.02 108.53-0.0371-0.58486"/><path d="m590.98 107.95-0.45918-0.27712"/><path d="m590.52 107.67-0.66865-0.18851"/><path d="m589.85 107.48-0.71053-0.0951"/><path d="m589.14 107.39h-0.6042"/><path d="m588.54 107.39-0.52202 0.0758"/><path d="m588.01 107.46 0.61065-0.40279"/><path d="m588.63 107.06 0.58486-0.33996"/><path d="m589.21 106.72 0.42212-0.23845"/></g><path d="m589.63 106.48-0.50429 0.19494" stroke-width=".74074"/><path d="m589.13 106.67-0.64126 0.23201" stroke-width=".14094"/><path d="m588.49 106.91-2.7696 0.9635" stroke-width=".022718"/><path d="m546.78 95.239-0.62353 0.17079" stroke-width="1.1632"/><path d="m546.16 95.409-0.50269 0.34479" stroke-width="1.4464"/><path d="m545.66 95.754-0.58647 0.67347" stroke-width="1.9078"/><path d="m545.07 96.428-0.31418 0.49142" stroke-width="2.2535"/><g stroke-width="2.2718"><path d="m544.76 96.919-0.30774 0.61709"/><path d="m544.45 97.536-0.28356 0.72341"/><path d="m544.17 98.26-0.23846 0.82493"/><path d="m543.93 99.085-0.18367 0.90548"/><path d="m543.74 99.99-0.11275 0.95061"/><path d="m543.63 100.94-0.0257 0.98765"/><path d="m543.61 101.93 0.0692 1.0022"/><path d="m543.67 102.93 0.18851 0.98765"/><path d="m543.86 103.92 0.29001 0.97477"/><path d="m544.15 104.89 0.40279 0.95705"/><path d="m544.56 105.85 0.50431 0.91192"/><path d="m545.06 106.76 0.59774 0.88132"/><path d="m545.66 107.64 0.67348 0.82492"/><path d="m546.33 108.47 0.75404 0.75565"/><path d="m547.09 109.22 0.80558 0.71053"/><path d="m547.89 109.93 0.85716 0.62997"/><path d="m548.75 110.56 0.9377 0.55909"/><path d="m549.69 111.12 1.007 0.47206"/><path d="m550.69 111.6 1.0892 0.37864"/><path d="m551.78 111.97 1.1633 0.26423"/><path d="m552.95 112.24 1.2277 0.13856"/><path d="m554.17 112.38h1.2712"/><path d="m555.44 112.38 1.3083-0.1579"/><path d="m556.75 112.22 1.3292-0.30773"/><path d="m558.08 111.91 1.3276-0.45918"/><path d="m559.41 111.45 1.3083-0.61065"/><path d="m560.72 110.84 1.2664-0.75564"/><path d="m561.98 110.09 1.1955-0.88777"/><path d="m563.18 109.2 1.1069-1.0312"/><path d="m564.29 108.17 1.0006-1.1584"/><path d="m565.29 107.01 0.86843-1.2712"/><path d="m566.16 105.74 0.72503-1.3792"/><path d="m566.88 104.36 0.55909-1.4855"/><path d="m567.44 102.87 0.38506-1.5919"/><path d="m567.82 101.28 0.2014-1.6805"/><path d="m568.03 99.6 5e-3 -1.7175"/><path d="m568.03 97.883-0.16918-1.7256"/><path d="m567.86 96.157-0.35929-1.674"/><path d="m567.5 94.483-0.52202-1.6112"/><path d="m566.98 92.872-0.66703-1.5161"/><path d="m566.31 91.356-0.8056-1.4098"/><path d="m565.51 89.946-0.92481-1.2841"/><path d="m564.58 88.662-1.0328-1.1262"/><path d="m563.55 87.536-1.1262-0.96994"/><path d="m562.42 86.566-1.2213-0.81848"/><path d="m561.2 85.747-1.2906-0.64769"/><path d="m559.91 85.099-1.3518-0.48497"/><path d="m558.56 84.614-1.405-0.31418"/><path d="m557.16 84.3-1.4146-0.13211"/><path d="m555.74 84.168-1.405 0.03226"/><path d="m554.34 84.2-1.3518 0.20139"/><path d="m552.98 84.402-1.2841 0.35768"/><path d="m551.7 84.759-1.1907 0.51558"/><path d="m550.51 85.275-1.1004 0.6493"/><path d="m549.41 85.924-0.97637 0.77982"/><path d="m548.43 86.704-0.86198 0.89421"/><path d="m547.57 87.598-0.72343 0.96832"/><path d="m546.85 88.567-0.56713 1.007"/><path d="m546.28 89.574-0.42052 1.007"/><path d="m545.86 90.581-0.27712 0.96348"/><path d="m545.58 91.544-0.12567 0.90065"/></g><path d="m545.46 92.445-0.0129 0.81204" stroke-width="1.9201"/><path d="m545.44 93.257 0.0822 0.71698" stroke-width="1.3691"/><path d="m545.53 93.974 0.14984 0.5913" stroke-width=".90405"/><path d="m545.68 94.565 0.15144 0.49786" stroke-width=".55555"/><path d="m545.83 95.063 0.22074 1.2326" stroke-width=".27203"/><path d="m551.62 97.177-0.28356-0.48496" stroke-width=".68052"/><path d="m551.33 96.692-0.71698-0.14984" stroke-width=".87632"/><path d="m550.62 96.542-0.68637 0.41408" stroke-width="1.4108"/><path d="m549.93 96.956-0.36412 0.37862" stroke-width="1.6997"/><path d="m549.57 97.335-0.35929 0.46563" stroke-width="1.8075"/><path d="m549.21 97.8-0.32707 0.54136" stroke-width="1.9033"/><path d="m548.88 98.342-0.28357 0.58486" stroke-width="1.9919"/><path d="m548.6 98.927-0.21429 0.59131" stroke-width="2.0681"/><path d="m548.38 99.518-0.12567 0.58002" stroke-width="2.1364"/><path d="m548.26 100.1-0.0257 0.52847" stroke-width="2.2009"/><path d="m548.23 100.63 0.28356 0.86197" stroke-width="2.2614"/><g stroke-width="2.2718"><path d="m548.51 101.49 0.73631 0.46564"/><path d="m549.25 101.95 0.5043 0.0387"/><path d="m549.76 101.99 0.55908-0.10791"/><path d="m550.31 101.88 0.58647-0.25778"/><path d="m550.9 101.63 0.58486-0.40924"/><path d="m551.49 101.22 0.57196-0.5607"/><path d="m552.06 100.66 0.52365-0.70408"/><path d="m552.58 99.953 0.46562-0.83782"/><path d="m553.05 99.115 0.4028-0.92482"/><path d="m553.45 98.19 0.33996-0.98765"/><path d="m553.79 97.203 0.26423-1.007"/><path d="m554.05 96.196 0.18207-0.98765"/><path d="m554.24 95.208 0.0999-0.94415"/><path d="m554.34 94.264v-0.86843"/><path d="m554.34 93.395-0.0999-0.78143"/><path d="m554.24 92.614-0.18207-0.66703"/><path d="m554.05 91.947-0.26423-0.5478"/><path d="m553.79 91.399-0.33351-0.42052"/><path d="m553.46 90.979-0.79432-0.38508"/><path d="m552.66 90.594-0.91838 0.38991"/><path d="m551.74 90.983-0.46562 0.52363"/><path d="m551.28 91.507-0.4463 0.72342"/><path d="m550.83 92.231-0.41568 0.88776"/><path d="m550.42 93.118-0.36574 1.007"/><path d="m550.05 94.125-0.30129 1.0634"/><path d="m549.75 95.189-0.22718 1.0634"/><path d="m549.52 96.252-0.15146 1.007"/><path d="m549.37 97.259-0.0435 0.92483"/><path d="m549.33 98.184 0.0435 0.82492"/><path d="m549.37 99.009 0.15146 0.69282"/><path d="m549.52 99.702 0.24651 0.55907"/><path d="m549.77 100.26 0.33835 0.40281"/><path d="m550.11 100.66 0.42857 0.23361"/><path d="m550.54 100.9 0.51558 0.0435"/><path d="m551.05 100.94 0.56713-0.15628"/><path d="m551.62 100.78 0.59131-0.35931"/><path d="m552.21 100.42 0.5913-0.52846"/><path d="m552.8 99.897 0.53492-0.66703"/><path d="m553.34 99.23 0.47852-0.7492"/><path d="m553.81 98.48 0.3899-0.7927"/><path d="m554.2 97.688 0.30935-0.79431"/><path d="m554.51 96.893 0.2014-0.76693"/><path d="m554.71 96.126 0.0999-0.73631"/><path d="m554.81 95.39v-0.66703"/><path d="m554.81 94.723-0.0999-0.60419"/><path d="m554.71 94.119-0.19495-0.52848"/><path d="m554.52 93.59-0.27713-0.45435"/><path d="m554.24 93.136-0.33352-0.35123"/><path d="m553.91 92.785-0.78141-0.35285"/><path d="m553.13 92.432-0.8491 0.23201"/><path d="m552.28 92.664-0.43341 0.3464"/><path d="m551.85 93.01-0.42213 0.50431"/><path d="m551.42 93.515-0.38991 0.64124"/><path d="m551.03 94.156-0.35929 0.74276"/><path d="m550.67 94.899-0.32062 0.7927"/><path d="m550.35 95.691-0.25779 0.8056"/><path d="m550.1 96.497-0.20139 0.78142"/><path d="m549.89 97.278-0.13857 0.72342"/><path d="m549.76 98.002-0.0692 0.64125"/><path d="m549.69 98.643-0.0129 0.54136"/><path d="m549.67 99.184 0.2014 0.72986"/><path d="m549.87 99.914 0.50269 0.18367"/><path d="m550.38 100.1 0.67991-0.46564"/><path d="m551.06 99.632 0.32707-0.46563"/><path d="m551.38 99.167 0.29646-0.59936"/><path d="m551.68 98.567 0.23846-0.66703"/><path d="m551.92 97.9 0.18368-0.6783"/><path d="m552.1 97.222 0.12567-0.64931"/><path d="m552.23 96.573 0.0692-0.58486"/><path d="m552.3 95.988-0.0129-0.5043"/><path d="m552.29 95.484-0.25778-0.76047"/><path d="m552.03 94.723-0.52847-0.4028"/><path d="m551.5 94.32-0.68636 0.02417"/><path d="m550.81 94.344-0.72343 0.52364"/><path d="m550.09 94.868-0.33995 0.42052"/><path d="m549.75 95.289-0.30935 0.49786"/><path d="m549.44 95.786-0.27068 0.52202"/><path d="m549.17 96.308-0.21913 0.51074"/><path d="m548.95 96.819-0.16434 0.46564"/><path d="m548.79 97.285-0.145 0.70408"/><path d="m548.64 97.989 0.39635 0.32063"/><path d="m549.04 98.31 0.40924-0.42697"/><path d="m549.45 97.883 0.32708-0.7492"/><path d="m549.77 97.133 0.12084-0.82492"/><path d="m549.89 96.308-0.14501-0.65415"/><path d="m549.75 95.654-0.42858-0.36573"/><path d="m549.32 95.289-0.64125-0.06924"/><path d="m548.68 95.219-0.68637 0.19013"/><path d="m547.99 95.409-0.56713 0.36412"/><path d="m547.43 95.774-0.40279 0.43502"/><path d="m547.02 96.209 0.51719-0.39635"/><path d="m547.54 95.812 0.64124-0.74276"/><path d="m548.18 95.069 0.36574-0.46563"/><path d="m548.55 94.604 0.39635-0.49142"/><path d="m548.94 94.112 0.40925-0.47852"/><path d="m549.35 93.634 0.41568-0.41568"/></g><path d="m549.77 93.218 0.50913-0.44629" stroke-width="1.8703"/><path d="m550.28 92.772-0.29001 0.46563" stroke-width=".85027"/><path d="m549.99 93.238-0.89904 1.7046" stroke-width=".049616"/><path d="m559.23 121.06 0.50269-0.24651" stroke-width="1.1226"/><path d="m559.74 120.81-0.64769-0.28357" stroke-width="1.5167"/><g stroke-width="2.2718"><path d="m559.09 120.53-0.49786 0.0387"/><path d="m558.59 120.56-0.61063 0.0999"/><path d="m557.98 120.66-0.71053 0.19012"/><path d="m557.27 120.85-0.81204 0.30129"/><path d="m556.46 121.16-0.89421 0.42213"/><path d="m555.56 121.58-0.98121 0.5478"/><path d="m554.58 122.13-1.0521 0.67831"/><path d="m553.53 122.8-1.1004 0.81203"/><path d="m552.43 123.62-1.1262 0.94416"/><path d="m551.3 124.56-1.1327 1.0827"/><path d="m550.17 125.64-1.1278 1.2019"/><path d="m549.04 126.85-1.1069 1.3099"/><path d="m547.94 128.16-1.0827 1.3969"/><path d="m546.85 129.55-1.0328 1.4597"/><path d="m545.82 131.01-0.98121 1.4726"/><path d="m544.84 132.48-0.9071 1.4549"/><path d="m543.93 133.94-0.81041 1.4033"/><path d="m543.12 135.34-0.71859 1.3147"/><path d="m542.4 136.66-0.6042 1.2213"/><path d="m541.8 137.88-0.48979 1.0892"/><path d="m541.31 138.97-0.37864 0.95061"/><path d="m540.93 139.92-0.24489 0.82331"/><path d="m540.69 140.74-0.11274 0.71215"/><path d="m540.57 141.45 0.0499 0.6219"/><path d="m540.62 142.08 0.20139 0.55425"/><path d="m540.82 142.63 0.36414 0.47209"/><path d="m541.19 143.1 0.52363 0.41568"/><path d="m541.71 143.52 0.66703 0.33996"/><path d="m542.38 143.86 0.81043 0.25134"/><path d="m543.19 144.11 0.94415 0.16434"/><path d="m544.13 144.27 1.0827 0.0564"/><path d="m545.22 144.33 1.2148-0.0628"/><path d="m546.43 144.27 1.3598-0.18368"/><path d="m547.79 144.08 1.492-0.30773"/><path d="m549.28 143.78 1.6112-0.45275"/><path d="m550.89 143.32 1.6869-0.56713"/><path d="m552.58 142.76 1.6982-0.68637"/><path d="m554.28 142.07 1.6676-0.7798"/><path d="m555.95 141.29 1.587-0.83137"/><path d="m557.53 140.46 1.4791-0.87971"/><path d="m559.01 139.58 1.3598-0.89421"/><path d="m560.37 138.68 1.2132-0.91838"/><path d="m561.59 137.77 1.0714-0.92643"/><path d="m562.66 136.84 0.90549-0.91194"/><path d="m563.56 135.93 0.76208-0.88775"/><path d="m564.33 135.04 0.61548-0.82332"/><path d="m564.94 134.22 0.46724-0.73792"/><path d="m565.41 133.48 0.36413-0.60902"/><path d="m565.77 132.87 0.26423-0.48498"/><path d="m566.04 132.38 0.32063-0.56069"/><path d="m566.36 131.82-0.10634 0.48498"/></g><path d="m566.25 132.31-0.4028 0.67991" stroke-width="1.47"/><path d="m565.85 132.99-0.73631 0.94416" stroke-width=".94299"/><path d="m565.11 133.93-1.0505 1.152" stroke-width=".55863"/><path d="m564.06 135.08-1.347 1.2825" stroke-width=".25578"/><path d="m562.71 136.37-4.173 3.3303" stroke-width=".067824"/><path d="m554.95 152.11-0.35768-0.52202" stroke-width=".74214"/><path d="m554.6 151.59-0.58647-0.37863" stroke-width=".8948"/><path d="m554.01 151.21-0.55908 0.0822" stroke-width="1.3646"/><path d="m553.45 151.3-0.69925 0.62353" stroke-width="1.6851"/><path d="m552.75 151.92-0.34641 0.53492" stroke-width="1.9846"/><path d="m552.4 152.45-0.32062 0.66703" stroke-width="2.13"/><path d="m552.08 153.12-0.27713 0.7798" stroke-width="2.2715"/><g stroke-width="2.2718"><path d="m551.81 153.9-0.20139 0.86843"/><path d="m609.66 156.34 1.5419-1.6869"/><path d="m611.21 154.66 1.3921-1.6547"/><path d="m612.6 153 1.2454-1.6112"/><path d="m613.84 151.39 1.1085-1.5677"/><path d="m614.95 149.82 0.96833-1.5097"/><path d="m615.92 148.31 0.84908-1.4678"/><path d="m616.77 146.85 0.74276-1.4098"/><path d="m617.37 129.34-0.36413 0.33997"/><path d="m617.01 129.68-0.42212 0.38346"/><path d="m616.59 130.07-0.48498 0.42212"/><path d="m616.1 130.49-0.56552 0.46564"/><path d="m615.54 130.96-0.66703 0.52203"/><path d="m614.87 131.48-0.78142 0.57357"/><path d="m614.09 132.05-0.8797 0.62192"/><path d="m613.21 132.67-0.98927 0.66219"/><path d="m612.22 133.34-1.0892 0.67831"/><path d="m611.13 134.01-1.189 0.67348"/><path d="m609.94 134.69-1.2906 0.67347"/><path d="m608.65 135.36-1.3905 0.63642"/><path d="m607.26 136-1.4726 0.61708"/><path d="m605.79 136.61-1.5483 0.59131"/><path d="m604.24 137.21-1.6112 0.5784"/><path d="m602.63 137.78-1.6482 0.56716"/><path d="m600.98 138.35-1.6869 0.56069"/><path d="m599.29 138.91-1.6934 0.54619"/><path d="m597.6 139.46-1.6869 0.56069"/><path d="m595.91 140.02-1.6611 0.56713"/><path d="m594.25 140.59-1.6241 0.58486"/><path d="m592.63 141.17-1.5725 0.59776"/><path d="m591.06 141.77-1.5306 0.58486"/><path d="m589.52 142.35-1.4855 0.58002"/><path d="m588.04 142.93-1.4533 0.53491"/><path d="m586.59 143.47-1.4404 0.50268"/><path d="m585.15 143.97-1.4291 0.47208"/><path d="m583.72 144.44-1.4227 0.42213"/><path d="m582.29 144.86-1.4227 0.38347"/><path d="m580.87 145.25-1.4033 0.35285"/><path d="m579.47 145.6-1.3711 0.32062"/><path d="m578.1 145.92-1.3469 0.29001"/><path d="m576.75 146.21-1.3163 0.23201"/><path d="m575.43 146.44-1.3083 0.17724"/><path d="m574.12 146.62-1.3099 0.10633"/><path d="m572.81 146.73-1.3018 0.0499"/><path d="m571.51 146.78-1.2906-0.0109"/><path d="m570.22 146.77-1.2648-0.0628"/><path d="m568.96 146.7-1.2148-0.10791"/><path d="m567.74 146.6-1.1649-0.15789"/><path d="m566.58 146.44-1.1069-0.19496"/><path d="m565.47 146.24-1.0456-0.20139"/><path d="m564.43 146.04-0.97477-0.2014"/><path d="m563.45 145.84-0.91998-0.18851"/><path d="m562.53 145.65-0.84264-0.18207"/><path d="m561.69 145.47-0.76854-0.18205"/><path d="m560.92 145.29-0.70409-0.19013"/><path d="m560.22 145.1-0.64286-0.18206"/><path d="m559.57 144.91-0.57842-0.18206"/><path d="m558.99 144.73-0.51557-0.18207"/><path d="m558.48 144.55-0.45918-0.18368"/><path d="m558.02 144.37-0.7492-0.36412"/><path d="m557.27 144-0.57359-0.35929"/><path d="m556.7 143.64-0.45274-0.30774"/><path d="m556.24 143.34-0.57841-0.33351"/><path d="m555.67 143-0.48497-0.16434"/><path d="m555.18 142.84-0.48497 0.0371"/><path d="m554.7 142.87-0.40279 0.35929"/><path d="m554.29 143.23-0.2578 0.50429"/><path d="m554.03 143.74-0.19494 0.56553"/><path d="m553.84 144.3-0.20785 0.58002"/><path d="m553.63 144.88-0.2449 0.45275"/><path d="m553.39 145.34 0.64769 0.23845"/><path d="m554.03 145.58 0.47853 0.0886"/></g><path d="m554.51 145.66 0.48497 0.0886" stroke-width="1.7521"/><path d="m555 145.75 0.66703 0.2014" stroke-width="1.7521"/><path d="m555.67 145.95 0.74275 0.27068" stroke-width="1.1542"/><path d="m556.41 146.22 0.74275 0.33995" stroke-width=".72533"/><path d="m557.15 146.56 0.55264 0.27551" stroke-width=".37963"/><path d="m557.7 146.84 0.45918 0.34641" stroke-width=".13365"/><path d="m558.16 147.19 0.62998 1.1584" stroke-width=".022718"/><path d="m563.78 148.89 0.0886-0.56069" stroke-width=".38859"/><path d="m563.87 148.33-0.0323-0.54781" stroke-width=".47179"/><path d="m563.83 147.78-0.45275-0.4334" stroke-width=".7343"/><path d="m563.38 147.35-0.67347 0.0564" stroke-width="1.2562"/><path d="m562.71 147.41-0.61708 0.7492" stroke-width="2.0333"/><g stroke-width="2.2718"><path d="m562.09 148.16-0.40279 0.73632"/><path d="m561.69 148.89-0.47208 1.0328"/><path d="m561.22 149.93-0.54136 1.3518"/><path d="m560.67 151.28-0.59775 1.6627"/><path d="m560.08 152.94-0.62997 1.8996"/></g><path d="m570.99 145.59 0.56069-0.40924" stroke-width=".97243"/><path d="m571.55 145.19 0.19495 0.46563" stroke-width="1.3027"/><path d="m571.74 145.65-0.0371 0.57359" stroke-width="2.1224"/><g stroke-width="2.2718"><path d="m571.71 146.22-0.0951 0.89258"/><path d="m571.61 147.12-0.145 1.2342"/><path d="m571.47 148.35-0.20141 1.5854"/><path d="m571.27 149.94-0.23845 1.8818"/><path d="m571.03 151.82-0.26423 2.1284"/><path d="m570.76 153.95-0.29646 2.2718"/></g><path d="m583.37 144.2 0.31418 0.7927" stroke-width=".89004"/><path d="m583.68 145 6e-3 0.67992" stroke-width="1.2111"/><path d="m583.69 145.68-0.0564 0.90549" stroke-width="1.5571"/><path d="m583.63 146.58-0.10634 1.1391" stroke-width="1.8552"/><path d="m583.53 147.72-0.16434 1.3534" stroke-width="2.1056"/><g stroke-width="2.2718"><path d="m583.36 149.07-0.22073 1.5677"/><path d="m583.14 150.64-0.27552 1.7626"/><path d="m582.87 152.4-0.32222 1.9447"/><path d="m582.54 154.35-0.34641 2.0768"/></g><path d="m593.15 147.28 0.16434 0.93127" stroke-width=".82198"/><path d="m593.31 148.21 0.0564 0.7492" stroke-width="1.2024"/><path d="m593.37 148.96-0.0129 0.90548" stroke-width="1.6336"/><path d="m593.36 149.87-0.0822 1.0457" stroke-width="2.0067"/><g stroke-width="2.2718"><path d="m593.28 150.91-0.13857 1.1826"/><path d="m593.14 152.1-0.18851 1.3099"/><path d="m592.95 153.41-0.22557 1.4275"/></g><path d="m605.67 140.84 0.57842 0.28357" stroke-width="1.1674"/><path d="m606.25 141.12 0.18205 0.85554" stroke-width="1.5487"/><path d="m606.44 141.98-0.0178 0.67991" stroke-width="2.1051"/><g stroke-width="2.2718"><path d="m606.42 142.66-0.0822 0.8362"/><path d="m606.34 143.49-0.14501 0.97638"/><path d="m606.19 144.47-0.18207 1.1198"/><path d="m606.01 145.59-0.1885 1.2519"/><path d="m605.82 146.84-0.16435 1.3727"/><path d="m605.66 148.21-0.12567 1.4855"/><path d="m605.53 149.7-0.0951 1.5548"/><path d="m605.43 151.25-0.0628 1.5854"/><path d="m605.37 152.84-0.0371 1.5854"/><path d="m605.33 154.42-0.0193 1.5548"/><path d="m601.55 154.91 0.62353-0.42052"/><path d="m602.17 154.49 0.5913-0.40279"/><path d="m602.76 154.09 0.58003-0.39796"/><path d="m603.34 153.69 0.55908-0.38347"/><path d="m603.9 153.3 0.5478-0.37702"/><path d="m604.45 152.93 0.54136-0.38506"/><path d="m604.99 152.54 0.52846-0.38347"/><path d="m605.52 152.16 0.51558-0.3899"/><path d="m606.03 151.77 0.48496-0.39635"/><path d="m606.52 151.37 0.46564-0.38347"/><path d="m606.98 150.99 0.4479-0.36573"/><path d="m607.43 150.62 0.43341-0.35285"/><path d="m607.86 150.27 0.42213-0.33351"/><path d="m608.29 149.94 0.40924-0.33352"/><path d="m608.7 149.6 0.39636-0.32063"/><path d="m609.09 149.28 0.38345-0.30129"/><path d="m609.48 148.98 0.7621-0.58646"/><path d="m610.24 148.39 0.37057-0.30774"/><path d="m610.61 148.09 0.37863-0.33996"/><path d="m610.99 147.75 0.35768-0.36574"/><path d="m611.34 147.38 0.33995-0.39635"/><path d="m611.68 146.98 0.3158-0.40924"/><path d="m612 146.58 0.30773-0.42052"/><path d="m612.31 146.16 0.29001-0.41569"/><path d="m612.6 145.74 0.54619-0.72341"/><path d="m613.14 145.02 0.47208-0.53492"/><path d="m613.62 144.48 0.36575-0.39796"/><path d="m613.98 144.08 0.38345-0.42051"/><path d="m614.37 143.66 0.48497-0.22718"/><path d="m614.85 143.44 0.52847-0.0822"/></g><path d="m615.38 143.35 0.15145 0.75564" stroke-width="1.4725"/><path d="m615.53 144.11-0.13211 0.66059" stroke-width=".44294"/><path d="m615.4 144.77-0.30291 0.81847" stroke-width=".21208"/><path d="m615.1 145.59-1.3647 2.4232" stroke-width=".044574"/><g stroke-width="2.2718"><path d="m558.48 71.311 0.0628 0.86198"/><path d="m558.55 72.173 0.0371 0.66059"/><path d="m558.58 72.834 6e-3 0.49142"/><path d="m558.59 73.325-0.0435 0.64124"/><path d="m558.55 73.966-0.28357 0.50914"/><path d="m558.26 74.475-0.52203 0.33996"/><path d="m557.74 74.815-0.60419 0.30291"/><path d="m557.14 75.118-0.4914 0.14501"/><path d="m556.65 75.263 0.0323-0.61709"/></g><path d="m556.68 74.646 0.39635-0.83781" stroke-width=".79592"/><path d="m557.08 73.808 0.16274-0.66059" stroke-width=".38187"/><path d="m557.24 73.148 0.11927-0.81848" stroke-width=".20648"/><path d="m558.94 71.939-0.25779 0.49142" stroke-width="1.403"/><path d="m558.69 72.431-0.4028 0.4914" stroke-width="1.48"/><path d="m558.28 72.922-0.58646 0.66703" stroke-width="1.6075"/><path d="m557.7 73.589-0.33996 0.37058" stroke-width="1.7005"/><path d="m557.36 73.96-0.35768 0.35285" stroke-width="1.7389"/><path d="m557 74.313-0.35285 0.33996" stroke-width="1.7778"/><path d="m556.65 74.653-0.65415 0.58486" stroke-width="1.8176"/><path d="m555.99 75.237-0.4914 0.44631" stroke-width="1.9028"/><path d="m555.5 75.684-0.35285 0.35929" stroke-width="2.0059"/><path d="m555.15 76.043-0.35124 0.5043" stroke-width="2.1022"/><path d="m554.8 76.547-0.27712 0.56552" stroke-width="2.2277"/><g stroke-width="2.2718"><path d="m554.52 77.113-0.22074 0.69282"/><path d="m554.3 77.806-0.0999 0.47207"/><path d="m554.2 78.278-0.0644 0.49625"/><path d="m554.13 78.774-0.02417 0.51075"/><path d="m554.11 79.285v0.49624"/><path d="m554.11 79.781 0.0242 0.51075"/><path d="m554.13 80.292 0.39796-0.5043"/></g><path d="m554.53 79.787 0.18207-0.50914" stroke-width="1.247"/><path d="m554.71 79.278-0.0499-0.64286" stroke-width=".6281"/><path d="m554.66 78.635-0.88776-1.4533" stroke-width=".16138"/><path d="m565.57 101.13-0.41568 0.33996" stroke-width=".80433"/><path d="m565.16 101.47 0.44146 0.41568" stroke-width=".94719"/><g stroke-width="2.2718"><path d="m565.6 101.88 0.47208 0.48498"/><path d="m566.07 102.37 0.53491 0.56069"/><path d="m566.6 102.93 0.5913 0.55263"/><path d="m567.2 103.48 0.6348 0.49786"/><path d="m567.83 103.98 0.73632 0.42212"/><path d="m568.57 104.4 0.83137 0.3448"/><path d="m569.4 104.75 0.91838 0.3029"/><path d="m570.32 105.05 0.47206 0.13856"/><path d="m570.79 105.19 0.47852 0.12567"/><path d="m571.27 105.31 0.88777 0.22075"/><path d="m572.15 105.54 0.67992 0.16272"/><path d="m572.83 105.7 0.54136 0.13856"/><path d="m573.38 105.84-0.33997-0.5913"/></g><path d="m573.04 105.25-0.41568-0.27713" stroke-width=".40484"/><path d="m572.62 104.97-0.5478-0.25779" stroke-width=".16587"/><path d="m572.07 104.71-1.7046-0.54136" stroke-width=".022718"/><path d="m604.39 106.7 0.55425-0.0628" stroke-width=".89985"/><path d="m604.94 106.64 0.48336-0.4028" stroke-width="1.1259"/><path d="m605.43 106.23 0.33995-0.37701" stroke-width="1.7521"/><path d="m605.77 105.86 0.36575-0.40925" stroke-width="2.0597"/><g stroke-width="2.2718"><path d="m606.13 105.45 0.38345-0.45919"/><path d="m606.52 104.99 0.48498-0.5043"/><path d="m607 104.48 0.71697-0.51558"/><path d="m607.72 103.97 0.44791-0.25134"/><path d="m608.17 103.72 0.50269-0.27712"/><path d="m608.67 103.44 0.5478-0.29645"/><path d="m609.22 103.14 0.60419-0.31419"/><path d="m609.82 102.83 0.66059-0.35284"/><path d="m610.48 102.48 0.71214-0.34641"/><path d="m611.19 102.13 0.77337-0.33996"/><path d="m611.97 101.79 0.80559-0.30774"/><path d="m612.77 101.48 0.83137-0.27712"/><path d="m613.61 101.2 0.84264-0.2449"/><path d="m614.45 100.96 0.8491-0.23362"/><path d="m615.3 100.73 0.86359-0.20784"/><path d="m616.16 100.52 0.86843-0.19496"/><path d="m617.03 100.32 0.86843-0.18206"/></g><path d="m545.75 90.349-0.0435-0.53492" stroke-width=".89565"/><path d="m545.71 89.814-0.25779-0.7057" stroke-width="1.0032"/><path d="m545.45 89.108-0.17722-0.45919" stroke-width="1.2153"/><path d="m545.27 88.649-0.20141-0.52202" stroke-width="1.3117"/><path d="m545.07 88.127-0.23845-0.57196" stroke-width="1.3904"/><path d="m544.83 87.555-0.27068-0.62353" stroke-width="1.4548"/><path d="m544.56 86.931-0.31418-0.66059" stroke-width="1.5092"/><path d="m544.25 86.271-0.3464-0.68636" stroke-width="1.5565"/><path d="m543.9 85.584-0.38346-0.71213" stroke-width="1.5999"/><path d="m543.52 84.872-0.42214-0.76049" stroke-width="1.6383"/><path d="m543.1 84.112-0.46563-0.80558" stroke-width="1.672"/><path d="m542.63 83.306-0.53491-0.85554" stroke-width="1.7011"/><path d="m542.1 82.451-0.6042-0.89421" stroke-width="1.7266"/><path d="m541.49 81.556-0.68636-0.91837" stroke-width="1.7504"/><path d="m540.81 80.638-0.75564-0.9071" stroke-width="1.7728"/><path d="m540.05 79.731-0.79914-0.85554" stroke-width="1.7997"/><path d="m539.25 78.875-0.81204-0.7927" stroke-width="1.8316"/><path d="m538.44 78.083-0.80559-0.7057" stroke-width="1.8669"/><path d="m537.63 77.377-0.7927-0.62353" stroke-width="1.9045"/><path d="m536.84 76.754-0.76693-0.55263" stroke-width="1.9426"/><path d="m536.07 76.201-0.7492-0.50431" stroke-width="1.9807"/><path d="m535.32 75.697-0.72987-0.46563" stroke-width="2.0132"/><path d="m534.59 75.231-0.70569-0.43985" stroke-width="2.0415"/><path d="m533.89 74.791-0.69281-0.41568" stroke-width="2.0672"/><path d="m596.84 127.85-0.64125 0.37219" stroke-width=".27343"/><path d="m596.2 128.22-0.68637 0.3013" stroke-width=".31296"/><path d="m595.52 128.52-0.60419-0.0178" stroke-width=".36423"/><path d="m594.91 128.5-0.0193-0.58003" stroke-width=".4026"/><path d="m594.89 127.92 0.51074-0.7798" stroke-width=".33537"/><path d="m595.4 127.14 0.43986-0.54781" stroke-width=".17903"/><path d="m595.84 126.59 0.54135-0.66058" stroke-width=".090514"/><path d="m596.38 125.93 1.5918-1.9318" stroke-width=".022718"/><path d="m601.42 118.04-0.0628 0.56552" stroke-width="1.3321"/><path d="m601.36 118.6-0.22074 0.64286" stroke-width="1.3649"/><path d="m601.14 119.24-0.23845 0.55907" stroke-width="1.4487"/><path d="m600.9 119.8-0.29001 0.65415" stroke-width="1.4767"/><path d="m600.61 120.46-0.36414 0.73631" stroke-width="1.489"/><path d="m600.24 121.19-0.45919 0.77497" stroke-width="1.4946"/><g stroke-width="1.4954"><path d="m599.78 121.97-0.25939 0.41569"/><path d="m599.52 122.38-0.28196 0.42052"/><path d="m599.24 122.8-0.3029 0.42857"/></g><path d="m598.94 123.23-0.32063 0.44146" stroke-width="1.4949"/><path d="m598.62 123.67-0.32706 0.43986" stroke-width="1.4949"/><path d="m598.29 124.11-0.33997 0.43985" stroke-width="1.4954"/><path d="m597.95 124.55-0.3464 0.42858" stroke-width="1.496"/><path d="m597.61 124.98-0.3593 0.42212" stroke-width="1.4966"/><path d="m597.25 125.4-0.36412 0.40281" stroke-width="1.4977"/><g stroke-width="1.498"><path d="m596.88 125.81-0.36574 0.38345"/><path d="m596.52 126.19-0.37057 0.36575"/><path d="m596.15 126.56-0.36574 0.33995"/><path d="m595.78 126.9-0.36412 0.32062"/></g><g stroke-width="1.4982"><path d="m595.42 127.22-0.7621 0.58486"/><path d="m594.65 127.8-0.40279 0.27713"/><path d="m594.25 128.08-0.42213 0.26423"/><path d="m593.83 128.34-0.43986 0.2578"/><path d="m593.39 128.6-0.45273 0.25778"/></g><path d="m592.94 128.86-0.46725 0.26424" stroke-width="1.498"/><path d="m592.47 129.12-0.48979 0.26422" stroke-width="1.498"/><g stroke-width="1.4977"><path d="m591.98 129.39-0.49142 0.26424"/><path d="m591.49 129.65-0.51558 0.25941"/><path d="m590.97 129.91-0.52846 0.22555"/><path d="m590.44 130.14-0.53009 0.20141"/><path d="m589.91 130.34-0.5349 0.17723"/></g><path d="m589.38 130.52-0.50914 0.14339" stroke-width="1.498"/><path d="m588.87 130.66-0.49786 0.12084" stroke-width="1.4988"/><path d="m588.37 130.78-0.48335 0.087" stroke-width="1.4991"/><path d="m587.89 130.87-0.94415 0.0886" stroke-width="1.4991"/><path d="m586.94 130.96-0.9071-0.0193" stroke-width="1.5002"/><path d="m586.04 130.94-0.87487-0.0692" stroke-width="1.5016"/><path d="m585.16 130.87-0.87487-0.0806" stroke-width="1.5038"/><path d="m584.29 130.79-0.80559-0.12084" stroke-width="1.5058"/><path d="m583.48 130.67-0.73631-0.1434" stroke-width="1.508"/><path d="m582.75 130.52-0.71698-0.12084" stroke-width="1.5095"/><path d="m582.03 130.4-0.68636-0.0806" stroke-width="1.5111"/><path d="m581.34 130.32-0.66059-0.10791" stroke-width="1.5117"/><path d="m580.68 130.21-0.62997-0.21428" stroke-width="1.5128"/><path d="m580.05 130-0.57841-0.34641" stroke-width="1.5148"/><path d="m579.47 129.65-0.52203-0.50269" stroke-width="1.5218"/><path d="m578.95 129.15-0.50429-0.64769" stroke-width="1.5414"/><path d="m578.45 128.5-0.46563-0.73631" stroke-width="1.5641"/><path d="m577.98 127.77-0.43985-0.80559" stroke-width="1.5828"/><path d="m577.54 126.96-0.22074-0.44146" stroke-width="1.5854"/><path d="m577.32 126.52-0.22074-0.45275" stroke-width="1.5817"/><path d="m577.1 126.07-0.20784-0.45918" stroke-width="1.5742"/><path d="m576.89 125.61-0.20139-0.45919" stroke-width="1.5599"/><path d="m576.69 125.15-0.33835-0.84427" stroke-width="1.5341"/><path d="m576.35 124.3-0.20784-0.62836" stroke-width="1.4019"/><path d="m602.74 93.131-0.43342-0.37218" stroke-width=".48075"/><path d="m602.31 92.759-0.43501-0.57196" stroke-width=".55751"/><path d="m601.87 92.187-0.51557-0.8056" stroke-width=".70152"/><path d="m601.36 91.381-0.27714-0.47852" stroke-width=".8287"/><path d="m601.08 90.903-0.29001-0.5043" stroke-width=".89172"/><path d="m600.79 90.399-0.32062-0.52202" stroke-width=".96095"/><path d="m600.47 89.877-0.34641-0.5043" stroke-width="1.0282"/><path d="m600.12 89.372-0.38346-0.46564" stroke-width="1.0951"/><path d="m599.74 88.907-0.42212-0.43985" stroke-width="1.1786"/><path d="m599.32 88.467-0.45919-0.40279" stroke-width="1.2556"/><path d="m598.86 88.064-0.50269-0.38346" stroke-width="1.3221"/><path d="m598.36 87.681-0.54135-0.36574" stroke-width="1.3784"/><path d="m597.81 87.315-0.58003-0.33996" stroke-width="1.4254"/><path d="m597.23 86.975-0.60903-0.30774" stroke-width="1.4658"/><path d="m596.62 86.667-0.64286-0.27712" stroke-width="1.5002"/><path d="m595.98 86.39-0.67992-0.24007" stroke-width="1.5308"/><path d="m595.3 86.15-0.70409-0.18851" stroke-width="1.5582"/><path d="m594.6 85.961-0.72987-0.13857" stroke-width="1.582"/><path d="m593.87 85.823-0.76853-0.0806" stroke-width="1.6024"/><path d="m593.1 85.742-0.79914-0.01933" stroke-width="1.6193"/><path d="m592.3 85.723-0.83137 0.05643" stroke-width="1.6341"/><path d="m591.47 85.779-0.86843 0.11274" stroke-width="1.6456"/><path d="m590.6 85.892-0.89904 0.19495" stroke-width="1.6549"/><path d="m589.7 86.087-0.91354 0.2594" stroke-width="1.6613"/><path d="m588.79 86.347-0.93771 0.30129" stroke-width="1.665"/><path d="m587.85 86.648-0.94415 0.35285" stroke-width="1.6683"/><path d="m586.91 87.001-0.93127 0.41568" stroke-width="1.6664"/><path d="m585.97 87.416-0.94414 0.46563" stroke-width="1.6624"/><path d="m585.03 87.882-0.93127 0.52848" stroke-width="1.6568"/><path d="m584.1 88.41-0.92482 0.59774" stroke-width="1.6507"/><path d="m583.17 89.008-0.91837 0.6477" stroke-width="1.6442"/><path d="m582.26 89.656-0.87487 0.7057" stroke-width="1.6369"/><path d="m581.38 90.362-0.84426 0.74276" stroke-width="1.6392"/><path d="m580.54 91.104-0.78625 0.76047" stroke-width="1.6456"/><path d="m579.75 91.865-0.71699 0.76209" stroke-width="1.6549"/><path d="m579.03 92.627-0.62997 0.72987" stroke-width="1.6616"/><path d="m578.4 93.357-0.53491 0.69926" stroke-width="1.6557"/><path d="m577.87 94.056-0.40279 0.66703" stroke-width="1.6171"/><path d="m577.47 94.723-0.26424 0.62836" stroke-width="1.5148"/><path d="m577.2 95.351-0.10791 0.60419" stroke-width="1.3369"/><path d="m577.09 95.956 0.0516 0.57357" stroke-width="1.0738"/><path d="m577.15 96.529 0.20139 0.45275" stroke-width=".83598"/><path d="m577.35 96.982 0.75403 0.53492" stroke-width=".5886"/><path d="m578.1 97.517 1.7127-0.2143" stroke-width=".15998"/><path d="m567.94 114.08-0.11443 0.64124" stroke-width=".77828"/><path d="m567.83 114.72-0.49623 0.48498" stroke-width=".87688"/><path d="m567.33 115.2-0.84427 0.59774" stroke-width="1.036"/><path d="m566.49 115.8-0.50912 0.32707" stroke-width="1.1618"/><path d="m565.98 116.13-0.54136 0.33996" stroke-width="1.2156"/><path d="m565.44 116.47-0.54781 0.32063" stroke-width="1.2612"/><path d="m564.89 116.79-0.54136 0.28356" stroke-width="1.2994"/><path d="m564.35 117.07-0.5349 0.2449" stroke-width="1.3414"/><path d="m563.81 117.32-0.50914 0.19495" stroke-width="1.3884"/><path d="m563.31 117.51-0.5043 0.13857" stroke-width="1.4411"/><path d="m562.8 117.65-0.50269 0.0822" stroke-width="1.4938"/><path d="m562.3 117.73-0.52202 0.0257" stroke-width="1.5498"/><path d="m561.78 117.76-0.56713-6e-3" stroke-width="1.6168"/><path d="m561.21 117.75-0.63482-0.0323" stroke-width="1.6932"/><path d="m560.57 117.72-0.71214-0.0435" stroke-width="1.7748"/><path d="m559.86 117.68-0.78626-0.0435" stroke-width="1.8552"/><path d="m559.08 117.63-0.84425-0.0451" stroke-width="1.9358"/><path d="m558.23 117.59-0.8797-0.0499" stroke-width="2.0087"/><path d="m557.35 117.54-0.9071-0.0323" stroke-width="2.0664"/><path d="m556.45 117.51-0.92482-0.0371" stroke-width="2.1084"/><path d="m555.52 117.47-0.94416-0.0371" stroke-width="2.1348"/><path d="m554.58 117.43-0.95059-0.0451" stroke-width="2.1527"/><path d="m553.63 117.39-0.93126-0.0564" stroke-width="2.1636"/><path d="m552.69 117.33-0.9071-0.0628" stroke-width="2.1715"/><path d="m551.79 117.27-0.86198-0.0758" stroke-width="2.1779"/><path d="m550.93 117.19-0.79914-0.0758" stroke-width="2.1824"/><path d="m550.13 117.12-0.72343-0.0822" stroke-width="2.1868"/><path d="m549.4 117.03-0.61709-0.0806" stroke-width="2.1885"/><path d="m548.79 116.95-0.51557-0.0822" stroke-width="2.1737"/><path d="m548.27 116.87-0.61064-0.17723" stroke-width="2.1241"/><path d="m547.66 116.69 0.68636-0.53492" stroke-width="1.8386"/><path d="m548.35 116.16 0.48981-0.27551" stroke-width=".59084"/><path d="m548.84 115.88 0.56713-0.36573" stroke-width=".33565"/><path d="m549.4 115.52 0.62353-0.45275" stroke-width=".13281"/><path d="m550.03 115.06 1.6611-1.3904" stroke-width=".022718"/><path d="m570.29 87.856 0.34639-0.39635" stroke-width=".48804"/><path d="m570.64 87.46 0.29485-0.38991" stroke-width=".56143"/><path d="m570.93 87.07 0.11927-0.61708" stroke-width=".73206"/><path d="m571.05 86.453-0.0999-0.91193" stroke-width=".8343"/><path d="m570.95 85.541-0.15788-0.52362" stroke-width=".94579"/><path d="m570.79 85.017-0.23847-0.53492" stroke-width="1.0102"/><path d="m570.56 84.482-0.29001-0.50269" stroke-width="1.0814"/><path d="m570.27 83.98-0.35768-0.46563" stroke-width="1.1688"/><path d="m569.91 83.514-0.42213-0.42214" stroke-width="1.2568"/><path d="m569.49 83.092-0.47852-0.3899" stroke-width="1.3377"/><path d="m569.01 82.702-0.54136-0.37864" stroke-width="1.4114"/><path d="m568.47 82.323-0.59129-0.35768" stroke-width="1.4722"/><path d="m567.87 81.966-0.65415-0.35285" stroke-width="1.5181"/><path d="m567.22 81.613-0.68637-0.35285" stroke-width="1.5585"/><path d="m566.53 81.26-0.72986-0.33351" stroke-width="1.5896"/><path d="m565.8 80.926-0.78142-0.33996" stroke-width="1.612"/><path d="m565.02 80.587-0.82332-0.32062" stroke-width="1.6313"/><path d="m564.2 80.266-0.8942-0.29485" stroke-width="1.6535"/><path d="m563.31 79.971-0.98121-0.24651" stroke-width="1.6795"/><path d="m562.32 79.725-1.065-0.17563" stroke-width="1.7117"/><path d="m561.26 79.549-1.1198-0.08217" stroke-width="1.7521"/><path d="m560.14 79.467-1.1649 0.01933" stroke-width="1.7935"/><path d="m558.97 79.486-1.1762 0.12567" stroke-width="1.8319"/><path d="m557.8 79.612-1.1584 0.23201" stroke-width="1.8622"/><path d="m556.64 79.844-1.1456 0.32224" stroke-width="1.8843"/><path d="m555.49 80.166-1.1004 0.40924" stroke-width="1.898"/><path d="m554.39 80.575-1.0328 0.49624" stroke-width="1.889"/><path d="m553.36 81.071-0.9377 0.58486" stroke-width="1.8434"/><path d="m552.42 81.656-0.8056 0.68636" stroke-width="1.7235"/><path d="m551.62 82.343-0.67347 0.76853" stroke-width="1.4994"/><path d="m550.94 83.111-0.52846 0.8491" stroke-width="1.1873"/><path d="m550.42 83.96-0.44147 0.90065" stroke-width=".8948"/><path d="m549.97 84.861-0.38346 0.92482" stroke-width=".61829"/><path d="m549.59 85.786-0.35929 0.95059" stroke-width=".3575"/><path d="m549.23 86.736-0.37702 0.96188" stroke-width=".1457"/><path d="m548.85 87.698-1.0505 2.4297" stroke-width=".022718"/></g><g stroke="#ff0" stroke-width="13.695"><path d="m589.46 105.68 0.0692-0.62353-0.11274-0.48497-0.42214-0.45919-0.71697-0.41569-0.45919-0.18205-0.52846-0.15146-0.58648-0.0999-0.62191-0.0323-0.64931 0.0564-0.65414 0.14501-0.62997 0.23845-0.61064 0.32868-0.57841 0.42052-0.54136 0.5043-0.48497 0.57842-0.40279 0.62997-0.31418 0.67992-0.18207 0.70409-0.0451 0.73631 0.0951 0.75564 0.23362 0.76853 0.35768 0.77337 0.46562 0.74276 0.57359 0.68636 0.65414 0.62192 0.74275 0.53491 0.82493 0.45435 0.89904 0.34641 0.95059 0.23845 1.0006 0.13856 1.007 0.0257 0.98765-0.0822 0.94415-0.19495 0.87487-0.32224 0.8056-0.44629 0.7363-0.58486 0.65576-0.71214 0.57842-0.82332 0.48496-0.90065 0.37702-0.93126 0.25134-0.94415 0.13857-0.92482 0.0193-0.90065-0.0886-0.84265-0.20139-0.76854-0.31418-0.67347-0.42858-0.57842-0.53975-0.47852-0.6493-0.37057-0.76048-0.27068-0.84426-0.14501-0.91194-0.0257-0.97637 0.0886-0.97476 0.21429-0.96993 0.32062-0.93771 0.42696-0.86198 0.53009-0.78626 0.60419-0.6928 0.67347-0.58486 0.7041-0.47208 0.72342-0.33352 0.72987-0.2014 0.73147-0.0692 0.7363 0.0758 0.72343 0.21268 0.6912 0.32868 0.65575 0.42696 0.58486 0.52202 0.5043 0.61709 0.40762 0.7057 0.29647 0.78625 0.15788h0.84909l0.88777-0.19011 0.90065-0.37058 0.88776-0.5784 0.84265-0.76854 0.75564-0.91837 0.65414-0.9941 0.50913-1.0199 0.36574-0.96994 0.23202-0.88775 0.0886-0.79916-0.0306-0.68475-0.1708-0.57358-0.30128-0.47208-0.42858-0.3464-0.5478-0.22557-0.65413-0.11443-0.72987 0.0129-0.78143 0.13857-0.7927 0.26422-0.78626 0.38991-0.73631 0.51719-0.65413 0.60419-0.57359 0.6606-0.44629 0.67347-0.32063 0.66059-0.19012 0.62352-0.0564 0.55908 0.0822 0.48497 0.58486 0.66703 0.51719 0.13855 0.64769-0.0435 0.7621-0.24006 0.8362-0.45918 0.89421-0.66703 0.88776-0.79916 0.84909-0.88775 0.7492-0.88777 0.56069-0.82976 0.28196-0.79271-0.087-0.67347-1.8061-1.2535" style="mix-blend-mode:multiply"/><path d="m557.56 95.459-0.50269-0.47852-0.4914-0.38346-0.57842-0.32707-0.64286-0.12084-0.77981 0.26424-0.43341 0.33996-0.47208 0.49786-0.46563 0.65414-0.44146 0.81849-0.38347 0.95059-0.30289 1.0698-0.18851 1.1584-0.0628 1.1955 0.0628 1.2019 0.20784 1.152 0.3464 1.0634 0.49141 0.93126 0.6348 0.77337 0.79916 0.56714 0.96348 0.33996 1.1262 0.0692 1.2519-0.20784 1.3357-0.49786 1.3582-0.76691 1.297-1.007 1.189-1.2019 1.0263-1.3534 0.82493-1.4662 0.60419-1.529 0.37702-1.5419 0.15788-1.5048-0.0516-1.4033-0.23201-1.2519-0.41569-1.0714-0.56552-0.86843-0.7057-0.66059-0.81204-0.43985-0.89904-0.20784-0.94416 6e-3 -0.95059 0.22556-0.92482 0.43502-0.86359 0.59131-0.76692 0.74275-0.66059 0.8491-0.52847 0.94415-0.39795 1.007-0.2578 1.0392-0.11927 1.0134v0.9506l0.11274 0.85554 0.19495 0.72342 0.25297 0.58486 0.31418 0.44146 0.6928 0.42696 0.72342-0.20139 0.33996-0.35768 0.30129-0.51076 0.24651-0.66059 0.18207-0.77981 0.1015-0.8491 0.0178-0.87487-0.0628-0.86358-0.1563-0.79915-0.23361-0.70408-0.32062-0.60419-0.40281-0.48497-0.47207-0.35929-0.51558-0.20784-0.56069-0.0371-0.56713 0.13857-0.55264 0.30774-0.51074 0.46563-0.44631 0.59292-0.35929 0.66703-0.25778 0.6912-0.12567 0.67347 0.0193 0.58647 0.16917 0.45275 0.84265 0.43341 0.62353-0.0435 0.69925-0.18851 0.6912-0.28357 0.62353-0.32062 0.51719-0.30935 0.58486-0.42697" style="mix-blend-mode:multiply"/><path d="m604.3 144.21 0.55424-0.15144 0.2578-0.42858-0.72343 0.1579-0.76209 0.66703-0.42052 0.50269-0.40923 0.60419-0.36574 0.68636-0.30129 0.72987-0.22074 0.75564-0.11926 0.72986-0.0193 0.68637 0.0999 0.60419 0.22074 0.49786 0.3464 0.35768 0.48497 0.17078 0.62353-0.0387 0.75403-0.28839 0.85071-0.56069 0.91192-0.8056 0.9377-1.0134 0.91194-1.1456 0.86359-1.2084 0.77981-1.2084 0.66703-1.1649 0.54136-1.0876 0.40279-0.98926 0.26424-0.8797 0.145-0.7492 0.0435-0.62353-0.0306-0.50431-0.28357-0.66704-0.49785-0.33351-0.61064-0.0628-0.69765 0.22073-0.70569 0.54137-0.32707 0.38991-0.3013 0.47207-0.27067 0.51075-0.20785 0.52846-0.145 0.51559-0.0371 0.86198 0.3899 0.5043 0.86199 6e-3 0.56552-0.20785 0.62353-0.35929 0.65414-0.47852 0.63642-0.56552 0.61707-0.61065 0.55909-0.62353 0.48496-0.60419 0.4028-0.57841 0.32062-0.54782 0.24651-0.52363 0.17562-0.48335 0.13212-0.79431-0.48497-0.47047-0.94898 0.3448-0.68637 0.4479-0.80559 0.66059-0.91998 0.88131-0.98765 1.0892-1.044 1.2889-1.0763 1.4855-1.0827 1.6563-1.0698 1.7932-1.0392 1.8947-0.97477 1.9447-0.9071 1.9125-0.82331 1.819-0.7363 1.6676-0.61709 1.4549-0.51719 1.2197-0.39635 0.96993-0.28195 0.73631-0.18368 0.50269 0.33352-0.43985 0.24651-0.63643 0.25778-0.72986 0.22557-0.76692 0.18368-0.75565 0.11926-0.68636 0.0435-0.5913-0.0242-0.49786-0.35929-0.62836-0.82493-0.11926-0.60419 0.14339-0.74275 0.29646-0.86843 0.42858-0.98765 0.54779-1.0956 0.64126-1.1826 0.69926-1.2277 0.71053-1.2519 0.70408-1.2277 0.66864-1.1826 0.61547-1.1262 0.5478-1.0521 0.47852-0.98765 0.40924-0.91838 0.35285-0.8507 0.28841-0.78626 0.24006-0.73631 0.19496-0.67348 0.15144-0.62353 0.11927-0.5784 0.0934-0.52848 0.058-0.48496 0.0178-0.82493-0.0499-0.62191-0.15789-0.49785-0.25134-0.44631-0.28357-0.46563-0.21912-0.53491-0.11927-0.57357-0.0129-0.58486 0.0999-0.61709 0.22073-0.62353 0.33996-0.58486 0.40924-0.50429 0.40279-0.43986 0.38991 0.47853-0.18851 0.98765-0.48497 0.76853-0.33351 0.98765-0.42213 1.2277-0.52202 1.4726-0.64126 1.7111-0.76853 1.9076-0.88775 2.0269-1.0006 2.0575-1.0698 1.9882-1.102 1.8319-1.0763 1.6112-1.0054 1.3534-0.90066 1.0892-0.76853 0.8362-0.6348 0.60419-0.51075 0.38507-0.42052 0.11926-0.66703-0.90709-0.47852-0.89904-0.12567h-1.2019l-1.4984 0.16273-1.7691 0.36574-1.9882 0.58486-2.1332 0.78625-2.2025 0.95704-2.2105 1.0698-2.1332 1.1326-2.014 1.1456-1.8368 1.1085-1.6434 1.0376-1.4162 0.91998-1.1891 0.79915-0.94414 0.66703-0.68637 0.52203-0.42214 0.37701 0.6042 0.0387 0.8942-0.42214 1.2584-0.64124 1.6112-0.8507 1.9334-1.0376 2.1638-1.1907 2.3104-1.2954 2.2975-1.347 2.1525-1.3099 1.8932-1.202 1.5677-1.0312 1.2213-0.84426 0.86843-0.65414 0.54136-0.48496 0.10634-0.60419-1.2084-0.18207-1.0876 0.0999-1.3727 0.25779-1.6241 0.40924-1.7997 0.57357-1.9189 0.69282-1.9447 0.78625-1.9205 0.84266-1.8319 0.8507-1.6982 0.82331-1.5548 0.77497-1.3856 0.68637-1.2019 0.59131-1.0118 0.49623-0.82493 0.38508-0.6493 0.28195-0.48336 0.19657-0.57358 0.1434-0.22556-0.56552 0.18206-0.63642 0.23846-0.52847 0.30289-0.60419 0.27713-0.64126 0.14501-0.60419-0.0822-0.6493-0.48497-0.25135-0.51557 0.0951-0.62353 0.27714-0.6477 0.38345-0.60419 0.45275-0.54136 0.50913-0.48497 0.50429-0.44629 0.45275-0.44146 0.38508-0.43986 0.32062-0.44791 0.27712-0.48496 0.2449-0.50269 0.23201-0.47208 0.20784-0.5913 0.18368-0.49785-0.0257-0.54781-0.0564-0.56553 0.0564-0.5478 0.11927-0.50913-0.13856-0.57358-0.25779-0.59775-6e-3 -0.5913 0.0628-0.47852-0.16273 0.30774 0.56552 0.13211 0.52848 0.12728 0.7057 0.13696 0.86197 0.17722 0.98765 0.2014 1.0827 0.22557 1.1278 0.27712 1.1262 0.28357 1.0876 0.29001 1.0086 0.30129 0.90549 0.30291 0.80559 0.32062 0.68636 0.33995 0.56552 0.37702 0.44148 0.40924 0.28356 0.96994 0.0999 0.55907-0.18207 0.59936-0.32062 0.60903-0.44791 0.62353-0.54136 0.61708-0.58486 0.5913-0.59774 0.56069-0.56714 0.50914-0.52203 0.47853-0.46562 0.44146-0.40279 0.40762-0.32708 0.73793-0.45274 0.60902-0.19012 0.56713 0.0644 0.61065 0.28196 0.67347 0.42857 0.78626 0.49785 0.44629 0.21913 0.49786 0.19495 0.54136 0.14501 0.56713 0.10791 0.59775 0.0934 0.60419 0.0692 0.58486 0.0758 0.57842 0.0822 0.55424 0.0934 0.54136 0.1015 0.52847 0.0999 0.53491 0.0886 0.54135 0.0758 0.56715 0.0371h0.61063l0.66059-0.0564 0.72341-0.12567 0.78626-0.2014 0.83137-0.28357 0.87488-0.35768 0.85553-0.39636 0.81848-0.40279 0.7492-0.37218 0.66059-0.33351 0.56552-0.27068 0.49786-0.22074 0.81203-0.32062 0.66059-0.2014 0.54136-0.11927 0.66058-0.11927 0.51074-0.0822 0.57842-0.28357 0.55424-0.50269 0.6912-0.75564 0.36574-0.43502 0.36574-0.47208 0.34479-0.45273 0.32224-0.42214 0.54136-0.66058 0.37702-0.41407-0.63642-0.44792" style="mix-blend-mode:multiply"/></g><path d="m614 88.718 0.47207 0.23363 0.21913-0.55425-0.0692-0.57197-0.0741-0.81849-0.0644-1.0521-0.0564-1.2825-0.0435-1.4549-0.0371-1.5677-0.0387-1.616-0.0435-1.6064-0.0564-1.529-0.0628-1.4162-0.0758-1.2648-0.0692-1.0892-0.0758-0.89904-0.0628-0.6928-0.0564-0.51558-0.3464 0.90548-0.0758 1.2084-0.0499 1.6434-0.0516 2.0381-0.0371 2.399-0.0323 2.681-0.0499 2.8566-0.0499 2.9146-0.0692 2.8196-0.0692 2.5795-0.0628 2.2347-0.0564 1.8255-0.0323 1.3969 0.0129 1.0134 0.0628 0.63641 0.7492-0.25295 0.4334-0.81687 0.46725-1.1343 0.47691-1.4033 0.4479-1.6176 0.39635-1.7997 0.33352-1.9383 0.26423-2.0704 0.20141-2.1654 0.15144-2.246 0.0999-2.2782 0.0822-2.2541 0.0758-2.159 0.0628-2.0011 0.0499-1.7433 0.0499-1.4597 0.0387-1.1327 0.0306-0.83782 0.0323-0.56552 0.0193 0.65415-0.0323 0.76691-0.0435 0.9071-0.0628 0.96348-0.0758 0.949-0.0692 0.87004-0.0692 0.74114-0.0499 0.58647-0.0387 0.68636 0.48496-0.7057 0.23845-0.66703 0.25296-0.83137 0.25135-0.95542 0.22717-1.0263 0.20139-1.0457 0.1563-1.0134 0.11926-0.94254 0.0822-0.84425 0.0564-0.72342 0.0323-0.61063 0.0193-0.52202-0.0193-0.78787-0.10151-0.61548-0.42697 0.29485-0.27712 0.52848-0.2449 0.52363-0.24651 0.51558-0.56553 0.20139-0.78141 0.12567-0.90549 0.54781-0.58647 0.5349-0.66703 0.72986-0.74114 0.96994-0.80076 1.2084-0.82331 1.4468-0.83137 1.674-0.80559 1.8448-0.76693 1.9318-0.71858 1.9318-0.64769 1.819-0.58003 1.6241-0.48981 1.3647-0.40279 1.0714-0.31579 0.77337-0.21913 0.49141-0.13855-0.56069 0.11274-0.94416 0.16434-1.2841 0.20141-1.529 0.21428-1.6611 0.19978-1.7062 0.18368-1.6676 0.145-1.5854 0.10634-1.4791 0.0692-1.3534 0.0193-1.2148-0.0193-1.0392-0.0564-0.86198-0.1015-0.67992-0.15629-0.4898-0.49141-0.42213-0.76209 0.42213-0.48336 0.54136-0.5349 0.72987-0.55425 0.8926-0.57359 1.0199-0.5349 1.0698-0.50269 1.0521-0.45919 0.96188-0.39635 0.81848-0.32868 0.63642-0.2449 0.47207-0.0758-0.96348 0.19496-0.94415 0.22718-1.0956 0.23845-1.1762 0.22074-1.1713 0.17078-1.1133 0.11274-1.0392 0.0371-0.93127-0.0306-0.81848-0.0886-0.68476-0.15789-0.56069-0.53491-0.62997-0.93127 0.22074-0.62836 0.50913-0.71858 0.80076-0.77337 1.044-0.81849 1.2454-0.82491 1.3792-0.81204 1.4468-0.77982 1.442-0.71053 1.347-0.63641 1.1762-0.52848 0.96994-0.42212 0.73631-0.31418 0.48497-0.21428-0.79915 0.145-0.78787 0.18851-0.89259 0.19495-0.92643 0.17723-0.90548 0.13212-0.86199 0.0806-0.78787 0.0323-0.69764-0.0323-0.58486-0.26424-0.78787-0.55263-0.23845-0.83783 0.38346-0.4914 0.43502-0.52202 0.56552-0.55425 0.67992-0.56553 0.76853-0.58486 0.84264-0.59292 0.9071-0.59129 0.93771-0.56553 0.93771-0.51075 0.86198-0.45919 0.74276-0.39635 0.58486-0.32062 0.42212-0.46562 0.37058-0.25297-0.42214-0.0109-0.65414-0.0257-0.69764-0.0758-0.62353-0.11927-0.59775-0.145-0.65414-0.11274-0.76209-6e-3 -0.88776 0.0242-0.52202 0.0516-0.57841 0.0499-0.62353 0.0628-0.64931 0.0692-0.66058 0.0499-0.6477 0.0516-0.64125 0.0178-0.61063v-0.59292l-0.0371-0.54619-0.0822-0.5043-0.27068-0.82493-0.42857-0.47208-0.66058 0.01933-0.41569 0.2449-0.47691 0.42213-0.51719 0.60419-0.5478 0.76853-0.56552 0.92483-0.57842 1.0505-0.57359 1.1456-0.56069 1.2084-0.52846 1.2213-0.4898 1.1778-0.42857 1.0875-0.36575 0.95704-0.29484 0.78626-0.22073 0.60419-0.18206 0.61063 0.47852-0.78625 0.32707-0.70409 0.38346-0.87487 0.41568-1.0022 0.42858-1.0875 0.43985-1.1713 0.43986-1.239 0.42212-1.2777 0.38991-1.3035 0.33996-1.2906 0.26424-1.2519 0.19494-1.2019 0.12084-1.1456 0.0499-1.0827v-1.007l-0.0451-0.93771-0.087-0.86198-0.11926-0.76853-0.15145-0.6912-0.16434-0.58648-0.16918-0.48496-0.37218-0.68476-0.38991-0.32223-0.71053 0.11443-0.59774 0.47208-0.3593 0.38346-0.40279 0.49786-0.4463 0.60419-0.49785 0.71053-0.52203 0.82493-0.54781 0.93771-0.56069 1.0247-0.55263 1.0956-0.56069 1.1391-0.54136 1.1327-0.50913 1.0892-0.47208 1.0005-0.40279 0.88776-0.33351 0.74275-0.27068 0.59131-0.2014 0.45273-0.24007 0.47208-0.0628-0.5478 0.0951-0.92483 0.0628-0.55907 0.0822-0.59292 0.0806-0.60419 0.0758-0.60419 0.0628-0.59775 0.0387-0.56552 6e-3 -0.54136-6e-3 -0.4914-0.10151-0.77337-0.21428-0.44147h-0.50913l-0.42858 0.4028-0.43341 0.62353-0.3899 0.72341-0.35285 0.76209-0.32063 0.82493-0.30289 0.86842-0.26424 0.84266-0.18851 0.67991-0.13857 0.54781 0.28358-0.52202 0.13856-0.67992 0.10634-0.57358 0.0758-0.57841v-0.49141l-0.16434-0.51558-0.25135-0.60419-0.14501-0.5043-0.15628-0.47852-0.36574-0.54619-0.57196-0.30291-0.62353-0.09993-0.5913 0.09341-0.51075 0.22074-0.30774 0.44629-0.0886 0.64286v0.62192l0.0499 0.53007 0.0451 0.60419v0.67832l-0.0451 0.71214-0.0628 0.61709-0.0178 0.50269 0.3464-0.47852 0.15629-0.48497 0.36573 0.36574 0.26424 0.69926 0.35929 0.86842 0.21913 0.46564 0.25134 0.46563 0.3029 0.43985 0.35285 0.40279 0.4028 0.3593 0.45919 0.30773 0.51557 0.27713 0.58485 0.24651 0.6622 0.21912 0.73632 0.2014 0.7927 0.20139 0.86198 0.2143 0.91837 0.22718 0.95704 0.24489 1.007 0.2578 1.0392 0.25778 1.0505 0.24651 1.0698 0.23845 1.0892 0.20784 1.1069 0.17563 1.1262 0.12728 1.1456 0.07407 1.152 0.02574 1.1778-0.01933 1.1762-0.03057 1.1778-0.04991 1.152-0.03226 1.1133-0.01293 1.0827 0.01933 1.044 0.06284 1.007 0.11274 0.96994 0.17078 0.92481 0.25134 0.88132 0.30774 0.82492 0.37862 0.77337 0.42214 0.73632 0.45273 0.6928 0.47852 0.66703 0.47852 0.64125 0.45275 0.63641 0.42052 0.61065 0.38508 0.61707 0.35285 0.6042 0.32706 0.59131 0.32063 0.59774 0.32062 0.57198 0.33996 0.57357 0.35285 0.55425 0.3899 0.53975 0.42213 0.52363 0.45275 0.49625 0.48496 0.46563 0.49625 0.44146 0.48496 0.40924 0.46564 0.39635 0.43502 0.36412 0.3899 0.34641 0.3593 0.66703 0.60903 0.63642 0.57357 0.55907 0.58486 0.40925 0.67348 0.22717 0.84425 0.0999 0.96188 0.0323 0.93127-0.0323 0.8056-0.0628 0.67991-0.0692 0.68636-0.0999 0.90066-0.0758 0.56552-0.0951 0.6493-0.10634 0.73631-0.12567 0.8056-0.13855 0.87487-0.15146 0.95544-0.14501 1.007-0.14338 1.0328-0.13857 1.0263-0.12084 0.98121-0.087 0.91193-0.0516 0.83137 0.0129 0.75564 0.0692 0.65414 0.15146 0.57198 0.22718 0.48496 0.30128 0.38991 0.78626 0.54136 0.46563 0.145 0.5043 0.0886 0.53491 0.0257 0.5478-0.0193 0.54781-0.0564 0.55263-0.0886 0.5478-0.13855 0.54781-0.2014 0.56069-0.27712 0.55907-0.35285 0.54136-0.42052 0.51075-0.45435 0.46563-0.42697 0.41568-0.36573 0.68476-0.43341 0.51075 0.11274 0.37056 0.74276 0.12567 0.58486 0.0886 0.6928 0.0758 0.75565 0.0628 0.76692 0.0758 0.74276 0.0999 0.67347 0.12728 0.59775 0.16273 0.48496 0.47852 0.57842h0.7492l0.48496-0.21912 0.54136-0.37863 0.57842-0.52203 0.59774-0.64769 0.58486-0.76208 0.55425-0.82493 0.50429-0.84265 0.43986-0.81203 0.36574-0.73632 0.29485-0.61063 0.22073-0.47852 0.24489-0.50269-0.0564 0.64125-0.10634 0.6493-0.12567 0.83621-0.12084 0.94415-0.0934 0.98766-0.0451 0.96992v0.89904l0.058 0.78787 0.10634 0.65415 0.16274 0.51557 0.52363 0.58647h0.76692l0.45436-0.2014 0.45273-0.30934 0.45275-0.38991 0.40924-0.41569 0.36573-0.42212 0.32063-0.39636 0.51557-0.64125 0.37219-0.44146 0.45274-0.30129 0.58486 0.15145 0.42858 0.47208 0.34479 0.51557 0.2594 0.40925 0.4334 0.49624 0.40281 0.40279 0.43502 0.29002 0.55907-0.16274 0.58002-0.54135 0.33997-0.40279 0.3464-0.47208 0.33835-0.52203 0.30934-0.54135 0.27713-0.54136 0.23845-0.51074 0.18851-0.47208 0.24651-0.71053 0.13857-0.54136 0.0371 0.67993 0.0435 0.78624 0.1015 0.78627 0.17563 0.54779 0.51719 0.10151 0.52846-0.5478 0.28358-0.44146 0.28195-0.50269 0.25778-0.54136 0.19013-0.52847 0.13855-0.5043 0.0628-0.81687-0.30289-0.51075-0.50269 0.29647-0.33352 0.35123-0.37863 0.47852-0.38346 0.58003-0.37702 0.63481-0.33995 0.6928-0.29001 0.71054-0.23847 0.72503-0.18367 0.72986-0.13212 0.72343-0.0628 0.70408-6e-3 0.66702 0.0451 0.61065 0.0934 0.53007 0.22717 0.78626 0.19497 0.45919-0.29002 0.45275-0.62836 0.23361-0.62998 0.22557-0.54136-0.0178-0.68636-0.38508-0.42052-0.37056-0.48496-0.49786-0.54136-0.59775-0.60419-0.64769-0.66703-0.66703-0.72342-0.64931-0.78787-0.60419-0.84265-0.53975-0.90064-0.44146-0.9506-0.32707-1.0006-0.21429-1.0376-0.0886-1.0827 0.0129-1.1198 0.11927-1.152 0.21428-1.1842 0.29001-1.2084 0.35929-1.2148 0.41408-1.2197 0.45435-1.1971 0.48336-1.1633 0.51075-1.1262 0.51557-1.0827 0.52202-1.0392 0.52364-1.0134 0.52202-0.95544 0.50269-0.91998 0.49786-0.85554 0.48496-0.79915 0.46563-0.72987 0.4463-0.66057 0.42213-0.58648 0.39635-0.51557 0.35929-0.43985 0.32063-0.65576 0.51557-0.40279 0.3593 0.6493 0.15628 0.57842-0.0741 0.58486-0.0451 0.57357-6e-3h0.55909l0.54779-0.0306 0.53492-0.0628 0.48496-0.0758 0.60419-0.16434 0.52848-0.23845-0.87487 0.19495-0.53492 0.18207-0.62352 0.22717-0.6912 0.29002-0.74276 0.31418-0.78142 0.35285-0.80559 0.36412-0.82331 0.36574-0.84426 0.35768-0.85554 0.33996-0.88131 0.32224-0.89904 0.28839-0.9071 0.27713-0.91194 0.26423-0.92642 0.2578-0.94254 0.25295-0.98283 0.25778-1.0376 0.26424-1.1085 0.28357-1.1826 0.30129-1.2471 0.31418-1.2712 0.30935-1.2841 0.30128-1.2648 0.29647-1.2084 0.28356-1.1456 0.26424-1.0505 0.23845-0.93127 0.2014-0.81847 0.16434-0.68637 0.13857-0.56552 0.10633-0.81848 0.15145-0.62998 0.087-0.54136 0.0822-0.72986 0.37218-0.81848 0.42696-0.45274 0.24007-0.47852 0.22557-0.47853 0.21428-0.46562 0.18368-0.45919 0.16273-0.87487 0.29645-0.82493 0.20785-0.74758 0.0999-0.6622-6e-3 -0.60419-0.11927-0.66059-0.2014-0.7492-0.27068-0.82331-0.26424-0.86843-0.20139-0.88131-0.1579-0.88133-0.13211-0.87487-0.0999-0.88775-0.0692-0.92483-0.0257-0.94415 0.0257-0.90064 0.0692-0.7927 0.0435-0.66059 6e-3 -0.53492-0.0257-0.56713-0.0999-0.40763-0.3029-0.17723-0.54619-0.43985-0.25296-0.42213 0.33997-0.42858 0.35284-0.38991 0.29002-0.57196 0.36412-0.40279 0.31579-0.42858 0.35768-0.38346 0.36574-0.44147 0.48496-0.32706 0.40764-0.28841 0.53491-0.35285 0.53008-0.40279 0.42696-0.42214 0.27068 0.0628-0.6912 0.1015-0.53007 0.13857-0.57842 0.16917-0.5913 0.22074-0.61709 0.27068-0.61063 0.31418-0.58486 0.35929-0.50431 0.39635-0.37701 0.42696-0.29002 0.44791-0.25778 0.49625-0.27712 0.62353-0.38347 0.83137-0.5913 0.49623-0.40279 0.52848-0.47208 0.55424-0.51075 0.52847-0.5349 0.5043-0.50915 0.45918-0.46562 0.4028-0.41569 0.35284-0.34641 0.59132-0.5784 0.47206-0.51075 0.43986-0.54136 0.4028-0.56552 0.26423-0.46563-0.48336-0.0564-0.5478 0.34641-0.58002 0.33834-0.4898 0.2594 0.0822-0.75564 0.32707-0.37219 0.38347-0.40279 0.42856-0.41408 0.45275-0.40279 0.44629-0.36574 0.42858-0.32707 0.40924-0.28356 0.6912-0.44631 0.58647-0.35285 0.56552-0.33995 0.59775-0.42696 0.66703-0.54136 0.37863-0.30935 0.38345-0.33996 0.38347-0.35769 0.36573-0.35929 0.6477-0.64769 0.51558-0.54136 0.40279-0.49141 0.37864-0.57358 0.40279-0.69765 0.35285-0.7363 0.2014-0.56713-0.59292-0.11275-0.74276 0.62353-0.42696 0.47852-0.47208 0.57842-0.48496 0.67347-0.50269 0.75565-0.50429 0.82331-0.49142 0.87487-0.48335 0.91999-0.47208 0.9506-0.4479 0.96831-0.42052 0.96994-0.38508 0.97477-0.34479 0.93771-0.3158 0.91837-0.28356 0.88775-0.25134 0.86199-0.23846 0.84425-0.23362 0.81204-0.22074 0.78626-0.20622 0.74276-0.19657 0.69924-0.16917 0.63482-0.15145 0.5784-0.11927 0.51719-0.13211 0.81204 0.0499 0.59775 0.25134 0.44629 0.39152 0.36575 0.52202 0.33995 0.65414 0.30774 0.75565 0.28357 0.86198 0.23846 0.48496 0.0822 0.52202 0.0692 0.57842 0.0323 0.62997 0.0109 0.69926-0.0178 0.77336-0.058 0.87487-0.087 0.95705-0.13213 1.0634-0.17078 1.1649-0.21912 1.2519-0.2594 1.3405-0.28195 1.3969-0.29647 1.4356-0.28356 1.4597-0.27068 1.4533-0.27068 1.4291-0.2449 1.3904-0.23845 1.3405-0.22718 1.297-0.22073 1.2712-0.22557 1.2583-0.24006 1.2535-0.23846 1.2213-0.24006 1.1762-0.21913 2.1719-0.39152 0.96831-0.18205 0.88777-0.18852 0.80559-0.18207 0.73631-0.17078 0.66703-0.16273 0.61063-0.1579 0.57359-0.14501 0.53491-0.15789 0.52203-0.16273 0.51557-0.17724 0.52202-0.18205 0.54136-0.19496 0.56714-0.20785 0.5913-0.23845 0.62353-0.26423 0.6348-0.28356 0.62353-0.29647 0.60419-0.28195 0.56714-0.27068 0.52847-0.27068 0.50269-0.24651 0.47852-0.23845 0.45918-0.22718 0.44792-0.21429 0.84908-0.40923 0.78626-0.40281 0.7057-0.35768 0.58486-0.27068 0.45275-0.20139 0.50429-0.21429 0.44629-0.23846 0.52203-0.40279 0.52364-0.44147 0.43985-0.35285 0.4914-0.27712 0.52203-0.2449 0.50269-0.25779 0.61708-0.32062 0.69281-0.3464 0.69765-0.31419 0.58646-0.20784 0.61709-0.0564 0.44629 0.28197 0.29002 0.41568 0.28195 0.62353 0.22073 0.87487 0.0758 0.54136 0.0564 0.59774 0.0323 0.62352 0.0306 0.62837 0.0257 0.62352 0.0306 0.59131 0.0451 0.58003 0.0628 0.53974 0.0822 0.50431 0.21913 0.88775 0.26422 0.70409 0.26424 0.5043 0.33996 0.51558 0.27713 0.43502 0.20139 0.47208-0.0129 0.55263-0.27068 0.56069-0.28197 0.45919-0.26422 0.44629-0.3158 0.60419-0.17562 0.52365-0.0822 0.59774-0.0371 0.50268-0.10791 0.65415-0.11927 0.51719-0.14501 0.56553-0.17561 0.66219-0.24007 0.76049-0.30773 0.84426-0.3593 0.90548-0.18206 0.47208-0.16917 0.5043-0.17079 0.52202-0.15145 0.54136-0.14984 0.55908-0.14501 0.56713-0.145 0.58486-0.1579 0.6042-0.16273 0.61708-0.17723 0.62997-0.18207 0.62836-0.18205 0.63642-0.18368 0.62353-0.18206 0.60903-0.18207 0.60419-0.17562 0.60419-0.1579 0.6042-0.13855 0.59936-0.1015 0.58486-0.0693 0.55423-0.0435 0.54136-0.0193 0.52202-0.0109 0.51559v1.5355l-6e-3 0.52202-0.0193 0.53007-0.0323 0.55264-0.0306 0.56714-0.0387 0.58485-0.0371 0.61064-0.0371 0.64125-0.0387 0.67347-0.0435 0.69282-0.0564 0.71697-0.0628 0.72503-0.0822 0.72987-0.10151 0.72986-0.11926 0.74276-0.14501 0.74275-0.16273 0.74276-0.17722 0.72986-0.18207 0.70409-0.18207 0.66703-0.17722 0.62353-0.16274 0.58486-0.1579 0.56069-0.145 0.55424-0.14501 0.54781-0.15628 0.54619-0.16434 0.5478-0.17561 0.55425-0.18207 0.5478-0.18368 0.56069-0.19495 0.56552-0.2014 0.58003-0.20784 0.58486-0.20784 0.57196-0.2014 0.57359-0.19495 0.5478-0.17562 0.52847-0.16434 0.50269-0.15629 0.47852-0.26423 0.86842-0.22717 0.78143-0.22074 0.65413-0.2014 0.55425-0.20139 0.50913-0.21913 0.51558-0.22072 0.54136-0.2014 0.57359-0.20141 0.58486-0.44146 1.1713-0.22557 0.57842-0.24005 0.54136-0.22557 0.50913-0.22074 0.49785-0.22072 0.47852-0.21913 0.46563-0.22073 0.4463-0.3029 0.64287-0.23845 0.64769-0.1708 0.49624-0.20139 0.59292-0.21912 0.69119-0.22073 0.68637-0.21429 0.60419-0.16918 0.49141-0.20139 0.53491-0.29001 0.58486-0.32707 0.35285-0.57842 0.17562-0.53007-0.16273-0.50914-0.26424-0.66058-0.33995-0.8056-0.36575-0.45918-0.17561-0.49142-0.16434-0.52202-0.15628-0.55424-0.13857-0.57198-0.12084-0.60419-0.087-0.63641-0.0628-0.65415-0.0387-0.67991-0.0193-0.69925-5e-3h-1.434l-0.72503 5e-3 -0.70408 0.0193-0.68636 0.0257-0.66703 0.0499-0.66059 0.0499-0.66059 0.0758-0.66058 0.0886-0.64931 0.11274-0.64124 0.12567-0.62353 0.13857-0.60419 0.13856-0.58486 0.12568-0.56715 0.11443-0.54135 0.087-0.50269 0.0822-0.86198 0.15146-0.63642 0.11275-0.62353 0.11926-0.51557 0.0516-0.4028-0.36573-0.45919-0.47852-0.40279-0.46564-0.2014-0.45273-0.14501-0.62998-0.0999-0.77981-0.0758-0.82493-0.0692-0.78625-0.1015-0.7057-0.16274-0.62192-0.2014-0.58646-0.17078-0.62192-0.087-0.7057v-0.75564l0.0628-0.76049 0.0758-0.70569 0.0677-0.55908 0.0516-0.51719-0.47853-0.37057-0.64769-0.0758-0.7057 0.0499-0.92481 0.12567-0.52203 0.0951-0.54135 0.0999-0.54136 0.10791-0.52363 0.0999-0.48981 0.0822-0.88131 0.1015-0.76209 0.0178-0.6912-0.0564-0.73631-0.145-0.82493-0.21912-0.83781-0.26424-0.7798-0.29645-0.66059-0.30291-0.51075-0.33995-0.3899-0.35124-0.53492-0.45919-0.6348-0.34641-1.2277-0.47207-0.34641-0.35285-0.0193-0.64125 0.058-0.52363 0.53975 0.0257 0.53491 0.22073 0.81849 0.29485 0.54135 0.16434 0.6493 0.18206 0.78627 0.19496 0.95704 0.18367 1.1326 0.16918 1.3276 0.13855 1.5097 0.0951 1.6756 0.0435 1.811-0.0193 1.9076-0.0758 1.9705-0.10634 1.9818-0.145 1.9898-0.17562 1.9689-0.2014 1.9205-0.24006 1.8819-0.27068 1.819-0.3013 1.7675-0.33351 1.7191-0.35285 1.6853-0.3899 1.6498-0.42857 1.6176-0.48497 1.5983-0.54135 1.5226-0.58486 1.442-0.61709 1.3147-0.60419 1.1649-0.57197 1.0005-0.53491 0.83137-0.45275 0.66058-0.38507 0.50269-0.30129 0.56714-0.38346-0.82493 0.13211-0.72986 0.25135-0.94415 0.33351-1.1391 0.43341-1.297 0.5043-1.4275 0.56069-1.5306 0.59131-1.5918 0.60419-1.6305 0.59774-1.6354 0.55426-1.6112 0.51558-1.5612 0.45918-1.4726 0.3899-1.3663 0.33997-1.2326 0.27712-1.0892 0.22074-0.93771 0.16272-0.76853 0.12084-0.61065 0.0677h-0.77981l0.10151-0.74113 0.43985-0.53492 0.66703-0.7057 0.88776-0.85554 1.1069-0.97637 1.3292-1.0876 1.5097-1.1778 1.6547-1.239 1.7256-1.2841 1.674-1.2841 1.5419-1.2148 1.3147-1.0827 1.0634-0.9055 0.80558-0.70569 0.54781-0.48497-0.91193 0.95061-0.90065 0.79914-1.0956 0.92481-1.2648 1.007-1.3904 1.0392-1.4791 1.044-1.5161 1.007-1.5113 0.94415-1.4533 0.8507-1.3663 0.74276-1.2277 0.62192-1.0634 0.5043-0.86843 0.39635-0.66703 0.29001-0.45918 0.2014 1.1262-0.23363 0.94416-0.30128 1.1456-0.37219 1.3163-0.40924 1.4726-0.44629 1.6112-0.48496 1.724-0.51559 1.7997-0.54135 1.8255-0.55425 1.7739-0.5607 1.6563-0.54135 1.4791-0.50269 1.2583-0.42857 1.0392-0.35124 0.81042-0.27068 0.62353-0.2014 0.75565-0.25295-0.47208 0.49785-0.61064 0.38346-0.82493 0.48497-1.044 0.58486-1.2342 0.68637-1.4098 0.76853-1.5596 0.84265-1.6756 0.88776-1.7546 0.89904-1.8061 0.88775-1.8126 0.86843-1.7691 0.84427-1.6934 0.81847-1.5919 0.77337-1.4662 0.73631-1.3341 0.68636-1.1907 0.62836-1.044 0.58648-0.90066 0.5349-0.7492 0.46564-0.61063 0.4028-0.47692 0.32707-0.58646 0.45273 0.57358 0.1708 0.61707-0.10791 0.81204-0.18206 1.0005-0.2578 1.1697-0.33995 1.3405-0.42858 1.4984-0.52202 1.6611-0.63641 1.782-0.72987 1.869-0.81203 1.869-0.87487 1.7739-0.86843 1.5935-0.8056 1.347-0.6912 1.0827-0.56069 0.82331-0.41568 0.6042-0.28356 0.68636-0.23847-0.0306 0.54136-0.28357 0.43985-0.40925 0.54781-0.52846 0.64287-0.62353 0.69763-0.69926 0.72504-0.74274 0.72342-0.7476 0.70408-0.7363 0.66703-0.68637 0.62353-0.61064 0.55425-0.52202 0.48979-0.42213 0.40925-0.54136 0.58646-6e-3 0.48336 0.60419 0.22073 0.88776 0.17724 0.88776 0.14338 0.72343 0.14501 0.50269 0.13856 0.54135 0.13857 0.5478 0.0564 0.72343-0.0934 0.6493-0.2594 0.75564-0.51557 0.4028-0.38991 0.41407-0.46563 0.42213-0.54781 0.42213-0.62353 0.41569-0.68474 0.40279-0.74276 0.4028-0.78787 0.3899-0.81687 0.38991-0.83781 0.37057-0.86843 0.35929-0.8942 0.32708-0.91194 0.29645-0.9377 0.23845-0.93771 0.18207-0.95704 0.12728-0.95059 0.0628-0.94416 0.0129-0.92482-0.0516-0.8942-0.0822-0.85554-0.0999-0.7927-0.10634-0.74276-0.1015-0.68637-0.0822-0.64124-0.0564-0.60419-0.0193-0.56714 0.0193-0.53491 0.0628-0.48981 0.26424-0.90708 0.41569-0.82493 0.52202-0.76048 0.6493-0.70569 0.69764-0.64126 0.62998-0.55425 0.51557-0.43985 0.47208-0.43502 0.23362-0.43985 0.13212-0.71214 0.21268-0.84265 0.14501-0.51075 0.16434-0.54135 0.1885-0.55909 0.18851-0.54779 0.19495-0.51559 0.18368-0.47206 0.30774-0.78787 0.23845-0.59775 0.145-0.46563 0.12084-0.56553 0.1434-0.61708 0.24006-0.6042 0.2449-0.51075 0.27068-0.54135 0.17078-0.50269 0.19496-0.69925 0.15628-0.72342 0.20141-0.96832 0.12567-0.56069 0.145-0.59131 0.16434-0.61708 0.18851-0.62352 0.20139-0.62353 0.22074-0.61548 0.23201-0.62353 0.25295-0.61707 0.2449-0.59131 0.23846-0.57358 0.22073-0.52847 0.18851-0.49624 0.17723-0.45436 0.27068-0.85554 0.23201-0.88777 0.11927-0.48979 0.12567-0.53492 0.13857-0.56713 0.145-0.60419 0.14501-0.6477 0.1579-0.69925 0.16272-0.74276 0.19013-0.77337 0.19495-0.80558 0.21267-0.82493 0.20785-0.83621 0.2014-0.83781 0.19011-0.84265 0.14984-0.84425 0.13212-0.84266 0.0886-0.82492 0.0435-0.7927v-0.75565l-0.0435-0.68636-0.0999-0.62191-0.14501-0.56069-0.19495-0.49142-0.23363-0.44629-0.27712-0.40281-0.66058-0.67991-0.80559-0.52202-0.4463-0.22074-0.47852-0.2014-0.49141-0.18851-0.51558-0.17722-0.52846-0.16273-0.55425-0.15145-0.57359-0.12567-0.59774-0.10634-0.62192-0.0951-0.64286-0.0886-0.6348-0.087-0.64286-0.0822-0.63482-0.0822-0.61063-0.0822-0.59775-0.087-0.55424-0.11444-0.52202-0.13856-0.47853-0.14984-0.82492-0.39152-0.66059-0.46563-0.5043-0.5913-0.34479-0.79915-0.12084-0.4914-0.087-0.55909-0.0564-0.61708-0.0193-0.6477 6e-3 -0.67991 0.0371-0.67348 0.0628-0.67991 0.0886-0.6477 0.10634-0.61708 0.12567-0.56714 0.13857-0.50268 0.29645-0.8056 0.29002-0.52363 0.37701-0.38992 0.40925-0.25778 0.22073-0.53492 0.0758-0.67347-0.0822-0.51558-0.24651-0.53492-0.41407-0.58002-0.51075-0.61547-0.55908-0.68636-0.61708-0.76854-0.3158-0.40278-0.33351-0.4028-0.33996-0.40279-0.34478-0.40279-0.35931-0.39635-0.36573-0.38347-0.37701-0.37218-0.38347-0.36412-0.3899-0.35929-0.4028-0.34641-0.80559-0.67992-0.4028-0.34479-0.40279-0.35929-0.41569-0.36574-0.42212-0.37702-0.42858-0.37702-0.87971-0.74276-0.44791-0.33352-0.46563-0.31579-0.48496-0.26424-0.50269-0.21912-0.52202-0.17078-0.53492-0.13212-0.53491-0.08858-0.56069-0.06924-0.56714-0.03057-0.57841-0.01293-0.57841 0.01293-0.56714 0.02574-0.5607 0.0371-0.54135 0.0371-0.52847 0.03226-0.52202 0.03057-0.50913 0.01933h-0.50431l-0.49623-0.01933-0.48498-0.03057-0.92481-0.1015-0.90065-0.12567-0.8942-0.09993-0.88616-0.08857-0.84425-0.09993-0.7621-0.10791-0.66058-0.11274-0.5913-0.13211-0.62353-0.12567-0.69764-0.0951h-0.72986l-0.7621 0.13212-0.76853 0.24651-0.70409 0.29485-0.60419 0.29001-0.45919 0.25779-0.47207 0.22718-0.58486 0.15628-0.55425 0.08858-0.44791-0.35285-0.40763-0.37702-0.57358-0.16434-0.67347-0.05643h-0.48496l-0.51559 0.01293-0.56069 0.01293-0.55263 0.01293-0.52364-0.01293-0.48336-0.04507-0.6364-0.11927-0.42214-0.27068-0.30773-0.45919-0.29646-0.62353-0.20139-0.51557-0.20141-0.55425-0.2014-0.57842-0.23845-0.54136-0.23362-0.47207-0.33351-0.59131-0.3013-0.51719-0.24006-0.59774-0.30774-0.6477-0.47852-0.55425-0.40279-0.30129-0.38991-0.29001-0.54136-0.47852-0.47852-0.52848-0.33995-0.35929-0.36414-0.32062-0.56069-0.42697-0.61063-0.39635-0.42858-0.25295-0.51557-0.27068-0.58486-0.27068-0.62998-0.26424-0.6348-0.25134-0.5913-0.22718-0.56069-0.23845-0.52203-0.23845-0.50431-0.19013-0.59774-0.23201-0.15145-0.46563 0.42857-0.32062 0.68637-0.32868 0.56552-0.23201 0.64286-0.26424 0.69764-0.29001 0.64932-0.29645 0.54135-0.2578 0.6042-0.24489 0.5913-0.16918 0.5913-0.12084 0.59131-0.13212 0.7798-0.21912 0.91355-0.32224 0.47852-0.18851 0.46562-0.21428 0.44631-0.21912 0.80558-0.40924 0.69282-0.37862 0.57196-0.36414 0.47852-0.35929 0.42858-0.32707 0.38346-0.31418 0.44146-0.40923 0.49625 0.0371 0.33995 0.86843 0.24491 0.7057 0.2594 0.86198 0.23201 0.9506 0.19495 1.0005 0.10151 0.9941-0.0451 0.95704-0.95543 1.9383" stroke="#ffc273" stroke-width="13.695" style="mix-blend-mode:multiply"/></g></svg>
